SplineFontDB: 3.2
FontName: MFEKSans-Regular
FullName: MFEK Sans Regular
FamilyName: MFEK Sans
Weight: Regular
Copyright: 
Version: 0.1
ItalicAngle: 0
UnderlinePosition: -200
UnderlineWidth: 100
Ascent: 1600
Descent: 400
InvalidEm: 0
LayerCount: 2
Layer: 0 0 "Back" 1
Layer: 1 0 "Fore" 0
XUID: [1021 31 -699969567 16487490]
FSType: 0
OS2Version: 0
OS2_WeightWidthSlopeOnly: 0
OS2_UseTypoMetrics: 1
CreationTime: 1460762150
ModificationTime: 1676019143
PfmFamily: 33
TTFWeight: 400
TTFWidth: 1
LineGap: 0
VLineGap: 0
OS2TypoAscent: 2500
OS2TypoAOffset: 0
OS2TypoDescent: -850
OS2TypoDOffset: 0
OS2TypoLinegap: 0
OS2WinAscent: 2500
OS2WinAOffset: 0
OS2WinDescent: 850
OS2WinDOffset: 0
HheadAscent: 2500
HheadAOffset: 0
HheadDescent: -850
HheadDOffset: 0
OS2CapHeight: 1500
OS2XHeight: 1040
OS2FamilyClass: 2053
OS2Vendor: 'it* '
OS2UnicodeRanges: 00000001.00000000.00000000.00000000
Lookup: 258 0 0 "kerning yeah boi" { "say cheese" [300,0,4] } ['kern' ('DFLT' <'dflt' > 'grek' <'dflt' > 'latn' <'dflt' > ) ]
MarkAttachClasses: 1
DEI: 91125
KernClass2: 30 23 "say cheese"
 73 A Agrave Aacute Acircumflex Atilde Adieresis Aring Amacron Abreve Aogonek
 96 D O Ograve Oacute Ocircumflex Otilde Odieresis Oslash Dcaron Dcroat Omacron Obreve Ohungarumlaut
 81 E AE Egrave Eacute Ecircumflex Edieresis Emacron Ebreve Edotaccent Eogonek Ecaron
 1 F
 39 G Gcircumflex Gbreve Gdotaccent uni0122
 104 J U Ugrave Uacute Ucircumflex Udieresis IJ Jcircumflex Utilde Umacron Ubreve Uring Uhungarumlaut Uogonek
 11 K X uni0136
 23 L Lacute uni013B Lslash
 1 P
 1 Q
 23 R Racute uni0156 Rcaron
 36 S Sacute Scircumflex Scedilla Scaron
 21 T uni0162 Tcaron Tbar
 1 V
 53 W Wcircumflex Wgrave Wacute Wdieresis uni1E86 uni1E88
 30 Y Ycircumflex Ydieresis Ygrave
 26 Z Zacute Zdotaccent Zcaron
 73 a agrave aacute acircumflex atilde adieresis aring amacron abreve aogonek

StartChar: ampersand
Encoding: 38 38 0
Width: 616
VWidth: 1920
Flags: HMW
LayerCount: 2
Back
SplineSet
753 10 m 6
 268 734 l 6
 143.896484375 919.145507812 50 1030 50 1163 c 4
 50 1303.00195312 148 1435 355 1435 c 4
 542 1435 660 1353 670 1183 c 5
 670 1015 575.04296875 877.8203125 347 776 c 4
 93.3544921875 662.748046875 -54 592 -54 448 c 4
 -54 389.00390625 -40.01171875 341.438476562 -5.5 286 c 6
 40 212.909179688 l 6
 82.4921875 144.650390625 151.1953125 105 236.639648438 105 c 4
 428.239257812 105 614.073242188 336.231445312 722.131835938 640 c 4
 724.067382812 645.44140625 728.022460938 648 735 648 c 6
 855 648 l 6
 862.030273438 648 864.134765625 645.349609375 861.387695312 637 c 4
 726.465820312 226.83984375 508.814453125 -35 241.208984375 -35 c 4
 105.288085938 -35 -26.6318359375 21.1064453125 -91 118.501953125 c 6
 -144 198.696289062 l 6
 -197.024414062 278.927734375 -224 351.583984375 -224 448 c 4
 -224 657 -8 767 237 862 c 4
 397.7265625 924.322265625 535 1032 535 1163 c 4
 535 1243 472 1300 375 1300 c 4
 278 1300 220 1242.02636719 220 1153 c 4
 220 1034 290.549804688 972.534179688 357 876 c 6
 953 10 l 6
 957.669921875 3.2138671875 957 0 950 0 c 6
 770 0 l 6
 763 0 757.627929688 3.1064453125 753 10 c 6
EndSplineSet
Fore
SplineSet
464 5 m 2
 190 1036 l 2
 164 1126 149 1178 149 1243 c 0
 149 1332 209 1417 339 1417 c 0
 471 1417 534 1336 534 1230 c 0
 534 1092 421 994 278 930 c 0
 158 877 137 819 137 703 c 0
 137 663 147 602 167 535 c 2
 240 266 l 2
 269 156 281 90 330 90 c 0
 420 90 511 409 525 643 c 0
 525 646 528 647 531 647 c 2
 598 647 l 2
 602 647 603 645 603 641 c 0
 582 357 451 -16 299 -16 c 0
 197 -16 166 75 120 246 c 2
 57 480 l 2
 30 568 16 638 16 697 c 0
 16 847 112 932 244 994 c 0
 378 1058 435 1123 435 1222 c 0
 435 1296 409 1340 343 1340 c 0
 290 1340 264 1299 264 1239 c 0
 264 1183 273 1140 283 1107 c 2
 583 5 l 2
 585 2 585 0 581 0 c 2
 472 0 l 2
 468 0 466 2 464 5 c 2
EndSplineSet
EndChar

StartChar: period
Encoding: 46 46 1
Width: 290
VWidth: 1920
Flags: HMW
LayerCount: 2
Fore
SplineSet
197 0 m 2
 94 0 l 2
 87 0 84 3 84 10 c 2
 84 219 l 2
 84 226 87 229 94 229 c 2
 197 229 l 2
 204 229 207 226 207 219 c 2
 207 10 l 2
 207 3 204 0 197 0 c 2
EndSplineSet
EndChar

StartChar: zero
Encoding: 48 48 2
Width: 448
VWidth: 1920
Flags: HMW
LayerCount: 2
Fore
SplineSet
47 244 m 2
 47 1155 l 2
 47 1318 76 1417 224 1417 c 0
 372 1417 402 1318 402 1155 c 2
 402 244 l 2
 402 81 372 -18 224 -18 c 0
 76 -18 47 81 47 244 c 2
161 254 m 2
 161 136 161 64 224 64 c 0
 287 64 288 136 288 254 c 2
 288 1145 l 2
 288 1263 287 1334 224 1334 c 0
 161 1334 161 1263 161 1145 c 2
 161 254 l 2
EndSplineSet
EndChar

StartChar: one
Encoding: 49 49 3
Width: 302
VWidth: 1920
Flags: HMW
LayerCount: 2
Back
SplineSet
58 1374.24902344 m 4
 109.940429688 1376.59082031 139.987304688 1397.43554688 150.745117188 1440 c 4
 152.579101562 1447.2578125 156.3984375 1450 163 1450 c 6
 227 1450 l 6
 234 1450 237 1447 237 1440 c 6
 237 10 l 6
 237 3 234 0 227 0 c 6
 57 0 l 6
 50 0 47 3 47 10 c 6
 47 1364 l 6
 47 1370.734375 49.9912109375 1373.88769531 58 1374.24902344 c 4
EndSplineSet
Fore
SplineSet
100 1372 m 0
 132 1373 148 1388 153 1420 c 0
 154 1424 156 1425 159 1425 c 2
 203 1425 l 2
 207 1425 208 1424 208 1420 c 2
 208 5 l 2
 208 1 207 0 203 0 c 2
 100 0 l 2
 96 0 94 1 94 5 c 2
 94 1368 l 2
 94 1371 96 1372 100 1372 c 0
EndSplineSet
EndChar

StartChar: two
Encoding: 50 50 4
Width: 418
VWidth: 1920
Flags: HMW
LayerCount: 2
Back
SplineSet
80 60 m 262
 80 604.034179688 435 735.631835938 435 1033 c 262
 435 1078 l 262
 435 1188 422 1285 355 1285 c 260
 295 1285 285 1174.57601869 285 1002 c 262
 285 912 l 6
 285 905 282 902 275 902 c 6
 115 902 l 6
 108 902 105 905 105 912 c 6
 105 1002 l 262
 105 1275.74114594 132 1435 359 1435 c 260
 556 1435 615 1303 615 1073 c 262
 615 1028 l 262
 615 632.094726562 300 501 300 180 c 262
 300 170 l 261
 640 170 l 6
 647 170 650 167 650 160 c 6
 650 10 l 6
 650 3 647 0 640 0 c 6
 90 0 l 6
 83 0 80 3 80 10 c 6
 80 60 l 262
EndSplineSet
Fore
SplineSet
37 118 m 2
 37 485 264 658 264 963 c 2
 264 1141 l 2
 264 1267 261 1329 211 1329 c 0
 165 1329 158 1264 158 1143 c 2
 158 817 l 2
 158 813 158 812 154 812 c 2
 55 812 l 2
 51 812 49 813 49 817 c 2
 49 1139 l 2
 49 1318 79 1417 212 1417 c 0
 344 1417 373 1336 373 1137 c 2
 373 1004 l 2
 373 640 153 464 153 164 c 2
 153 98 l 1
 385 98 l 2
 389 98 390 96 390 92 c 2
 390 5 l 2
 390 1 389 0 385 0 c 2
 42 0 l 2
 38 0 37 1 37 5 c 2
 37 118 l 2
EndSplineSet
EndChar

StartChar: three
Encoding: 51 51 5
Width: 464
VWidth: 1920
Flags: HMW
LayerCount: 2
Back
SplineSet
90 407 m 6
 260 407 l 6
 267 407 270 404 270 397 c 6
 270 327 l 6
 270 207.036515383 301 115 440 115 c 4
 587 115 625 222 625 352 c 6
 625 447 l 6
 625 577 576.918945312 660 430 660 c 6
 350 660 l 6
 343 660 340 663 340 670 c 6
 340 800 l 6
 340 807 343 810 350 810 c 6
 410 810 l 6
 546.885742188 810 570 903 570 1023 c 6
 570 1088 l 6
 570 1198 551 1285 434 1285 c 4
 304 1285 295 1184.8148849 295 1052 c 6
 295 962 l 6
 295 955 292 952 285 952 c 6
 125 952 l 6
 118 952 115 955 115 962 c 6
 115 1052 l 6
 115 1286 192 1435 439 1435 c 4
 686 1435 765 1313 765 1083 c 6
 765 1058 l 6
 765 808 667 720 410 720 c 5
 430 770 l 5
 687 770 815 672 815 422 c 6
 815 347 l 6
 815 107 717 -35 430 -35 c 4
 188 -35 80 99 80 327 c 6
 80 397 l 6
 80 404 83 407 90 407 c 6
EndSplineSet
Fore
SplineSet
43 413 m 2
 146 413 l 2
 150 413 151 411 151 407 c 2
 151 176 l 2
 151 116 165 70 229 70 c 0
 297 70 312 122 312 187 c 2
 312 562 l 2
 312 624 291 664 221 664 c 2
 181 664 l 2
 177 664 176 665 176 669 c 2
 176 746 l 2
 176 750 177 751 181 751 c 2
 211 751 l 2
 276 751 288 794 288 852 c 2
 288 1232 l 2
 288 1288 279 1328 225 1328 c 0
 165 1328 162 1280 162 1216 c 2
 162 957 l 2
 162 953 160 952 156 952 c 2
 57 952 l 2
 53 952 53 953 53 957 c 2
 53 1220 l 2
 53 1337 94 1417 228 1417 c 0
 362 1417 404 1349 404 1234 c 2
 404 875 l 2
 404 745 348 700 214 700 c 1
 224 725 l 1
 358 725 427 676 427 545 c 2
 427 185 l 2
 427 59 375 -18 221 -18 c 0
 91 -18 38 55 38 173 c 2
 38 407 l 2
 38 411 39 413 43 413 c 2
EndSplineSet
EndChar

StartChar: four
Encoding: 52 52 6
Width: 461
VWidth: 1920
Flags: HMW
LayerCount: 2
Back
SplineSet
860 470 m 6
 860 340 l 6
 860 333 857 330 850 330 c 6
 670 330 l 261
 670 10 l 6
 670 3 667 0 660 0 c 6
 490 0 l 6
 483 0 480 3 480 10 c 6
 480 330 l 261
 60 330 l 6
 53 330 50 333 50 340 c 6
 50 490 l 6
 50 497 52.8139697216 502.573172087 57 510 c 6
 553 1390 l 6
 555.89191075 1395.1308094 562.5078125 1400 570 1400 c 6
 660 1400 l 6
 667 1400 670 1397 670 1390 c 6
 670 480 l 261
 850 480 l 6
 857 480 860 477 860 470 c 6
490 480 m 261
 490 1000.83300781 l 261
 205 480 l 261
 490 480 l 261
EndSplineSet
Fore
SplineSet
448 451 m 2
 448 374 l 2
 448 370 447 369 443 369 c 2
 353 369 l 1
 353 5 l 2
 353 1 352 0 348 0 c 2
 244 0 l 2
 240 0 239 1 239 5 c 2
 239 369 l 1
 28 369 l 2
 24 369 23 370 23 374 c 2
 23 462 l 2
 23 466 25 474 26 478 c 2
 269 1395 l 2
 270 1398 274 1400 278 1400 c 2
 348 1400 l 2
 352 1400 353 1399 353 1395 c 2
 353 456 l 1
 443 456 l 2
 447 456 448 455 448 451 c 2
244 456 m 1
 244 1052 l 1
 98 456 l 1
 244 456 l 1
EndSplineSet
EndChar

StartChar: five
Encoding: 53 53 7
Width: 425
VWidth: 1920
Flags: HMW
LayerCount: 2
Back
SplineSet
120 368 m 6
 270 368 l 6
 276.907396135 368 280.134673921 365.023536005 280.643589146 359.00001182 c 4
 293.910084797 201.977676061 237.780273438 105 385 105 c 4
 534 105 510 205 510 398 c 6
 510 523 l 6
 510 723 549 805 415 805 c 4
 328.91015625 805 384.405028825 764.098695051 326 663.57421875 c 4
 321.069906079 655.088731807 316.759862432 653 310 653 c 6
 140 653 l 6
 133 653 129.782208459 654.877665595 131 663 c 6
 240 1390 l 6
 241.026367188 1396.84570312 244 1400 251 1400 c 6
 631 1400 l 6
 638 1400 641 1397 641 1390 c 6
 641 1325 l 6
 641 1255 611 1250 441 1250 c 6
 386 1250 l 5
 292.328125 745.357421875 l 5
 269.328125 745.357421875 l 5
 323.97265625 868.810546875 299.609375 955 460 955 c 4
 660 955 700 790 700 493 c 6
 700 428 l 6
 700 131 655 -35 385 -35 c 4
 151.010742188 -35 126.269481101 101.001357694 110.536478604 357.999933597 c 4
 110.10707744 365.014201068 112.917282461 368 120 368 c 6
EndSplineSet
Fore
SplineSet
57 364 m 2
 151 364 l 2
 154 364 156 363 156 360 c 0
 156 128 163 64 205 64 c 0
 247 64 264 166 264 326 c 2
 264 614 l 2
 264 818 262 848 231 848 c 0
 206 848 192 805 166 646 c 0
 165 641 161 640 158 640 c 2
 67 640 l 2
 63 640 62 642 63 646 c 2
 99 1395 l 2
 100 1398 101 1400 105 1400 c 2
 379 1400 l 2
 383 1400 383 1399 383 1395 c 2
 383 1357 l 2
 383 1319 367 1312 279 1312 c 2
 187 1312 l 1
 153 690 l 1
 145 690 l 1
 152 810 185 937 269 937 c 0
 345 937 378 855 378 603 c 2
 378 305 l 2
 378 77 330 -17 212 -17 c 0
 98 -17 56 51 52 359 c 0
 52 363 53 364 57 364 c 2
EndSplineSet
EndChar

StartChar: six
Encoding: 54 54 8
Width: 486
VWidth: 1920
Flags: HMW
LayerCount: 2
Back
SplineSet
470 740 m 260
 370 740 310 675 310 492 c 262
 310 422 l 261
 250 522 l 261
 250 786 323 890 520 890 c 260
 757 890 819 731 819 457 c 262
 819 407 l 262
 819 129 751 -35 479 -35 c 260
 142 -35 125 167 125 527 c 262
 125 843 l 262
 125 1223 153 1435 450 1435 c 260
 727 1435 764 1265.83496094 764 1082 c 262
 764 1052 l 6
 764 1045 761 1042 754 1042 c 6
 604 1042 l 6
 597 1042 594 1045 594 1052 c 6
 594 1082 l 262
 594 1164.91113281 590 1285 460 1285 c 260
 313 1285 310 1138 310 838 c 262
 310 422 l 262
 310 232 322 115 469 115 c 260
 628 115 629 237 629 417 c 262
 629 457 l 262
 629 640 610 740 470 740 c 260
EndSplineSet
Fore
SplineSet
243 713 m 0
 196 713 169 681 169 588 c 2
 169 554 l 1
 137 602 l 1
 137 734 176 794 276 794 c 0
 397 794 430 712 430 570 c 2
 430 212 l 2
 430 66 392 -18 248 -18 c 0
 74 -18 57 84 57 272 c 2
 57 1121 l 2
 57 1320 88 1417 233 1417 c 0
 379 1417 404 1321 404 1184 c 2
 404 949 l 2
 404 945 402 944 398 944 c 2
 305 944 l 2
 301 944 300 945 300 949 c 2
 300 1182 l 2
 300 1261 298 1328 238 1328 c 0
 179 1328 169 1267 169 1118 c 2
 169 221 l 2
 169 125 174 71 242 71 c 0
 316 71 316 127 316 218 c 2
 316 571 l 2
 316 664 307 713 243 713 c 0
EndSplineSet
EndChar

StartChar: seven
Encoding: 55 55 9
Width: 374
VWidth: 1920
Flags: HMW
LayerCount: 2
Back
SplineSet
1007.56835938 1390 m 6
 435.568359375 10 l 6
 432.505859375 2.611328125 429.065429688 0 421.568359375 0 c 6
 231.568359375 0 l 6
 224.568359375 0 222.50390625 3.220703125 225.568359375 10 c 6
 781.568359375 1240 l 261
 81.568359375 1240 l 6
 74.568359375 1240 71.568359375 1243 71.568359375 1250 c 6
 71.568359375 1390 l 6
 71.568359375 1397 74.568359375 1400 81.568359375 1400 c 6
 1001.56835938 1400 l 6
 1008.94042969 1400 1010.78417969 1396.23046875 1007.56835938 1390 c 6
EndSplineSet
Fore
SplineSet
375 1395 m 2
 189 5 l 2
 187 1 185 0 181 0 c 2
 83 0 l 2
 79 0 77 2 79 5 c 2
 274 1302 l 1
 39 1302 l 2
 35 1302 35 1303 35 1307 c 2
 35 1395 l 2
 35 1399 35 1400 39 1400 c 2
 371 1400 l 2
 375 1400 377 1398 375 1395 c 2
EndSplineSet
EndChar

StartChar: eight
Encoding: 56 56 10
Width: 469
VWidth: 1920
Flags: HMW
LayerCount: 2
Back
SplineSet
443 110 m 260
 572.859375 110 579 196.100585938 579 342 c 262
 579 427 l 262
 579 574.159179688 573.689453125 659.927734375 443 659.927734375 c 260
 312.310546875 659.927734375 307 574.159179688 307 427 c 262
 307 342 l 262
 307 196.100585938 313.140625 110 443 110 c 260
443 810 m 260
 513.428710938 810 529 887.231445312 529 1023 c 262
 529 1088 l 262
 529 1214.95996094 511.329101562 1290 443 1290 c 260
 374.670898438 1290 357 1214.95996094 357 1088 c 262
 357 1023 l 262
 357 887.231445312 372.571289062 810 443 810 c 260
474 760 m 261
 754.075195312 760 769 623.61328125 769 392 c 262
 769 347 l 262
 769 99.75 751.090820312 -35 443 -35 c 260
 134.909179688 -35 117 99.75 117 347 c 262
 117 392 l 262
 117 623.61328125 131.924804688 760 412 760 c 261
 414 720.282226562 l 261
 187.81640625 725.765625 167 837.047851562 167 1058 c 262
 167 1083 l 262
 167 1304.25878906 175.2265625 1435 443 1435 c 260
 710.7734375 1435 719 1304.25878906 719 1083 c 262
 719 1058 l 262
 719 837.047851562 698.18359375 725.765625 472 720.282226562 c 261
 474 760 l 261
EndSplineSet
Fore
SplineSet
234 68 m 0
 295 68 298 108 298 177 c 2
 298 556 l 2
 298 626 295 665 234 665 c 0
 173 665 170 626 170 556 c 2
 170 177 l 2
 170 108 173 68 234 68 c 0
234 752 m 0
 268 752 289 789 289 852 c 2
 289 1238 l 2
 289 1296 267 1332 234 1332 c 0
 201 1332 180 1296 180 1238 c 2
 180 852 l 2
 180 789 200 752 234 752 c 0
250 721 m 1
 399 721 412 651 412 531 c 2
 412 180 l 2
 412 52 397 -18 234 -18 c 0
 74 -18 56 52 56 180 c 2
 56 531 l 2
 56 651 73 721 219 721 c 1
 220 701 l 1
 98 704 65 763 65 879 c 2
 65 1232 l 2
 65 1349 94 1417 234 1417 c 0
 377 1417 402 1349 402 1232 c 2
 402 879 l 2
 402 763 374 704 249 701 c 1
 250 721 l 1
EndSplineSet
EndChar

StartChar: nine
Encoding: 57 57 11
Width: 469
VWidth: 1920
Flags: HMW
LayerCount: 2
Fore
SplineSet
235 686 m 0
 273 686 300 718 300 811 c 2
 300 845 l 1
 332 797 l 1
 332 665 294 605 202 605 c 0
 81 605 57 688 57 830 c 2
 57 1187 l 2
 57 1333 86 1417 230 1417 c 0
 404 1417 412 1315 412 1127 c 2
 412 278 l 2
 412 79 381 -18 236 -18 c 0
 90 -18 65 78 65 215 c 2
 65 450 l 2
 65 454 66 455 70 455 c 2
 163 455 l 2
 167 455 168 454 168 450 c 2
 168 217 l 2
 168 138 170 71 231 71 c 0
 291 71 300 132 300 281 c 2
 300 1178 l 2
 300 1274 295 1328 236 1328 c 0
 171 1328 171 1272 171 1181 c 2
 171 828 l 2
 171 735 179 686 235 686 c 0
EndSplineSet
EndChar

StartChar: A
Encoding: 65 65 12
Width: 455
VWidth: 960
Flags: HMW
AnchorPoint: "ogonek" 375 0 basechar 0
AnchorPoint: "bottom" 222 0 basechar 0
AnchorPoint: "top" 222 1400 basechar 0
LayerCount: 2
Fore
SplineSet
110 498 m 1
 325 498 l 1
 325 417 l 1
 110 417 l 1
 110 498 l 1
215 1250 m 1
 117 5 l 2
 116 2 114 0 110 0 c 2
 21 0 l 2
 17 0 17 2 18 5 c 2
 150 1395 l 2
 151 1398 152 1400 156 1400 c 2
 290 1400 l 2
 294 1400 295 1398 296 1395 c 2
 438 5 l 2
 439 2 439 0 435 0 c 2
 325 0 l 2
 321 0 319 1 318 5 c 2
 215 1250 l 1
EndSplineSet
EndChar

StartChar: B
Encoding: 66 66 13
Width: 486
VWidth: 960
Flags: HMW
AnchorPoint: "top" 232 1400 basechar 0
AnchorPoint: "bottom" 232 0 basechar 0
LayerCount: 2
Back
SplineSet
280 770 m 261
 305 770 l 262
 328 770 338 794 338 869 c 262
 338 1126 l 262
 338 1201 333 1225 305 1225 c 262
 280 1225 l 261
 280 770 l 261
335 725 m 261
 463 725 592 656 592 461 c 262
 592 294 l 262
 592 84 503 -1.93494194265e-14 345 0 c 262
 40 0 l 262
 36 0 35 1 35 5 c 262
 35 1395 l 262
 35 1399 36 1400 40 1400 c 262
 335 1400 l 262
 493 1400 568 1307 568 1112 c 262
 568 959 l 262
 568 764 453 700 325 700 c 261
 335 725 l 261
310 645 m 262
 280 645 l 261
 280 175 l 261
 310 175 l 262
 338 175 342 203 342 278 c 262
 342 541 l 262
 342 616 338 645 310 645 c 262
EndSplineSet
Fore
SplineSet
192 748 m 5
 244 748 l 6
 289 748 311 801 311 933 c 6
 311 1133 l 6
 311 1265 290 1312 244 1312 c 6
 192 1312 l 5
 192 748 l 5
261 725 m 5
 354 725 448 673 448 478 c 6
 448 250 l 6
 448 49 381 0 262 0 c 6
 84 0 l 6
 80 0 79 1 79 5 c 6
 79 1395 l 6
 79 1399 80 1400 84 1400 c 6
 252 1400 l 6
 371 1400 427 1342 427 1156 c 6
 427 942 l 6
 427 756 344 700 251 700 c 5
 261 725 l 5
249 667 m 6
 192 667 l 5
 192 88 l 5
 249 88 l 6
 316 88 330 136 330 272 c 6
 330 477 l 6
 330 622 317 667 249 667 c 6
EndSplineSet
EndChar

StartChar: C
Encoding: 67 67 14
Width: 500
VWidth: 960
Flags: HMW
AnchorPoint: "top" 252 1400 basechar 0
AnchorPoint: "bottom" 232 0 basechar 0
LayerCount: 2
Back
SplineSet
550 603 m 260
 549.4453125 526.143554688 549.606329967 366.677378693 547.736328125 294 c 4
 542.69921875 98.2333984375 454.616210938 -18 272 -18 c 260
 68 -18 25 109 25 349 c 262
 25 1042 l 262
 25 1272 68 1418 282 1418 c 260
 465.993164062 1418 533.122070312 1292.73339844 533.677734375 1074 c 4
 533.809570312 1022.16601562 534.536132812 926.009765625 535 866 c 260
 535.03125 862 534 862 530 862 c 262
 356 862 l 262
 352 862 350.015625 862 350 866 c 260
 349 1129 352 1218 312 1218 c 260
 277 1218 275 1161 275 1046 c 262
 275 314 l 262
 275 214 279 182 312 182 c 260
 349 182 355 262 355 603 c 260
 355 607 356 608 360 608 c 262
 545 608 l 262
 549 608 550.029296875 607 550 603 c 260
EndSplineSet
Fore
SplineSet
449 603 m 4
 449 522 448 429 447 332 c 4
 445 96 389 -18 238 -18 c 4
 66 -18 47 127 47 358 c 6
 47 1042 l 6
 47 1290 92 1418 244 1418 c 4
 394 1418 440 1293 442 1052 c 4
 443 995 443 924 443 866 c 4
 443 862 442 862 438 862 c 6
 351 862 l 6
 347 862 346 862 346 866 c 4
 345 1216 328 1323 255 1323 c 4
 182 1323 166 1231 166 1046 c 6
 166 349 l 6
 166 183 172 77 246 77 c 4
 322 77 350 144 351 603 c 4
 351 607 352 608 356 608 c 6
 444 608 l 6
 448 608 449 607 449 603 c 4
EndSplineSet
EndChar

StartChar: D
Encoding: 68 68 15
Width: 506
VWidth: 960
Flags: HMW
AnchorPoint: "top" 227 1400 basechar 0
AnchorPoint: "bottom" 212 0 basechar 0
LayerCount: 2
Fore
SplineSet
230 0 m 6
 84 0 l 6
 80 0 79 1 79 5 c 6
 79 1395 l 6
 79 1399 80 1400 84 1400 c 6
 230 1400 l 6
 406 1400 459 1276 459 1018 c 6
 459 374 l 6
 459 116 426 0 230 0 c 6
232 88 m 6
 316 88 341 163 341 369 c 6
 341 1022 l 6
 341 1228 316 1312 232 1312 c 6
 192 1312 l 5
 192 88 l 5
 232 88 l 6
EndSplineSet
EndChar

StartChar: E
Encoding: 69 69 16
Width: 440
VWidth: 960
Flags: HMW
AnchorPoint: "ogonek" 350 0 basechar 0
AnchorPoint: "top" 242 1400 basechar 0
AnchorPoint: "bottom" 242 0 basechar 0
LayerCount: 2
Back
SplineSet
280 770 m 261
 365 770 l 262
 369 770 370 769 370 765 c 262
 370 650 l 262
 370 646 369 645 365 645 c 262
 280 645 l 261
 280 175 l 261
 435 175 l 262
 439 175 440 174 440 170 c 262
 440 5 l 262
 440 1 439 0 435 0 c 262
 40 0 l 262
 36 0 35 1 35 5 c 262
 35 1395 l 262
 35 1399 36 1400 40 1400 c 262
 425 1400 l 262
 429 1400 430 1399 430 1395 c 262
 430 1230 l 262
 430 1226 429 1225 425 1225 c 262
 280 1225 l 261
 280 770 l 261
EndSplineSet
Fore
SplineSet
192 748 m 5
 308 748 l 6
 312 748 313 747 313 743 c 6
 313 672 l 6
 313 668 312 667 308 667 c 6
 192 667 l 5
 192 88 l 5
 391 88 l 6
 395 88 396 86 396 82 c 6
 396 5 l 6
 396 1 395 0 391 0 c 6
 84 0 l 6
 80 0 79 1 79 5 c 6
 79 1395 l 6
 79 1399 80 1400 84 1400 c 6
 381 1400 l 6
 385 1400 386 1399 386 1395 c 6
 386 1318 l 6
 386 1314 385 1312 381 1312 c 6
 192 1312 l 5
 192 748 l 5
EndSplineSet
EndChar

StartChar: F
Encoding: 70 70 17
Width: 395
VWidth: 960
Flags: HMW
AnchorPoint: "top" 222 1400 basechar 0
AnchorPoint: "bottom" 222 0 basechar 0
LayerCount: 2
Fore
SplineSet
192 749 m 5
 313 749 l 6
 317 749 318 748 318 744 c 6
 318 672 l 6
 318 668 317 668 313 668 c 6
 192 668 l 5
 192 5 l 6
 192 1 192 0 188 0 c 6
 84 0 l 6
 80 0 79 1 79 5 c 6
 79 1395 l 6
 79 1399 80 1400 84 1400 c 6
 360 1400 l 6
 364 1400 365 1399 365 1395 c 6
 365 1318 l 6
 365 1314 364 1312 360 1312 c 6
 192 1312 l 5
 192 749 l 5
EndSplineSet
EndChar

StartChar: G
Encoding: 71 71 18
Width: 503
VWidth: 960
Flags: HMW
AnchorPoint: "top" 257 1400 basechar 0
AnchorPoint: "bottom" 258 0 basechar 0
LayerCount: 2
Back
SplineSet
310 582 m 6
 310 695 l 6
 310 699 311 700 315 700 c 6
 565 700 l 6
 569 700 570 699 570 695 c 6
 570 5 l 6
 570 1 569 0 565 0 c 6
 450 0 l 6
 446 0 445 1 444 5 c 6
 405 280 l 5
 460 630 l 5
 450 245 446 -18 232 -18 c 4
 64 -18 25 119 25 409 c 6
 25 992 l 6
 25 1282 68 1418 282 1418 c 4
 468.267578125 1418 530.130859375 1296.29394531 531.26171875 1094 c 4
 531.543945312 1043.47949219 534.032226562 927.952148438 535 867 c 4
 535.063476562 863.000976562 534 863 530 863 c 6
 335 863 l 6
 331 863 330.048828125 863 330 867 c 4
 326 1195 333 1228 300 1228 c 4
 277 1228 275 1181 275 996 c 6
 275 404 l 6
 275 224 278 172 316 172 c 4
 349 172 355 231 363 628 c 5
 424 578 l 5
 315 578 l 6
 312 578 310 578 310 582 c 6
EndSplineSet
Fore
SplineSet
279 614 m 2
 279 682 l 2
 279 686 280 687 284 687 c 2
 447 687 l 2
 451 687 452 686 452 682 c 2
 452 5 l 2
 452 1 451 0 447 0 c 2
 393 0 l 2
 389 0 388 1 387 5 c 2
 361 228 l 1
 386 639 l 1
 376 175 385 -18 220 -18 c 0
 64 -18 47 93 47 383 c 2
 47 1018 l 2
 47 1273 74 1418 244 1418 c 0
 397 1418 431 1308 432 1120 c 0
 432 1040 432 948 434 867 c 0
 434 863 433 863 429 863 c 2
 344 863 l 2
 340 863 339 863 339 867 c 0
 335 1253 330 1333 249 1333 c 0
 169 1333 166 1216 166 1022 c 2
 166 378 l 2
 166 150 178 67 248 67 c 0
 316 67 342 183 354 637 c 1
 367 608 l 1
 284 608 l 2
 280 608 279 610 279 614 c 2
EndSplineSet
EndChar

StartChar: H
Encoding: 72 72 19
Width: 505
VWidth: 960
Flags: HMW
AnchorPoint: "top" 247 1400 basechar 0
AnchorPoint: "bottom" 248 0 basechar 0
LayerCount: 2
Fore
SplineSet
326 1400 m 2
 430 1400 l 2
 434 1400 435 1399 435 1395 c 2
 435 5 l 2
 435 1 434 0 430 0 c 2
 326 0 l 2
 322 0 321 1 321 5 c 2
 321 664 l 1
 184 664 l 1
 184 5 l 2
 184 1 183 0 179 0 c 2
 75 0 l 2
 71 0 70 1 70 5 c 2
 70 1395 l 18
 70 1399 71 1400 75 1400 c 10
 179 1400 l 18
 183 1400 184 1399 184 1395 c 10
 184 751 l 1
 321 751 l 1
 321 1395 l 2
 321 1399 322 1400 326 1400 c 2
EndSplineSet
EndChar

StartChar: I
Encoding: 73 73 20
Width: 280
VWidth: 960
Flags: HMW
AnchorPoint: "ogonek" 140 0 basechar 0
AnchorPoint: "top" 140 1400 basechar 0
AnchorPoint: "bottom" 140 0 basechar 0
LayerCount: 2
Fore
SplineSet
88 1400 m 14
 192 1400 l 22
 196 1400 197 1399 197 1395 c 14
 197 5 l 22
 197 1 196 0 192 0 c 14
 88 0 l 22
 84 0 83 1 83 5 c 14
 83 1395 l 22
 83 1399 84 1400 88 1400 c 14
EndSplineSet
EndChar

StartChar: J
Encoding: 74 74 21
Width: 408
VWidth: 960
Flags: HMW
AnchorPoint: "top" 264 1400 basechar 0
AnchorPoint: "bottom" 165 0 basechar 0
LayerCount: 2
Fore
SplineSet
210 1400 m 6
 319 1400 l 6
 323 1400 325 1399 325 1395 c 6
 325 269 l 6
 325 59 293 -18 164 -18 c 4
 52 -18 24 59 24 239 c 6
 24 657 l 6
 24 661 26 663 30 663 c 6
 116 663 l 6
 120 663 122 661 122 657 c 6
 122 244 l 6
 122 100 133 74 163 74 c 4
 197 74 206 96 206 254 c 6
 206 1395 l 6
 206 1399 206 1400 210 1400 c 6
EndSplineSet
EndChar

StartChar: K
Encoding: 75 75 22
Width: 463
VWidth: 960
Flags: HMW
AnchorPoint: "top" 252 1400 basechar 0
AnchorPoint: "bottom" 252 0 basechar 0
LayerCount: 2
Back
SplineSet
-120 1400 m 14
 115 1400 l 22
 119 1400 120 1399 120 1395 c 14
 120 5 l 22
 120 1 119 0 115 0 c 14
 -120 0 l 22
 -124 0 -125 1 -125 5 c 14
 -125 1395 l 22
 -125 1399 -124 1400 -120 1400 c 14
  Spiro
    -120 1400 [
    115 1400 ]
    118.072 1399.59 o
    119.593 1398.07 o
    120 1395 [
    120 5 ]
    119.593 1.92815 o
    118.072 0.406519 o
    115 0 [
    -120 0 ]
    -123.072 0.406519 o
    -124.594 1.92815 o
    -125 5 [
    -125 1395 ]
    -124.594 1398.07 o
    -123.072 1399.59 o
    0 0 z
  EndSpiro
120 785 m 5
 295 890 l 5
 506 5 l 6
 507.376953125 0 507.376953125 0 505 0 c 6
 235 0 l 6
 230.0390625 0 226.34765625 2.861328125 226 5 c 6
 120 785 l 5
280 1395 m 6
 281.2421875 1398.92285156 285.25 1400 290 1400 c 6
 492 1400 l 6
 494.995117188 1400 496.650390625 1399.13769531 495 1395 c 6
 246.41796875 720 l 5
 186.41796875 770 l 5
 110 450 l 5
 -5 505 l 5
 280 1395 l 6
EndSplineSet
Fore
SplineSet
75 1400 m 14
 179 1400 l 22
 183 1400 184 1399 184 1395 c 14
 184 5 l 22
 184 1 183 0 179 0 c 14
 75 0 l 22
 71 0 70 1 70 5 c 14
 70 1395 l 22
 70 1399 71 1400 75 1400 c 14
199 746 m 5
 280 824 l 5
 456 5 l 6
 459 1 459 0 455 0 c 6
 338 0 l 6
 334 0 332 1 329 5 c 6
 199 746 l 5
352 1395 m 6
 355 1397 357 1400 362 1400 c 6
 446 1400 l 6
 452 1400 453 1399 449 1395 c 6
 245 660 l 5
 227 690 l 5
 168 463 l 5
 124 518 l 5
 352 1395 l 6
EndSplineSet
EndChar

StartChar: L
Encoding: 76 76 23
Width: 349
VWidth: 960
Flags: HMW
AnchorPoint: "top" 132 1400 basechar 0
AnchorPoint: "bottom" 212 0 basechar 0
LayerCount: 2
Fore
SplineSet
75 1400 m 6
 179 1400 l 6
 183 1400 184 1399 184 1395 c 6
 184 88 l 29
 315 88 l 6
 319 88 320 86 320 82 c 6
 320 5 l 6
 320 1 319 0 315 0 c 6
 75 0 l 6
 71 0 70 1 70 5 c 6
 70 1395 l 6
 70 1399 71 1400 75 1400 c 6
EndSplineSet
EndChar

StartChar: M
Encoding: 77 77 24
Width: 627
VWidth: 960
Flags: HMW
AnchorPoint: "top" 307 1400 basechar 0
AnchorPoint: "bottom" 307 0 basechar 0
LayerCount: 2
Fore
SplineSet
156 1137 m 5
 156 5 l 6
 156 1 155 0 151 0 c 6
 74 0 l 6
 70 0 69 1 69 5 c 6
 69 1395 l 6
 69 1399 70 1400 74 1400 c 6
 211 1400 l 6
 215 1400 217 1399 218 1395 c 6
 317 396 l 5
 417 1395 l 6
 418 1399 420 1400 424 1400 c 6
 552 1400 l 6
 556 1400 558 1399 558 1395 c 6
 558 5 l 6
 558 1 556 0 552 0 c 6
 459 0 l 6
 455 0 454 1 454 5 c 6
 454 1149 l 5
 337 5 l 6
 336 1 334 0 330 0 c 6
 288 0 l 6
 284 0 282 1 281 5 c 6
 156 1137 l 5
EndSplineSet
EndChar

StartChar: N
Encoding: 78 78 25
Width: 502
VWidth: 960
Flags: HMW
AnchorPoint: "top" 267 1400 basechar 0
AnchorPoint: "bottom" 262 0 basechar 0
LayerCount: 2
Fore
SplineSet
341 1400 m 6
 429 1400 l 6
 433 1400 434 1399 434 1395 c 6
 434 5 l 6
 434 1 433 0 429 0 c 6
 369 0 l 6
 365 0 361 1 360 5 c 6
 146 1174 l 5
 166 1174 l 5
 166 5 l 6
 166 1 165 0 161 0 c 6
 74 0 l 6
 70 0 69 1 69 5 c 6
 69 1395 l 6
 69 1399 70 1400 74 1400 c 6
 184 1400 l 6
 188 1400 192 1399 193 1395 c 6
 356 443 l 5
 336 443 l 5
 336 1395 l 6
 336 1399 337 1400 341 1400 c 6
EndSplineSet
EndChar

StartChar: O
Encoding: 79 79 26
Width: 502
VWidth: 960
Flags: HMW
AnchorPoint: "top" 252 1400 basechar 0
AnchorPoint: "bottom" 252 0 basechar 0
LayerCount: 2
Fore
SplineSet
47 315 m 6
 47 1086 l 6
 47 1323 99 1418 251 1418 c 4
 404 1418 456 1322 456 1086 c 6
 456 315 l 6
 456 79 403 -18 251 -18 c 4
 99 -18 47 78 47 315 c 6
166 299 m 6
 166 114 191 64 251 64 c 4
 312 64 337 115 337 299 c 6
 337 1101 l 6
 337 1285 312 1336 251 1336 c 4
 191 1336 166 1286 166 1101 c 6
 166 299 l 6
EndSplineSet
EndChar

StartChar: P
Encoding: 80 80 27
Width: 456
VWidth: 960
Flags: HMW
AnchorPoint: "top" 222 1400 basechar 0
AnchorPoint: "bottom" 148 0 basechar 0
LayerCount: 2
Fore
SplineSet
192 1312 m 5
 192 699 l 5
 216 699 l 6
 273 699 294 740 294 851 c 6
 294 1160 l 6
 294 1271 273 1312 216 1312 c 6
 192 1312 l 5
206 1400 m 6
 336 1400 408 1347 408 1145 c 6
 408 872 l 6
 408 670 332 618 206 618 c 6
 192 618 l 5
 192 5 l 6
 192 1 192 0 188 0 c 6
 84 0 l 6
 80 0 79 1 79 5 c 6
 79 1395 l 6
 79 1399 80 1400 84 1400 c 6
 206 1400 l 6
EndSplineSet
EndChar

StartChar: Q
Encoding: 81 81 28
Width: 608
VWidth: 960
Flags: HMW
AnchorPoint: "top" 272 1400 basechar 0
AnchorPoint: "bottom" 272 0 basechar 0
LayerCount: 2
Fore
SplineSet
575 82 m 6
 575 5 l 6
 575 1 576 0 570 -2 c 4
 468 -37 402 46 402 179 c 5
 458 294 l 5
 458 119 425 -18 263 -18 c 4
 90 -18 64 120 64 295 c 6
 64 1105 l 6
 64 1280 94 1418 277 1418 c 4
 460 1418 491 1280 491 1105 c 6
 491 188 l 6
 491 118 514 81 569 88 c 4
 575 89 575 85 575 82 c 6
372 277 m 6
 372 1124 l 6
 372 1250 358 1336 277 1336 c 4
 196 1336 183 1250 183 1124 c 6
 183 277 l 6
 183 150 196 64 277 64 c 4
 358 64 372 150 372 277 c 6
EndSplineSet
EndChar

StartChar: R
Encoding: 82 82 29
Width: 507
VWidth: 960
Flags: HMW
AnchorPoint: "top" 237 1400 basechar 0
AnchorPoint: "bottom" 238 0 basechar 0
LayerCount: 2
Back
SplineSet
280 1225 m 261
 280 720 l 261
 300 720 l 262
 334 720 338 751 338 796 c 262
 338 1148 l 262
 338 1188 334 1225 300 1225 c 262
 280 1225 l 261
310 1400 m 262
 543 1400 588 1296 588 1141 c 262
 588 879 l 262
 588 709 474 640 310 640 c 261
 310 670 l 261
 488 670 592 656 592 466 c 262
 592 164 l 262
 592 107 598 64 621 30 c 4
 625 24 625 23 625 20 c 6
 625 5 l 6
 625 1 624 0 620 0 c 6
 382 0 l 6
 378 0 374.8671875 1.904296875 372 6 c 4
 344 46 338 90 338 164 c 262
 338 536 l 262
 338 576 323 595 295 595 c 262
 280 595 l 261
 280 5 l 6
 280 1 279 0 275 0 c 6
 40 0 l 6
 36 0 35 1 35 5 c 6
 35 1395 l 6
 35 1399 36 1400 40 1400 c 6
 310 1400 l 262
EndSplineSet
Fore
SplineSet
192 1312 m 5
 192 742 l 5
 230 742 l 6
 290 742 312 784 312 895 c 6
 312 1159 l 6
 312 1269 290 1312 230 1312 c 6
 192 1312 l 5
231 1400 m 6
 368 1400 430 1327 430 1150 c 6
 430 923 l 6
 430 744 355 684 231 684 c 5
 231 714 l 5
 357 714 426 678 426 549 c 6
 426 225 l 6
 426 81 441 64 464 30 c 4
 468 24 468 23 468 20 c 6
 468 5 l 6
 468 1 466 0 462 0 c 6
 354 0 l 6
 350 0 349 0 346 4 c 4
 318 53 312 90 312 225 c 6
 312 571 l 6
 312 629 297 661 229 661 c 6
 192 661 l 5
 192 5 l 6
 192 1 192 0 188 0 c 6
 84 0 l 6
 80 0 79 1 79 5 c 6
 79 1395 l 6
 79 1399 80 1400 84 1400 c 6
 231 1400 l 6
EndSplineSet
EndChar

StartChar: S
Encoding: 83 83 30
Width: 446
VWidth: 960
Flags: HMW
AnchorPoint: "top" 222 1400 basechar 0
AnchorPoint: "bottom" 232 0 basechar 0
LayerCount: 2
Back
SplineSet
55 524 m 6
 130 524 l 6
 131 524 135 524 135 520 c 4
 135 434 136 339 136 258 c 4
 136 86.9950496263 166 58 215 58 c 260
 259 58 308 104 308 330 c 260
 308 498 254.868164062 607.751953125 203 683 c 260
 133.606445312 783.673828125 70 892 70 1126 c 260
 70 1366 129 1418 227 1418 c 260
 319 1418 375 1368 375 1150 c 6
 375 906 l 6
 375 902 373 902 370 902 c 6
 295 902 l 6
 292 902 290 903 290 906 c 4
 290 988 290 1062 290 1146 c 4
 290 1324 266 1348 228 1348 c 260
 190 1348 160 1311 160 1126 c 260
 160 940 220.083007812 820.859375 265 760 c 260
 333.899414062 666.647460938 400 553 400 334 c 260
 400 61 329 -18 215 -18 c 260
 105 -18 50 45 50 234 c 6
 50 520 l 6
 50 524 54 524 55 524 c 6
EndSplineSet
Fore
SplineSet
50 524 m 6
 138 524 l 6
 139 524 143 524 143 520 c 4
 143 436 144 343 144 261 c 4
 144 101 171 72 216 72 c 4
 258 72 301 117 301 293 c 4
 301 439 233 573 181 686 c 4
 117 825 63 958 63 1160 c 4
 63 1361 124 1418 230 1418 c 4
 331 1418 388 1360 388 1150 c 6
 388 906 l 6
 388 902 385 902 382 902 c 6
 296 902 l 6
 293 902 291 903 291 906 c 4
 291 990 291 1063 291 1145 c 4
 291 1311 269 1334 234 1334 c 4
 199 1334 172 1299 172 1162 c 4
 172 999 217 875 280 744 c 4
 337 626 411 481 411 296 c 4
 411 64 339 -18 219 -18 c 4
 102 -18 46 46 46 235 c 6
 46 520 l 6
 46 524 49 524 50 524 c 6
EndSplineSet
EndChar

StartChar: T
Encoding: 84 84 31
Width: 405
VWidth: 960
Flags: HMW
AnchorPoint: "top" 202 1400 basechar 0
AnchorPoint: "bottom" 162 0 basechar 0
LayerCount: 2
Fore
SplineSet
22 1400 m 2
 382 1400 l 2
 386 1400 388 1399 388 1395 c 2
 388 1318 l 2
 388 1314 386 1312 382 1312 c 2
 259 1312 l 1
 259 5 l 2
 259 1 258 0 254 0 c 2
 151 0 l 2
 147 0 146 1 146 5 c 2
 146 1312 l 1
 22 1312 l 2
 18 1312 18 1314 18 1318 c 2
 18 1395 l 2
 18 1399 18 1400 22 1400 c 2
EndSplineSet
EndChar

StartChar: U
Encoding: 85 85 32
Width: 501
VWidth: 960
Flags: HMW
AnchorPoint: "ogonek" 310 0 basechar 0
AnchorPoint: "top" 262 1400 basechar 0
AnchorPoint: "bottom" 262 0 basechar 0
LayerCount: 2
Fore
SplineSet
328 219 m 6
 328 1395 l 6
 328 1399 329 1400 333 1400 c 6
 420 1400 l 6
 424 1400 426 1399 426 1395 c 6
 426 246 l 6
 426 86 413 -18 260 -18 c 4
 122 -18 76 55 76 250 c 6
 76 1395 l 6
 76 1399 76 1400 80 1400 c 6
 189 1400 l 6
 193 1400 194 1399 194 1395 c 6
 194 232 l 6
 194 104 214 64 264 64 c 4
 318 64 328 113 328 219 c 6
EndSplineSet
EndChar

StartChar: V
Encoding: 86 86 33
Width: 454
VWidth: 960
Flags: HMW
AnchorPoint: "top" 227 1400 basechar 0
AnchorPoint: "bottom" 228 0 basechar 0
LayerCount: 2
Fore
SplineSet
236 150 m 5
 334 1395 l 6
 335 1398 336 1400 340 1400 c 6
 430 1400 l 6
 434 1400 434 1398 433 1395 c 6
 301 5 l 6
 300 2 298 0 294 0 c 6
 161 0 l 6
 157 0 156 2 155 5 c 6
 13 1395 l 6
 12 1398 12 1400 16 1400 c 6
 126 1400 l 6
 130 1400 132 1399 133 1395 c 6
 236 150 l 5
EndSplineSet
EndChar

StartChar: W
Encoding: 87 87 34
Width: 714
VWidth: 960
Flags: HMW
AnchorPoint: "top" 372 1400 basechar 0
AnchorPoint: "bottom" 372 0 basechar 0
LayerCount: 2
Fore
SplineSet
230 180 m 5
 327 1395 l 6
 328 1398 329 1400 333 1400 c 6
 424 1400 l 6
 428 1400 429 1398 430 1395 c 6
 520 171 l 5
 615 1395 l 6
 616 1398 618 1400 622 1400 c 6
 705 1400 l 6
 709 1400 709 1398 708 1395 c 6
 583 5 l 6
 582 1 580 0 576 0 c 6
 444 0 l 6
 441 0 438 1 437 5 c 6
 364 1036 l 5
 283 5 l 6
 282 1 280 0 276 0 c 6
 146 0 l 6
 142 0 140 1 139 5 c 6
 18 1395 l 6
 17 1398 18 1400 22 1400 c 6
 128 1400 l 6
 132 1400 134 1398 135 1395 c 6
 230 180 l 5
EndSplineSet
EndChar

StartChar: X
Encoding: 88 88 35
Width: 462
VWidth: 960
Flags: HMW
AnchorPoint: "top" 237 1400 basechar 0
AnchorPoint: "bottom" 238 0 basechar 0
LayerCount: 2
Fore
SplineSet
316 1400 m 6
 422 1400 l 6
 426 1400 426 1399 423 1395 c 6
 294 715 l 5
 440 5 l 6
 443 1 442 0 438 0 c 6
 316 0 l 6
 312 0 310 1 308 5 c 6
 230 602 l 5
 139 5 l 6
 136 1 135 0 131 0 c 6
 24 0 l 6
 20 0 19 1 22 5 c 6
 176 693 l 5
 38 1395 l 6
 35 1399 35 1400 39 1400 c 6
 160 1400 l 6
 164 1400 167 1399 169 1395 c 6
 238 802 l 5
 308 1395 l 6
 311 1399 312 1400 316 1400 c 6
EndSplineSet
EndChar

StartChar: Y
Encoding: 89 89 36
Width: 465
VWidth: 960
Flags: HMW
AnchorPoint: "top" 232 1400 basechar 0
AnchorPoint: "bottom" 232 0 basechar 0
LayerCount: 2
Fore
SplineSet
352 1400 m 6
 444 1400 l 6
 448 1400 448 1399 446 1395 c 6
 290 625 l 5
 290 5 l 6
 290 1 288 0 284 0 c 6
 181 0 l 6
 177 0 176 1 176 5 c 6
 176 625 l 5
 20 1395 l 6
 18 1399 18 1400 22 1400 c 6
 138 1400 l 6
 142 1400 144 1399 146 1395 c 6
 245 717 l 5
 344 1395 l 6
 346 1399 348 1400 352 1400 c 6
EndSplineSet
EndChar

StartChar: Z
Encoding: 90 90 37
Width: 403
VWidth: 960
Flags: HMW
AnchorPoint: "top" 217 1400 basechar 0
AnchorPoint: "bottom" 218 0 basechar 0
LayerCount: 2
Fore
SplineSet
-15 5 m 6
 258 1312 l 5
 48 1312 l 6
 44 1312 43 1314 43 1318 c 6
 43 1395 l 6
 43 1399 44 1400 48 1400 c 6
 386 1400 l 6
 390 1400 390 1399 387 1395 c 6
 116 88 l 5
 367 88 l 6
 371 88 372 86 372 82 c 6
 372 5 l 6
 372 1 371 0 367 0 c 6
 -13 0 l 6
 -17 0 -18 1 -15 5 c 6
EndSplineSet
EndChar

StartChar: a
Encoding: 97 97 38
Width: 378
VWidth: 960
Flags: HMW
AnchorPoint: "ogonek" 320 0 basechar 0
AnchorPoint: "top" 207 1050 basechar 0
AnchorPoint: "bottom" 203 0 basechar 0
LayerCount: 2
Back
SplineSet
-14.919921875 270 m 4
 -14.919921875 176.396484375 7.26171875 95 85.080078125 95 c 260
 169.080078125 95 203.080078125 222 203.080078125 398 c 261
 263.080078125 328 l 261
 263.080078125 125 212.080078125 -35 31.080078125 -35 c 260
 -118.18359375 -35 -204.919921875 45.109375 -204.919921875 260 c 4
 -204.919921875 431.0078125 -138.416015625 539.873046875 84.080078125 615 c 260
 166.139648438 642.708007812 203.080078125 665 203.080078125 748 c 261
 243.080078125 648 l 261
 243.080078125 585 170.71875 544.529296875 111.080078125 500 c 260
 26.501953125 436.849609375 -14.919921875 380.081054688 -14.919921875 270 c 4
203.080078125 208 m 262
 203.080078125 788 l 262
 203.080078125 888 199.080078125 955 124.080078125 955 c 260
 25.333984375 955 38.4033203125 858.200195312 33.2158203125 722 c 4
 32.9873046875 715.998046875 29.943359375 713 23.080078125 713 c 6
 -126.919921875 713 l 6
 -133.986328125 713 -136.163085938 715.930664062 -136.06640625 722 c 4
 -132.390625 954.799804688 -92.5380859375 1085 133.080078125 1085 c 260
 343.080078125 1085 383.080078125 971 383.080078125 733 c 262
 383.080078125 208 l 262
 383.080078125 113.612304688 404.552734375 48.6728515625 440.498046875 7 c 4
 444.759765625 2.05859375 443.690429688 0 437.080078125 0 c 6
 273.080078125 0 l 6
 265.763671875 0 260.826171875 2.0537109375 257.416992188 6 c 4
 220.477539062 48.76171875 203.080078125 112.8359375 203.080078125 208 c 262
EndSplineSet
Fore
SplineSet
131 248 m 4
 131 112 150 79 178 79 c 4
 208 79 232 165 232 265 c 5
 254 225 l 5
 254 97 219 -18 136 -18 c 4
 62 -18 18 41 18 242 c 4
 18 460 75 525 162 610 c 4
 195 641 232 699 232 743 c 5
 252 663 l 5
 251 632 210 568 191 539 c 4
 150 479 131 417 131 248 c 4
232 105 m 6
 232 862 l 6
 232 940 231 991 196 991 c 4
 160 991 148 919 145 715 c 4
 145 712 143 710 140 710 c 6
 49 710 l 6
 45 710 44 712 44 715 c 4
 47 970 90 1067 210 1067 c 4
 314 1067 341 988 341 831 c 6
 341 104 l 6
 341 57 352 25 370 4 c 4
 372 2 371 0 368 0 c 6
 267 0 l 6
 263 0 261 1 259 3 c 4
 241 24 232 57 232 105 c 6
EndSplineSet
EndChar

StartChar: b
Encoding: 98 98 39
Width: 441
VWidth: 960
Flags: HMW
LayerCount: 2
Fore
SplineSet
56 1450 m 6
 160 1450 l 6
 164 1450 165 1449 165 1445 c 6
 165 97 l 5
 81 -12 l 6
 78 -16 76 -18 72 -18 c 6
 56 -18 l 6
 52 -18 51 -16 51 -12 c 6
 51 1445 l 6
 51 1449 52 1450 56 1450 c 6
139 845 m 5
 139 990 181 1067 267 1067 c 4
 357 1067 399 997 399 827 c 6
 399 224 l 6
 399 64 348 -18 252 -18 c 4
 160 -18 114 54 114 182 c 5
 165 195 l 5
 165 94 182 64 223 64 c 4
 268 64 286 112 286 211 c 6
 286 838 l 6
 286 937 268 984 223 984 c 4
 173 984 165 945 165 846 c 5
 139 845 l 5
EndSplineSet
EndChar

StartChar: c
Encoding: 99 99 40
Width: 373
VWidth: 960
Flags: HMW
AnchorPoint: "bottom" 198 0 basechar 0
AnchorPoint: "top" 195 1050 basechar 0
LayerCount: 2
Back
SplineSet
383 380 m 4
 380 336 373.71875 295.522460938 372 256 c 4
 364 72 311 -35 108 -35 c 260
 -172 -35 -207 151 -207 448 c 262
 -207 603 l 262
 -207 900 -177 1085 103 1085 c 260
 309 1085 359 988 365 800 c 4
 366.29296875 759.499023438 371 718 373 671 c 4
 373 666 370 663 363 663 c 6
 223 663 l 6
 216 663 213 666 213 670 c 4
 210 718 202.750976562 757.491210938 199 795 c 4
 189 895 184 945 98 945 c 260
 -6 945 -17 833 -17 633 c 262
 -17 418 l 262
 -17 225 4 105 113 105 c 260
 197 105 208 161 215 255 c 4
 217.96484375 294.814453125 220 334 223 381 c 4
 223 385 226 388 233 388 c 6
 373 388 l 6
 380 388 383 385 383 380 c 4
EndSplineSet
Fore
SplineSet
349 390 m 4
 349 320 348 269 346 202 c 4
 342 54 301 -18 194 -18 c 4
 81 -18 38 50 38 224 c 6
 38 827 l 6
 38 984 73 1067 197 1067 c 4
 307 1067 341 994 343 851 c 4
 344 784 345 733 345 661 c 4
 345 659 345 657 341 657 c 6
 271 657 l 6
 267 657 265 658 265 660 c 4
 265 733 262 778 261 843 c 4
 260 942 244 982 204 982 c 4
 162 982 152 938 152 832 c 6
 152 218 l 6
 152 116 167 76 210 76 c 4
 249 76 265 113 268 209 c 4
 270 275 269 317 271 390 c 4
 271 392 272 394 276 394 c 6
 344 394 l 6
 348 394 349 392 349 390 c 4
EndSplineSet
EndChar

StartChar: d
Encoding: 100 100 41
Width: 441
VWidth: 960
Flags: HMW
LayerCount: 2
Fore
SplineSet
302 203 m 5
 302 58 259 -18 178 -18 c 4
 91 -18 42 54 42 224 c 6
 42 827 l 6
 42 997 91 1067 178 1067 c 4
 259 1067 302 991 302 846 c 5
 275 846 l 5
 275 945 272 984 218 984 c 4
 168 984 155 937 155 838 c 6
 155 211 l 6
 155 112 168 64 218 64 c 4
 272 64 275 105 275 204 c 5
 302 203 l 5
390 1445 m 6
 390 5 l 6
 390 1 388 0 384 0 c 6
 288 0 l 6
 284 0 283 1 283 5 c 6
 283 110 l 5
 275 126 l 5
 275 1445 l 6
 275 1449 277 1450 281 1450 c 6
 384 1450 l 6
 388 1450 390 1449 390 1445 c 6
EndSplineSet
EndChar

StartChar: e
Encoding: 101 101 42
Width: 407
VWidth: 960
Flags: HMW
AnchorPoint: "ogonek" 232 30 basechar 0
AnchorPoint: "bottom" 204 0 basechar 0
AnchorPoint: "top" 205 1050 basechar 0
LayerCount: 2
Back
SplineSet
537 414 m 4
 537 337.607421875 535.721679688 299.772460938 534.424804688 239 c 4
 530.571289062 58.42578125 426.794921875 -18 275 -18 c 260
 91 -18 7 69 7 274 c 262
 7 777 l 262
 7 977 87 1067 275 1067 c 260
 459 1067 533.336914062 979.307617188 537 767 c 260
 538.985351562 651.927734375 541 607 541 485 c 4
 541 483 541 481 537 481 c 6
 145 481 l 261
 145 565 l 261
 299 565 l 261
 297 906 299 927 275 927 c 260
 257 927 253 901 253 841 c 262
 253 209 l 262
 253 134 258 122 274 122 c 260
 293 122 301 185 302 414 c 4
 302.008789062 416 304 418 307 418 c 6
 533 418 l 6
 537 418 537 417.162109375 537 414 c 4
EndSplineSet
Fore
SplineSet
370 410 m 4
 368 334 364 273 362 210 c 4
 356 35 298 -18 200 -18 c 4
 60 -18 38 69 38 230 c 6
 38 821 l 6
 38 977 72 1067 208 1067 c 4
 340 1067 368 971 371 850 c 4
 374 717 375 635 375 495 c 4
 375 493 374 491 370 491 c 6
 109 491 l 5
 109 554 l 5
 264 554 l 5
 262 933 262 994 205 994 c 4
 160 994 151 940 151 841 c 6
 151 209 l 6
 151 103 160 57 204 57 c 4
 253 57 261 117 266 412 c 4
 266 414 268 415 272 415 c 6
 366 415 l 6
 370 415 370 413 370 410 c 4
EndSplineSet
EndChar

StartChar: f
Encoding: 102 102 43
Width: 273
VWidth: 960
Flags: HMW
LayerCount: 2
Fore
SplineSet
234 974 m 6
 48 974 l 6
 44 974 43 975 43 979 c 6
 43 1045 l 6
 43 1049 44 1050 48 1050 c 6
 234 1050 l 6
 238 1050 239 1049 239 1045 c 6
 239 979 l 6
 239 975 238 974 234 974 c 6
79 1334 m 6
 79 1440 103 1477 233 1461 c 4
 238 1460 239 1459 239 1455 c 6
 239 1391 l 6
 239 1388 237 1385 231 1387 c 4
 197 1395 191 1378 191 1318 c 6
 191 5 l 6
 191 1 189 0 185 0 c 6
 84 0 l 6
 80 0 79 1 79 5 c 6
 79 1334 l 6
EndSplineSet
EndChar

StartChar: g
Encoding: 103 103 44
Width: 376
VWidth: 960
Flags: HMW
AnchorPoint: "top" 135 1075 basechar 0
LayerCount: 2
Back
SplineSet
453.017578125 1255 m 4
 446.017578125 1119 353.017578125 1030 183.017578125 1030 c 261
 169.017578125 1045 l 261
 199.017578125 1045 227.017578125 1071 243.017578125 1256 c 4
 243.276367188 1258.98925781 245.017578125 1260 249.017578125 1260 c 6
 449.017578125 1260 l 6
 453.017578125 1260 453.223632812 1258.99511719 453.017578125 1255 c 4
237.017578125 170 m 262
 377.017578125 170 449.017578125 100 449.017578125 -88 c 260
 449.017578125 -286 358.017578125 -360 173.017578125 -360 c 262
 95.017578125 -360 l 262
 -49.982421875 -360 -126.982421875 -296 -126.982421875 -168 c 260
 -126.982421875 -70 -39.982421875 15 105.017578125 15 c 261
 170.017578125 15 l 261
 130.017578125 5 103.017578125 -44 103.017578125 -132 c 260
 103.017578125 -226 120.017578125 -260 160.017578125 -260 c 262
 167.017578125 -260 l 262
 197.017578125 -260 219.017578125 -206 219.017578125 -118 c 260
 219.017578125 -34 203.017578125 0 163.017578125 0 c 262
 50.017578125 0 l 262
 -49.982421875 0 -115.982421875 68 -115.982421875 162 c 260
 -115.982421875 266 -18.982421875 333 101.017578125 333 c 261
 91.017578125 283 l 261
 61.017578125 283 39.017578125 262 39.017578125 228 c 260
 39.017578125 182 80.017578125 170 145.017578125 170 c 262
 237.017578125 170 l 262
203.017578125 494 m 262
 203.017578125 811 l 262
 203.017578125 912 200.017578125 943 179.017578125 943 c 260
 160.017578125 943 153.017578125 913 153.017578125 811 c 262
 153.017578125 494 l 262
 153.017578125 396 160.017578125 363 179.017578125 363 c 260
 200.017578125 363 203.017578125 392 203.017578125 494 c 262
423.017578125 574 m 262
 423.017578125 399 363.017578125 237 179.017578125 237 c 260
 -4.982421875 237 -66.982421875 399 -66.982421875 574 c 262
 -66.982421875 781 l 262
 -66.982421875 956 -4.982421875 1067 179.017578125 1067 c 260
 363.017578125 1067 423.017578125 956 423.017578125 781 c 262
 423.017578125 574 l 262
EndSplineSet
Fore
SplineSet
386 1255 m 0
 379 1058 275 1017 214 1017 c 1
 198 1036 l 1
 246 1036 275 1075 277 1256 c 0
 277 1259 280 1260 283 1260 c 2
 382 1260 l 2
 386 1260 386 1259 386 1255 c 0
250 82 m 2
 337 82 382 39 382 -114 c 0
 382 -308 304 -360 211 -360 c 2
 168 -360 l 2
 71 -360 3 -304 3 -150 c 0
 3 -17 73 41 161 41 c 1
 182 24 l 1
 138 23 102 -32 102 -120 c 0
 102 -235 132 -282 194 -282 c 2
 198 -282 l 2
 254 -282 283 -241 283 -118 c 0
 283 -22 268 0 228 0 c 2
 193 0 l 2
 115 0 58 43 58 132 c 0
 58 210 111 285 209 285 c 1
 199 256 l 1
 169 256 147 217 147 162 c 0
 147 103 175 82 223 82 c 2
 250 82 l 2
228 446 m 2
 228 860 l 2
 228 937 227 996 193 996 c 0
 152 996 149 934 149 860 c 2
 149 446 l 2
 149 372 152 310 193 310 c 0
 227 310 228 368 228 446 c 2
335 469 m 2
 335 342 306 237 189 237 c 0
 71 237 42 342 42 469 c 2
 42 842 l 2
 42 969 71 1067 189 1067 c 0
 306 1067 335 969 335 842 c 2
 335 469 l 2
EndSplineSet
EndChar

StartChar: h
Encoding: 104 104 45
Width: 426
VWidth: 960
Flags: HMW
AnchorPoint: "bottom" 205 0 basechar 0
AnchorPoint: "top" 311 1050 basechar 0
LayerCount: 2
Fore
SplineSet
66 1450 m 2
 169 1450 l 2
 173 1450 175 1449 175 1445 c 2
 175 5 l 2
 175 1 172 0 169 0 c 2
 66 0 l 2
 62 0 60 1 60 5 c 2
 60 1445 l 2
 60 1449 62 1450 66 1450 c 2
158 877 m 1
 158 988 179 1067 264 1067 c 0
 342 1067 372 1008 372 901 c 2
 372 5 l 2
 372 1 372 0 368 0 c 2
 263 0 l 2
 259 0 259 1 259 5 c 2
 259 898 l 2
 259 957 251 990 219 990 c 0
 183 990 175 933 175 828 c 1
 158 877 l 1
EndSplineSet
EndChar

StartChar: i
Encoding: 105 105 46
Width: 233
VWidth: 960
Flags: HMW
AnchorPoint: "bottom" 113 0 basechar 0
AnchorPoint: "ogonek" 113 0 basechar 0
LayerCount: 2
Back
SplineSet
226 1480 m 6
 226 1165 l 6
 226 1161 225 1160 221 1160 c 6
 76 1160 l 6
 72 1160 71 1161 71 1165 c 6
 71 1480 l 6
 71 1484 72 1485 76 1485 c 6
 221 1485 l 6
 225 1485 226 1484 226 1480 c 6
271 1045 m 6
 271 5 l 6
 271 1 270 0 266 0 c 6
 31 0 l 6
 27 0 26 1 26 5 c 6
 26 1045 l 6
 26 1049 27 1050 31 1050 c 6
 266 1050 l 6
 270 1050 271 1049 271 1045 c 6
EndSplineSet
Fore
SplineSet
159 1436 m 6
 159 1209 l 6
 159 1205 158 1204 154 1204 c 6
 79 1204 l 6
 75 1204 74 1205 74 1209 c 6
 74 1436 l 6
 74 1440 75 1441 79 1441 c 6
 154 1441 l 6
 158 1441 159 1440 159 1436 c 6
174 1045 m 6
 174 5 l 6
 174 1 173 0 169 0 c 6
 65 0 l 6
 61 0 60 1 60 5 c 6
 60 1045 l 6
 60 1049 61 1050 65 1050 c 6
 169 1050 l 6
 173 1050 174 1049 174 1045 c 6
EndSplineSet
EndChar

StartChar: j
Encoding: 106 106 47
Width: 233
VWidth: 960
Flags: HMW
LayerCount: 2
Back
SplineSet
150 1430 m 6
 150 1215 l 6
 150 1211 149 1210 145 1210 c 6
 80 1210 l 6
 76 1210 75 1211 75 1215 c 6
 75 1430 l 6
 75 1434 76 1435 80 1435 c 6
 145 1435 l 6
 149 1435 150 1434 150 1430 c 6
EndSplineSet
Fore
SplineSet
159 1436 m 6
 159 1209 l 6
 159 1205 158 1204 154 1204 c 6
 79 1204 l 6
 75 1204 74 1205 74 1209 c 6
 74 1436 l 6
 74 1440 75 1441 79 1441 c 6
 154 1441 l 6
 158 1441 159 1440 159 1436 c 6
174 -65 m 6
 174 -178 158 -221 -1 -198 c 4
 -5 -197 -6 -196 -6 -192 c 6
 -6 -128 l 6
 -6 -125 -5 -123 -1 -124 c 4
 53 -133 60 -116 60 -52 c 6
 60 1045 l 6
 60 1049 61 1050 65 1050 c 6
 169 1050 l 6
 173 1050 174 1049 174 1045 c 6
 174 -65 l 6
EndSplineSet
EndChar

StartChar: k
Encoding: 107 107 48
Width: 416
VWidth: 960
Flags: HMW
LayerCount: 2
Fore
SplineSet
65 1450 m 2
 169 1450 l 2
 173 1450 174 1449 174 1445 c 2
 174 5 l 2
 174 1 172 0 169 0 c 2
 65 0 l 2
 61 0 60 1 60 5 c 2
 60 1445 l 2
 60 1449 61 1450 65 1450 c 2
132 417 m 1
 297 1045 l 2
 298 1049 301 1050 305 1050 c 2
 403 1050 l 2
 407 1050 409 1050 407 1045 c 2
 163 352 l 1
 132 417 l 1
210 595 m 1
 268 718 l 1
 423 5 l 2
 424 1 424 0 421 0 c 2
 308 0 l 2
 303 0 301 1 300 5 c 2
 210 595 l 1
EndSplineSet
EndChar

StartChar: l
Encoding: 108 108 49
Width: 233
VWidth: 960
Flags: HMW
LayerCount: 2
Fore
SplineSet
65 1450 m 6
 169 1450 l 6
 173 1450 174 1449 174 1445 c 6
 174 5 l 6
 174 1 172 0 169 0 c 6
 65 0 l 6
 61 0 60 1 60 5 c 6
 60 1445 l 6
 60 1449 61 1450 65 1450 c 6
EndSplineSet
EndChar

StartChar: m
Encoding: 109 109 50
Width: 564
VWidth: 960
Flags: HMW
LayerCount: 2
Fore
SplineSet
312 877 m 5
 312 988 336 1067 422 1067 c 4
 500 1067 518 1008 518 901 c 6
 518 5 l 6
 518 1 516 0 512 0 c 6
 410 0 l 6
 406 0 405 1 405 5 c 6
 405 901 l 6
 405 957 397 990 374 990 c 4
 351 990 338 936 338 831 c 5
 312 877 l 5
56 1050 m 6
 154 1050 l 6
 158 1050 159 1049 159 1045 c 6
 159 941 l 5
 164 927 l 5
 164 5 l 6
 164 1 163 0 159 0 c 6
 56 0 l 6
 52 0 51 1 51 5 c 6
 51 1045 l 6
 51 1049 52 1050 56 1050 c 6
148 877 m 5
 148 988 165 1067 245 1067 c 4
 334 1067 338 1008 338 901 c 6
 338 5 l 6
 338 1 337 0 333 0 c 6
 236 0 l 6
 232 0 231 1 231 5 c 6
 231 901 l 6
 231 957 221 990 199 990 c 4
 176 990 164 936 164 831 c 5
 148 877 l 5
EndSplineSet
EndChar

StartChar: n
Encoding: 110 110 51
Width: 409
VWidth: 960
Flags: HMW
AnchorPoint: "bottom" 205 0 basechar 0
AnchorPoint: "top" 205 1050 basechar 0
LayerCount: 2
Fore
SplineSet
57 1050 m 2
 156 1050 l 2
 160 1050 160 1049 160 1045 c 2
 160 934 l 1
 166 921 l 1
 166 5 l 2
 166 1 164 0 160 0 c 2
 57 0 l 2
 53 0 51 1 51 5 c 2
 51 1045 l 2
 51 1049 53 1050 57 1050 c 2
149 877 m 1
 149 988 170 1067 255 1067 c 0
 333 1067 363 1008 363 901 c 2
 363 5 l 2
 363 1 363 0 359 0 c 2
 254 0 l 2
 250 0 250 1 250 5 c 2
 250 898 l 2
 250 957 242 990 210 990 c 0
 174 990 166 933 166 828 c 1
 149 877 l 1
EndSplineSet
EndChar

StartChar: o
Encoding: 111 111 52
Width: 418
VWidth: 960
Flags: HMW
AnchorPoint: "top" 207 1050 basechar 0
AnchorPoint: "bottom" 207 0 basechar 0
LayerCount: 2
Fore
SplineSet
38 230 m 6
 38 821 l 6
 38 972 73 1067 209 1067 c 4
 345 1067 381 972 381 821 c 6
 381 230 l 6
 381 79 345 -18 209 -18 c 4
 73 -18 38 79 38 230 c 6
153 209 m 6
 153 118 159 57 209 57 c 4
 259 57 264 118 264 209 c 6
 264 841 l 6
 264 932 259 994 209 994 c 4
 159 994 153 932 153 841 c 6
 153 209 l 6
EndSplineSet
EndChar

StartChar: p
Encoding: 112 112 53
Width: 441
VWidth: 960
Flags: HMW
LayerCount: 2
Fore
SplineSet
139 846 m 5
 139 991 180 1068 261 1068 c 4
 348 1068 399 996 399 826 c 6
 399 223 l 6
 399 53 348 -17 261 -17 c 4
 180 -17 139 60 139 205 c 5
 166 205 l 5
 166 106 170 65 224 65 c 4
 274 65 286 113 286 212 c 6
 286 839 l 6
 286 938 274 985 224 985 c 4
 170 985 166 945 166 846 c 5
 139 846 l 5
51 -355 m 6
 51 1045 l 6
 51 1049 53 1050 57 1050 c 6
 153 1050 l 6
 157 1050 158 1049 158 1045 c 6
 158 938 l 5
 166 924 l 5
 166 -355 l 6
 166 -359 164 -360 160 -360 c 6
 57 -360 l 6
 53 -360 51 -359 51 -355 c 6
EndSplineSet
EndChar

StartChar: q
Encoding: 113 113 54
Width: 441
VWidth: 960
Flags: HMW
LayerCount: 2
Fore
SplineSet
385 -360 m 6
 281 -360 l 6
 277 -360 276 -359 276 -355 c 6
 276 944 l 5
 360 1053 l 6
 363 1057 365 1059 369 1059 c 6
 385 1059 l 6
 389 1059 390 1057 390 1053 c 6
 390 -355 l 6
 390 -359 389 -360 385 -360 c 6
302 195 m 5
 302 50 260 -26 174 -26 c 4
 84 -26 42 44 42 214 c 6
 42 817 l 6
 42 977 94 1059 190 1059 c 4
 282 1059 327 987 327 859 c 5
 276 846 l 5
 276 947 260 977 219 977 c 4
 174 977 156 929 156 830 c 6
 156 203 l 6
 156 104 174 57 219 57 c 4
 269 57 276 97 276 196 c 5
 302 195 l 5
EndSplineSet
EndChar

StartChar: r
Encoding: 114 114 55
Width: 297
VWidth: 960
Flags: HMW
AnchorPoint: "top" 203 1050 basechar 0
AnchorPoint: "bottom" 127 0 basechar 0
LayerCount: 2
Fore
SplineSet
65 1050 m 6
 160 1050 l 6
 164 1050 165 1049 165 1045 c 6
 165 769 l 5
 174 764 l 5
 174 5 l 6
 174 1 173 0 169 0 c 6
 65 0 l 6
 61 0 60 1 60 5 c 6
 60 1045 l 6
 60 1049 61 1050 65 1050 c 6
152 728 m 5
 152 896 163 1070 271 1063 c 4
 277 1063 279 1061 279 1057 c 6
 279 948 l 6
 279 945 277 943 270 943 c 4
 194 943 174 836 174 681 c 5
 152 728 l 5
EndSplineSet
EndChar

StartChar: s
Encoding: 115 115 56
Width: 368
VWidth: 960
Flags: HMW
AnchorPoint: "top" 180 1050 basechar 0
AnchorPoint: "bottom" 194 0 basechar 0
LayerCount: 2
Back
SplineSet
34 399 m 6
 100 399 l 6
 104 399 106 398 106 394 c 4
 106 340 105.94921875 301.075195312 107 224 c 4
 108.776367188 93.7236328125 123 57 169 57 c 260
 207 57 229 115 229 214 c 260
 229 272 225.820190982 297.564830935 200 356 c 6
 105 571 l 6
 73.3414464614 642.648305377 44 736 44 848 c 260
 44 1029 102 1067 180 1067 c 260
 262 1067 302.569335938 1001.07421875 304 847 c 4
 304.520507812 790.977539062 306 742 306 666 c 4
 306 662 306 661 302 661 c 6
 237 661 l 6
 233 661 231 663 231 667 c 4
 231 731 229.291015625 768.974609375 229 827 c 4
 228.37890625 951.014648438 219 995 179 995 c 260
 150 995 129 963 129 843 c 260
 129 774 148.105104263 687.814194966 172 636 c 6
 267 430 l 6
 287.80347481 384.889307254 315 320 315 228 c 260
 315 72 277 -18 180 -18 c 260
 88 -18 37.5068359375 36.3828125 33 199 c 4
 30.552734375 287.315429688 30 347 30 395 c 4
 30 399 30 399 34 399 c 6
EndSplineSet
Fore
SplineSet
32 399 m 6
 110 399 l 6
 114 399 116 398 116 394 c 4
 116 340 116 301 117 228 c 4
 119 106 131 70 174 70 c 4
 209 70 230 123 230 219 c 4
 230 433 42 548 42 842 c 4
 42 1024 104 1067 190 1067 c 4
 279 1067 323 998 325 846 c 4
 326 789 327 740 327 666 c 4
 327 662 327 661 323 661 c 6
 246 661 l 6
 242 661 240 663 240 667 c 4
 240 728 239 766 239 827 c 4
 238 942 229 982 192 982 c 4
 165 982 145 952 145 840 c 4
 145 586 337 472 337 228 c 4
 337 72 296 -18 190 -18 c 4
 86 -18 35 39 30 200 c 4
 28 283 28 343 28 395 c 4
 28 399 28 399 32 399 c 6
EndSplineSet
EndChar

StartChar: t
Encoding: 116 116 57
Width: 287
VWidth: 960
Flags: HMW
AnchorPoint: "bottom" 167 0 basechar 0
LayerCount: 2
Fore
SplineSet
245 974 m 6
 47 974 l 6
 43 974 42 975 42 979 c 6
 42 1045 l 6
 42 1049 43 1050 47 1050 c 6
 245 1050 l 6
 249 1050 250 1049 250 1045 c 6
 250 979 l 6
 250 975 249 974 245 974 c 6
252 72 m 6
 252 5 l 6
 252 1 252 0 248 -1 c 4
 113 -21 83 22 83 132 c 6
 83 1235 l 6
 83 1239 84 1240 88 1240 c 6
 189 1240 l 6
 193 1240 194 1239 194 1235 c 6
 194 145 l 6
 194 82 208 67 248 76 c 4
 251 77 252 75 252 72 c 6
EndSplineSet
EndChar

StartChar: u
Encoding: 117 117 58
Width: 409
VWidth: 960
Flags: HMW
AnchorPoint: "ogonek" 294 0 basechar 0
AnchorPoint: "bottom" 201 0 basechar 0
AnchorPoint: "top" 201 1050 basechar 0
LayerCount: 2
Fore
SplineSet
354 0 m 6
 255 0 l 6
 251 0 250 1 250 5 c 6
 250 116 l 5
 245 129 l 5
 245 1045 l 6
 245 1049 246 1050 250 1050 c 6
 354 1050 l 6
 358 1050 358 1049 358 1045 c 6
 358 5 l 6
 358 1 358 0 354 0 c 6
261 174 m 5
 261 63 235 -18 150 -18 c 4
 72 -18 46 43 46 150 c 6
 46 1045 l 6
 46 1049 48 1050 52 1050 c 6
 155 1050 l 6
 159 1050 160 1049 160 1045 c 6
 160 153 l 6
 160 94 167 60 199 60 c 4
 235 60 245 118 245 223 c 5
 261 174 l 5
EndSplineSet
EndChar

StartChar: v
Encoding: 118 118 59
Width: 383
VWidth: 960
Flags: HMW
LayerCount: 2
Fore
SplineSet
202 240 m 5
 274 1045 l 6
 275 1049 277 1050 281 1050 c 6
 366 1050 l 6
 370 1050 371 1049 369 1045 c 6
 253 5 l 6
 251 1 250 0 246 0 c 6
 133 0 l 6
 129 0 128 1 126 5 c 6
 12 1045 l 6
 11 1049 11 1050 15 1050 c 6
 121 1050 l 6
 125 1050 127 1049 128 1045 c 6
 202 240 l 5
EndSplineSet
EndChar

StartChar: w
Encoding: 119 119 60
Width: 582
VWidth: 960
Flags: HMW
LayerCount: 2
Fore
SplineSet
420 262 m 5
 489 1045 l 6
 490 1049 492 1050 495 1050 c 6
 565 1050 l 6
 569 1050 570 1048 569 1045 c 6
 466 5 l 6
 465 2 464 0 460 0 c 6
 361 0 l 6
 358 0 355 1 354 5 c 6
 292 752 l 5
 229 5 l 6
 228 1 227 0 223 0 c 6
 127 0 l 6
 124 0 122 1 121 5 c 6
 18 1045 l 6
 17 1049 17 1050 21 1050 c 6
 124 1050 l 6
 127 1050 129 1049 130 1045 c 6
 188 263 l 5
 252 1045 l 6
 253 1049 254 1050 258 1050 c 6
 343 1050 l 6
 346 1050 348 1049 349 1045 c 6
 420 262 l 5
EndSplineSet
EndChar

StartChar: x
Encoding: 120 120 61
Width: 336
VWidth: 960
Flags: HMW
LayerCount: 2
Fore
SplineSet
106 0 m 6
 1 0 l 6
 -3 0 -3 1 -0 5 c 6
 111 534 l 5
 9 1045 l 6
 6 1049 6 1050 10 1050 c 6
 130 1050 l 6
 134 1050 136 1049 138 1045 c 6
 176 622 l 5
 212 1045 l 6
 214 1049 216 1050 220 1050 c 6
 326 1050 l 6
 330 1050 330 1049 327 1045 c 6
 224 542 l 5
 336 5 l 6
 339 1 338 0 334 0 c 6
 217 0 l 6
 213 0 211 1 209 5 c 6
 161 454 l 5
 116 5 l 6
 114 1 110 0 106 0 c 6
EndSplineSet
EndChar

StartChar: y
Encoding: 121 121 62
Width: 393
VWidth: 960
Flags: HMW
AnchorPoint: "top" 223 1050 basechar 0
LayerCount: 2
Fore
SplineSet
216 275 m 5
 289 1045 l 6
 290 1048 291 1050 295 1050 c 6
 375 1050 l 6
 379 1050 379 1048 378 1045 c 6
 249 -65 l 6
 232 -213 123 -227 10 -198 c 4
 4 -197 2 -196 2 -192 c 6
 2 -110 l 6
 2 -107 4 -106 8 -107 c 4
 81 -132 152 -136 169 -48 c 5
 38 1045 l 6
 37 1048 36 1050 40 1050 c 6
 146 1050 l 6
 150 1050 151 1048 152 1045 c 6
 216 275 l 5
EndSplineSet
EndChar

StartChar: z
Encoding: 122 122 63
Width: 351
VWidth: 960
Flags: HMW
AnchorPoint: "top" 194 1050 basechar 0
LayerCount: 2
Fore
SplineSet
9 5 m 6
 212 962 l 5
 45 962 l 6
 41 962 40 964 40 968 c 6
 40 1045 l 6
 40 1049 41 1050 45 1050 c 6
 340 1050 l 6
 344 1050 345 1049 342 1045 c 6
 142 88 l 5
 328 88 l 6
 332 88 333 86 333 82 c 6
 333 5 l 6
 333 2 332 0 328 0 c 6
 10 0 l 6
 6 0 6 1 9 5 c 6
EndSplineSet
EndChar

StartChar: comma
Encoding: 44 44 65
Width: 291
VWidth: 1920
Flags: HMW
LayerCount: 2
Back
SplineSet
180 0 m 6
 95 0 l 6
 88 0 85 3 85 10 c 6
 85 200 l 6
 85 207 88 210 95 210 c 6
 180 210 l 6
 187 210 190 207 190 200 c 6
 190 10 l 6
 190 3 187 0 180 0 c 6
EndSplineSet
Fore
SplineSet
80 -222 m 2
 71 -222 l 2
 64 -222 60 -220 63 -212 c 2
 130 0 l 1
 94 0 l 2
 85 0 84 1 84 10 c 2
 84 219 l 2
 84 226 87 229 94 229 c 2
 197 229 l 2
 204 229 207 226 207 219 c 2
 207 17 l 2
 207 10 207 8 203 0 c 2
 96 -212 l 2
 92 -221 88 -222 80 -222 c 2
EndSplineSet
EndChar

StartChar: exclam
Encoding: 33 33 67
Width: 290
VWidth: 1920
Flags: HMW
LayerCount: 2
Fore
SplineSet
197 0 m 2
 94 0 l 2
 87 0 84 3 84 10 c 2
 84 219 l 2
 84 226 87 229 94 229 c 2
 197 229 l 2
 204 229 207 226 207 219 c 2
 207 10 l 2
 207 3 204 0 197 0 c 2
80 950 m 2
 80 1440 l 2
 80 1447 83 1450 90 1450 c 2
 201 1450 l 2
 208 1450 211 1447 211 1440 c 2
 211 950 l 2
 211 943 211 937 210 930 c 2
 173 449 l 2
 172 442 169 439 162 439 c 2
 129 439 l 2
 122 439 119 442 118 449 c 2
 81 930 l 2
 80 937 80 943 80 950 c 2
EndSplineSet
EndChar

StartChar: quotesingle
Encoding: 39 39 70
Width: 285
VWidth: 1920
Flags: HMW
LayerCount: 2
Fore
SplineSet
153 918 m 2
 131 918 l 2
 124 918 120 921 119 928 c 2
 98 1204 l 2
 97 1211 96 1217 96 1224 c 2
 96 1410 l 2
 96 1417 99 1420 106 1420 c 2
 179 1420 l 2
 186 1420 189 1417 189 1410 c 2
 189 1224 l 2
 189 1217 188 1211 187 1204 c 2
 165 928 l 2
 164 921 160 918 153 918 c 2
EndSplineSet
EndChar

StartChar: question
Encoding: 63 63 71
Width: 421
VWidth: 1920
Flags: HMW
LayerCount: 2
Back
SplineSet
283 0 m 6
 93 0 l 6
 86 0 83 3 83 10 c 6
 83 200 l 6
 83 207 86 210 93 210 c 6
 283 210 l 6
 290 210 293 207 293 200 c 6
 293 10 l 6
 293 3 290 0 283 0 c 6
228 400 m 6
 138 400 l 6
 130.912109375 400 127.546875 402.940429688 126.740234375 409 c 4
 83.8857421875 730.931640625 313 748.14453125 313 1023 c 262
 313 1068 l 262
 313 1188 304 1285 207 1285 c 260
 107 1285 103 1184.77148438 103 1052 c 262
 103 962 l 6
 103 955 100 952 93 952 c 6
 -67 952 l 6
 -74 952 -77 955 -77 962 c 6
 -77 1052 l 262
 -77 1276 -30 1435 217 1435 c 260
 434 1435 513 1293 513 1073 c 262
 513 1048 l 262
 513 734.727539062 297.930664062 713.434570312 239.556640625 408 c 4
 238.5703125 402.8359375 234.930664062 400 228 400 c 6
EndSplineSet
Fore
SplineSet
259 0 m 2
 156 0 l 2
 149 0 146 3 146 10 c 2
 146 219 l 2
 146 226 149 229 156 229 c 2
 259 229 l 2
 266 229 269 226 269 219 c 2
 269 10 l 2
 269 3 266 0 259 0 c 2
221 404 m 2
 164 404 l 2
 160 404 158 405 158 408 c 0
 137 580 253 607 253 969 c 2
 253 1226 l 2
 253 1290 247 1378 203 1378 c 0
 157 1378 154 1288 154 1218 c 2
 154 957 l 2
 154 953 154 952 150 952 c 2
 52 952 l 2
 48 952 46 953 46 957 c 2
 46 1222 l 2
 46 1338 77 1467 210 1467 c 0
 329 1467 376 1347 376 1233 c 2
 376 986 l 2
 376 682 258 614 227 408 c 0
 227 405 224 404 221 404 c 2
EndSplineSet
EndChar

StartChar: parenleft
Encoding: 40 40 72
Width: 299
VWidth: 2048
Flags: HMW
LayerCount: 2
Back
SplineSet
70 838 m 262
 70 1243 209.35546875 1561.42578125 489.315429688 1618 c 4
 497.134765625 1619.58007812 500 1617.13964844 500 1610 c 6
 500 1540 l 6
 500 1533.21679688 497.642578125 1529.04882812 490.721679688 1526 c 4
 352.015625 1464.88964844 245 1259 245 858 c 262
 245 392 l 262
 245 -9 352.015664501 -214.890073866 490.721846214 -276.000001511 c 4
 497.642555457 -279.049065626 500 -283.216373582 500 -290 c 6
 500 -360 l 6
 500 -367.140018812 497.13437981 -369.57999665 489.315695958 -368.000002259 c 4
 209.355800504 -311.425894256 70 7 70 412 c 262
 70 838 l 262
EndSplineSet
Fore
SplineSet
32 1220 m 2
 32 1422 104 1582 253 1610 c 0
 257 1611 258 1610 258 1606 c 2
 258 1562 l 2
 258 1559 256 1557 253 1555 c 0
 187 1525 138 1427 138 1227 c 2
 138 19 l 2
 138 -181 187 -279 253 -309 c 0
 256 -311 258 -313 258 -316 c 2
 258 -360 l 2
 258 -364 257 -365 253 -364 c 0
 104 -336 32 -176 32 26 c 2
 32 1220 l 2
EndSplineSet
EndChar

StartChar: parenright
Encoding: 41 41 73
Width: 298
VWidth: 2048
Flags: HMW
LayerCount: 2
Fore
SplineSet
267 26 m 2
 267 -176 195 -336 46 -364 c 0
 42 -365 42 -364 42 -360 c 2
 42 -316 l 2
 42 -313 43 -311 46 -309 c 0
 112 -279 161 -181 161 19 c 2
 161 1227 l 2
 161 1427 112 1525 46 1555 c 0
 43 1557 42 1559 42 1562 c 2
 42 1606 l 2
 42 1610 42 1611 46 1610 c 0
 195 1582 267 1422 267 1220 c 2
 267 26 l 2
EndSplineSet
EndChar

StartChar: asterisk
Encoding: 42 42 74
Width: 518
VWidth: 2048
Flags: HMW
LayerCount: 2
Back
SplineSet
272.870117188 1020 m 261
 202.870117188 1020 l 261
 153.870117188 1370 l 6
 152.833007812 1376.66699219 152.817382812 1383.33300781 153.870117188 1390 c 6
 161.870117188 1440 l 6
 162.961914062 1446.82519531 165.870117188 1450 172.870117188 1450 c 6
 302.870117188 1450 l 6
 309.870117188 1450 312.778320312 1446.82519531 313.870117188 1440 c 6
 321.870117188 1390 l 6
 322.907226562 1383.33300781 322.922851562 1376.66699219 321.870117188 1370 c 6
 272.870117188 1020 l 261
EndSplineSet
Fore
SplineSet
265 1194 m 1
 253 1227 l 1
 412 1315 l 2
 415 1317 418 1318 422 1318 c 2
 454 1324 l 2
 458 1324 460 1324 461 1320 c 2
 487 1242 l 2
 488 1238 486 1236 483 1234 c 2
 454 1220 l 2
 451 1218 448 1217 444 1217 c 2
 265 1194 l 1
244 1201 m 1
 272 1221 l 1
 405 1098 l 2
 407 1096 409 1092 411 1089 c 2
 426 1060 l 2
 428 1057 428 1056 425 1054 c 2
 357 1004 l 2
 354 1002 352 1003 350 1005 c 2
 328 1029 l 2
 326 1031 324 1034 322 1037 c 2
 244 1201 l 1
245 1221 m 1
 273 1201 l 1
 196 1037 l 2
 194 1034 192 1031 190 1029 c 2
 168 1005 l 2
 166 1003 163 1002 160 1004 c 2
 93 1054 l 2
 90 1056 89 1057 91 1060 c 2
 107 1089 l 2
 109 1092 111 1096 113 1098 c 2
 245 1221 l 1
264 1227 m 1
 253 1194 l 1
 74 1217 l 2
 70 1217 68 1218 65 1220 c 2
 34 1234 l 2
 31 1236 30 1238 31 1242 c 2
 57 1320 l 2
 58 1324 59 1324 63 1324 c 2
 96 1318 l 2
 100 1318 102 1317 105 1315 c 2
 264 1227 l 1
276 1211 m 1
 241 1211 l 1
 207 1389 l 2
 207 1393 207 1395 207 1399 c 2
 211 1432 l 2
 211 1436 213 1437 217 1437 c 2
 301 1437 l 2
 305 1437 306 1436 306 1432 c 2
 310 1399 l 2
 310 1395 310 1393 310 1389 c 2
 276 1211 l 1
EndSplineSet
EndChar

StartChar: at
Encoding: 64 64 75
Width: 790
VWidth: 1920
Flags: HMW
LayerCount: 2
Back
SplineSet
975 472 m 261
 975 182 878 40 721 40 c 260
 574 40 465 157 465 497 c 262
 465 528 l 262
 465 848 564 985 711 985 c 260
 878 985 985 843 985 553 c 261
 885 533 l 261
 885 743 858 845 761 845 c 260
 674 845 655 763 655 553 c 262
 655 472 l 262
 655 262 674 180 761 180 c 260
 858 180 885 282 885 492 c 261
 975 472 l 261
1132 -254.827148438 m 4
 1064.32128906 -314.50390625 944.916015625 -360 785 -360 c 260
 258 -360 100 13 100 493 c 262
 100 583 l 262
 100 1093 298 1435 785 1435 c 260
 1322 1435 1400 1024 1400 633 c 262
 1400 543 l 262
 1400 183 1317 40 1120 40 c 260
 963 40 885 185 885 405 c 262
 885 775 l 261
 1018 975 l 6
 1021.83984375 980.16015625 1028 985 1035 985 c 6
 1065 985 l 6
 1072 985 1075 982 1075 975 c 6
 1075 445 l 262
 1075 251.000976562 1083 180 1130 180 c 260
 1197 180 1220 303 1220 543 c 262
 1220 633 l 262
 1220 973 1162 1295 785 1295 c 260
 428 1295 290 1013 290 593 c 262
 290 483 l 262
 290 103 378 -220 785 -220 c 260
 897.123046875 -220 1008.64746094 -181.40234375 1081 -124.412109375 c 4
 1088.40429688 -118.580078125 1091.24121094 -119.775390625 1094 -127 c 6
 1136 -237 l 6
 1138.95410156 -244.737304688 1138.71386719 -248.907226562 1132 -254.827148438 c 4
EndSplineSet
Fore
SplineSet
492 199 m 1
 492 54 450 -17 365 -17 c 0
 287 -17 229 41 229 211 c 2
 229 838 l 2
 229 998 284 1067 364 1067 c 0
 454 1067 500 996 500 851 c 1
 446 841 l 1
 446 939 434 988 389 988 c 0
 347 988 340 949 340 851 c 2
 340 199 l 2
 340 101 347 62 389 62 c 0
 434 62 446 111 446 209 c 1
 492 199 l 1
572 -324 m 0
 538 -354 478 -377 398 -377 c 0
 127 -377 50 -191 50 49 c 2
 50 990 l 2
 50 1245 156 1417 403 1417 c 0
 675 1417 741 1230 741 1016 c 2
 741 235 l 2
 741 55 697 -17 588 -17 c 0
 498 -17 446 55 446 165 c 2
 446 961 l 1
 523 1061 l 2
 525 1064 528 1067 532 1067 c 2
 552 1067 l 2
 556 1067 558 1065 558 1061 c 2
 558 191 l 2
 558 94 566 59 600 59 c 0
 633 59 651 117 651 235 c 2
 651 1016 l 2
 651 1204 595 1347 403 1347 c 0
 222 1347 145 1206 145 996 c 2
 145 45 l 2
 145 -145 187 -307 398 -307 c 0
 454 -307 510 -287 546 -259 c 0
 550 -256 552 -257 553 -261 c 2
 574 -315 l 2
 575 -319 575 -321 572 -324 c 0
EndSplineSet
EndChar

StartChar: dollar
Encoding: 36 36 76
Width: 455
VWidth: 1920
Flags: HMW
LayerCount: 2
Fore
SplineSet
50 520 m 2
 139 520 l 2
 140 520 144 519 144 515 c 2
 144 266 l 2
 145 102 170 70 222 70 c 0
 267 70 312 118 312 331 c 0
 312 493 262 602 207 678 c 0
 129 784 63 890 63 1126 c 0
 63 1358 124 1420 232 1420 c 0
 335 1420 393 1364 393 1146 c 2
 393 914 l 2
 393 910 391 910 388 910 c 2
 302 910 l 2
 299 910 297 910 297 914 c 2
 297 1144 l 2
 297 1309 273 1338 233 1338 c 0
 195 1338 166 1297 166 1124 c 0
 166 955 220 832 273 766 c 0
 350 669 419 559 419 336 c 0
 419 62 346 -20 221 -20 c 0
 102 -20 45 48 45 245 c 2
 45 515 l 2
 45 519 49 520 50 520 c 2
216 1590 m 2
 246 1590 l 2
 250 1590 251 1588 251 1584 c 2
 251 -184 l 2
 251 -188 250 -190 246 -190 c 2
 216 -190 l 2
 212 -190 211 -188 211 -184 c 2
 211 1584 l 2
 211 1588 212 1590 216 1590 c 2
EndSplineSet
EndChar

StartChar: numbersign
Encoding: 35 35 77
Width: 573
VWidth: 1920
Flags: HMW
LayerCount: 2
Back
SplineSet
80 540 m 6
 1140 540 l 6
 1147 540 1150 537 1150 530 c 6
 1150 440 l 6
 1150 433 1148 430 1140 430 c 6
 80 430 l 6
 73 430 70 433 70 440 c 6
 70 530 l 6
 70 537 73 540 80 540 c 6
160 1050 m 6
 1220 1050 l 6
 1227 1050 1230 1047 1230 1040 c 6
 1230 950 l 6
 1230 943 1227 940 1220 940 c 6
 160 940 l 6
 153 940 150 943 150 950 c 6
 150 1040 l 6
 150 1047 153 1050 160 1050 c 6
950 1400 m 6
 1080 1400 l 6
 1090 1400 1090 1397 1088 1390 c 6
 762 10 l 6
 760 3 760 0 750 0 c 6
 620 0 l 6
 610 0 610 3 612 10 c 6
 938 1390 l 6
 940 1397 940 1400 950 1400 c 6
530 1400 m 6
 660 1400 l 6
 667 1400 670 1397 668 1390 c 6
 342 10 l 6
 340 3 337 0 330 0 c 6
 200 0 l 6
 193 0 190 3 192 10 c 6
 518 1390 l 6
 520 1397 523 1400 530 1400 c 6
EndSplineSet
Fore
SplineSet
36 514 m 2
 498 514 l 2
 502 514 502 513 502 509 c 2
 502 452 l 2
 502 448 502 447 498 447 c 2
 36 447 l 2
 32 447 31 448 31 452 c 2
 31 509 l 2
 31 513 32 514 36 514 c 2
76 1028 m 2
 538 1028 l 2
 542 1028 542 1027 542 1023 c 2
 542 966 l 2
 542 962 542 961 538 961 c 2
 76 961 l 2
 72 961 71 962 71 966 c 2
 71 1023 l 2
 71 1027 72 1028 76 1028 c 2
410 1400 m 2
 494 1400 l 2
 499 1400 499 1399 498 1395 c 2
 335 5 l 2
 334 1 334 0 329 0 c 2
 245 0 l 2
 240 0 240 1 241 5 c 2
 404 1395 l 2
 405 1399 405 1400 410 1400 c 2
234 1400 m 2
 318 1400 l 2
 322 1400 323 1399 322 1395 c 2
 159 5 l 2
 158 1 157 0 153 0 c 2
 69 0 l 2
 65 0 64 1 65 5 c 2
 228 1395 l 2
 229 1399 230 1400 234 1400 c 2
EndSplineSet
EndChar

StartChar: slash
Encoding: 47 47 78
Width: 441
VWidth: 2048
Flags: HMW
LayerCount: 2
Back
SplineSet
896 1390 m 6
 279 -90 l 6
 275.448242188 -98.51953125 272 -100 265 -100 c 6
 125 -100 l 6
 118 -100 115.448242188 -98.51953125 119 -90 c 6
 736 1390 l 6
 739.551757812 1398.51953125 744 1400 750 1400 c 6
 890 1400 l 6
 897 1400 899.551757812 1398.51953125 896 1390 c 6
EndSplineSet
Fore
SplineSet
423 1395 m 2
 114 -95 l 2
 112 -99 111 -100 107 -100 c 2
 26 -100 l 2
 22 -100 20 -99 21 -95 c 2
 330 1395 l 2
 331 1399 334 1400 337 1400 c 2
 418 1400 l 2
 422 1400 424 1399 423 1395 c 2
EndSplineSet
EndChar

StartChar: percent
Encoding: 37 37 79
Width: 752
VWidth: 2048
Flags: HMW
LayerCount: 2
Fore
SplineSet
47 981 m 2
 47 1226 l 2
 47 1352 95 1418 198 1418 c 0
 301 1418 356 1352 356 1226 c 2
 356 981 l 2
 356 855 301 788 198 788 c 0
 95 788 47 855 47 981 c 2
146 970 m 2
 146 888 156 860 198 860 c 0
 240 860 255 888 255 970 c 2
 255 1237 l 2
 255 1319 240 1346 198 1346 c 0
 156 1346 146 1319 146 1237 c 2
 146 970 l 2
396 174 m 2
 396 420 l 2
 396 546 446 612 549 612 c 0
 652 612 705 546 705 420 c 2
 705 174 l 2
 705 48 652 -18 549 -18 c 0
 446 -18 396 48 396 174 c 2
496 164 m 2
 496 82 507 54 549 54 c 0
 591 54 606 82 606 164 c 2
 606 431 l 2
 606 513 591 540 549 540 c 0
 507 540 496 513 496 431 c 2
 496 164 l 2
692 1395 m 2
 152 5 l 2
 150 1 148 0 144 0 c 2
 61 0 l 2
 57 0 57 1 59 5 c 2
 600 1395 l 2
 602 1399 604 1400 608 1400 c 2
 690 1400 l 2
 694 1400 694 1399 692 1395 c 2
EndSplineSet
EndChar

StartChar: hyphen
Encoding: 45 45 80
Width: 329
VWidth: 1920
Flags: HMW
LayerCount: 2
Fore
SplineSet
42 573 m 10
 42 652 l 18
 42 656 44 657 48 657 c 10
 282 657 l 18
 286 657 288 656 288 652 c 10
 288 573 l 18
 288 569 286 568 282 568 c 10
 48 568 l 18
 44 568 42 569 42 573 c 10
EndSplineSet
EndChar

StartChar: underscore
Encoding: 95 95 81
Width: 450
VWidth: 1920
Flags: HMW
LayerCount: 2
Fore
SplineSet
0 -84 m 10
 0 -5 l 18
 0 -1 1 0 5 0 c 10
 445 0 l 18
 449 0 450 -1 450 -5 c 10
 450 -84 l 18
 450 -88 449 -90 445 -90 c 10
 5 -90 l 18
 1 -90 0 -88 0 -84 c 10
EndSplineSet
EndChar

StartChar: plus
Encoding: 43 43 82
Width: 560
VWidth: 1920
Flags: HMW
LayerCount: 2
Fore
SplineSet
42 646 m 10
 42 726 l 18
 42 730 44 731 48 731 c 10
 512 731 l 18
 516 731 518 730 518 726 c 10
 518 646 l 18
 518 642 516 642 512 642 c 10
 48 642 l 18
 44 642 42 642 42 646 c 10
242 935 m 10
 318 935 l 18
 322 935 324 934 324 930 c 10
 324 430 l 18
 324 426 322 425 318 425 c 10
 242 425 l 18
 238 425 236 426 236 430 c 10
 236 930 l 18
 236 934 238 935 242 935 c 10
EndSplineSet
EndChar

StartChar: equal
Encoding: 61 61 83
Width: 537
VWidth: 1920
Flags: HMW
LayerCount: 2
Fore
SplineSet
49 362 m 10
 49 442 l 18
 49 446 50 447 54 447 c 10
 484 447 l 18
 488 447 489 446 489 442 c 10
 489 362 l 18
 489 358 488 357 484 357 c 10
 54 357 l 18
 50 357 49 358 49 362 c 10
49 553 m 10
 49 633 l 18
 49 637 50 638 54 638 c 10
 484 638 l 18
 488 638 489 637 489 633 c 10
 489 553 l 18
 489 549 488 548 484 548 c 10
 54 548 l 18
 50 548 49 549 49 553 c 10
EndSplineSet
EndChar

StartChar: less
Encoding: 60 60 84
Width: 491
VWidth: 1920
Flags: HMW
LayerCount: 2
Fore
SplineSet
431 343 m 2
 45 566 l 2
 41 568 41 570 41 574 c 2
 41 626 l 2
 41 630 41 632 45 634 c 2
 431 857 l 2
 435 859 435 859 435 855 c 2
 435 762 l 2
 435 758 435 756 431 754 c 2
 145 600 l 1
 431 446 l 2
 435 444 435 442 435 438 c 2
 435 345 l 2
 435 341 435 341 431 343 c 2
EndSplineSet
EndChar

StartChar: greater
Encoding: 62 62 85
Width: 491
VWidth: 1920
Flags: HMW
LayerCount: 2
Fore
SplineSet
60 857 m 2
 446 634 l 2
 450 632 450 630 450 626 c 2
 450 574 l 2
 450 570 450 568 446 566 c 2
 60 343 l 2
 56 341 56 341 56 345 c 2
 56 438 l 2
 56 442 56 444 60 446 c 2
 346 600 l 1
 60 754 l 2
 56 756 56 758 56 762 c 2
 56 855 l 2
 56 859 56 859 60 857 c 2
EndSplineSet
EndChar

StartChar: backslash
Encoding: 92 92 86
Width: 440
VWidth: 2048
Flags: HMW
LayerCount: 2
Fore
SplineSet
420 -95 m 2
 421 -99 419 -100 415 -100 c 2
 334 -100 l 2
 330 -100 329 -99 327 -95 c 2
 18 1395 l 2
 17 1399 19 1400 23 1400 c 2
 104 1400 l 2
 107 1400 110 1399 111 1395 c 2
 420 -95 l 2
EndSplineSet
EndChar

StartChar: bracketleft
Encoding: 91 91 87
Width: 288
VWidth: 1920
Flags: HMW
LayerCount: 2
Fore
SplineSet
143 1519 m 1
 143 -279 l 1
 258 -279 l 2
 262 -279 263 -280 263 -284 c 2
 263 -355 l 2
 263 -359 262 -360 258 -360 c 2
 40 -360 l 2
 36 -360 35 -359 35 -355 c 2
 35 1595 l 2
 35 1599 36 1600 40 1600 c 2
 258 1600 l 2
 262 1600 263 1599 263 1595 c 2
 263 1524 l 2
 263 1520 262 1519 258 1519 c 2
 143 1519 l 1
EndSplineSet
EndChar

StartChar: braceleft
Encoding: 123 123 88
Width: 300
VWidth: 2048
Flags: HMW
LayerCount: 2
Fore
SplineSet
78 1439 m 2
 78 1553 101 1599 244 1600 c 0
 248 1600 250 1599 250 1595 c 2
 250 1551 l 2
 250 1547 248 1546 244 1546 c 0
 194 1544 178 1517 178 1430 c 2
 178 788 l 2
 178 696 160 644 82 620 c 1
 160 596 178 544 178 452 c 2
 178 -190 l 2
 178 -276 196 -303 244 -306 c 0
 249 -306 250 -307 250 -311 c 2
 250 -355 l 2
 250 -359 248 -360 244 -360 c 0
 102 -358 78 -313 78 -199 c 2
 78 452 l 2
 78 536 59 567 11 583 c 0
 7 585 5 586 5 590 c 2
 5 650 l 2
 5 654 6 656 10 657 c 0
 60 673 78 704 78 788 c 2
 78 1439 l 2
EndSplineSet
EndChar

StartChar: bracketright
Encoding: 93 93 89
Width: 288
VWidth: 1920
Flags: HMW
LayerCount: 2
Back
SplineSet
290 -210 m 261
 290 1450 l 261
 60 1450 l 6
 53 1450 50 1453 50 1460 c 6
 50 1590 l 6
 50 1597 53 1600 60 1600 c 6
 470 1600 l 6
 477 1600 480 1597 480 1590 c 6
 480 -350 l 6
 480 -357 477 -360 470 -360 c 6
 60 -360 l 6
 53 -360 50 -357 50 -350 c 6
 50 -220 l 6
 50 -213 53 -210 60 -210 c 6
 290 -210 l 261
EndSplineSet
Fore
SplineSet
145 -279 m 1
 145 1519 l 1
 30 1519 l 2
 26 1519 25 1520 25 1524 c 2
 25 1595 l 2
 25 1599 26 1600 30 1600 c 2
 248 1600 l 2
 252 1600 253 1599 253 1595 c 2
 253 -355 l 2
 253 -359 252 -360 248 -360 c 2
 30 -360 l 2
 26 -360 25 -359 25 -355 c 2
 25 -284 l 2
 25 -280 26 -279 30 -279 c 2
 145 -279 l 1
EndSplineSet
EndChar

StartChar: braceright
Encoding: 125 125 90
Width: 300
VWidth: 2048
Flags: HMW
LayerCount: 2
Fore
SplineSet
222 -199 m 2
 222 -313 199 -359 56 -360 c 0
 52 -360 50 -359 50 -355 c 2
 50 -311 l 2
 50 -307 52 -306 56 -306 c 0
 106 -304 123 -277 123 -190 c 2
 123 452 l 2
 123 544 141 596 219 620 c 1
 141 644 123 696 123 788 c 2
 123 1430 l 2
 123 1516 105 1543 57 1546 c 0
 52 1546 50 1547 50 1551 c 2
 50 1595 l 2
 50 1599 52 1600 56 1600 c 0
 198 1598 222 1553 222 1439 c 2
 222 788 l 2
 222 704 242 673 290 657 c 0
 294 655 296 654 296 650 c 2
 296 590 l 2
 296 586 294 584 290 583 c 0
 240 567 222 536 222 452 c 2
 222 -199 l 2
EndSplineSet
EndChar

StartChar: bar
Encoding: 124 124 91
Width: 312
VWidth: 1920
Flags: HMW
LayerCount: 2
Fore
SplineSet
126 1600 m 10
 187 1600 l 18
 194 1600 196 1597 196 1590 c 10
 196 -350 l 18
 196 -357 194 -360 187 -360 c 10
 126 -360 l 18
 119 -360 117 -357 117 -350 c 10
 117 1590 l 18
 117 1597 119 1600 126 1600 c 10
EndSplineSet
EndChar

StartChar: asciitilde
Encoding: 126 126 92
Width: 664
VWidth: 2048
Flags: HMW
LayerCount: 2
Fore
SplineSet
210 623 m 0
 166 623 138 589 136 524 c 0
 136 521 133 520 130 520 c 2
 48 520 l 2
 44 520 44 521 44 524 c 0
 46 628 119 711 210 711 c 0
 333 711 381 587 454 587 c 0
 498 587 527 621 529 686 c 0
 529 690 531 691 534 691 c 2
 615 691 l 2
 619 691 620 690 620 686 c 0
 618 582 545 500 454 500 c 0
 331 500 283 623 210 623 c 0
EndSplineSet
EndChar

StartChar: asciicircum
Encoding: 94 94 93
Width: 389
VWidth: 1920
Flags: HMW
LayerCount: 2
Fore
SplineSet
194 1271 m 1
 97 740 l 2
 95 734 91 730 84 730 c 2
 26 730 l 2
 19 730 17 734 20 740 c 2
 162 1390 l 2
 166 1399 168 1400 175 1400 c 2
 212 1400 l 2
 219 1400 222 1399 226 1390 c 2
 367 740 l 2
 370 734 372 730 361 730 c 2
 303 730 l 2
 294 730 292 734 290 740 c 2
 194 1271 l 1
EndSplineSet
EndChar

StartChar: figuredash
Encoding: 8210 8210 108
Width: 575
VWidth: 2048
Flags: HMW
LayerCount: 2
Fore
SplineSet
20 572 m 10
 20 652 l 18
 20 656 21 658 25 658 c 10
 550 658 l 18
 554 658 555 656 555 652 c 10
 555 572 l 18
 555 568 554 568 550 568 c 10
 25 568 l 18
 21 568 20 568 20 572 c 10
EndSplineSet
EndChar

StartChar: endash
Encoding: 8211 8211 109
Width: 550
VWidth: 2048
Flags: HMW
LayerCount: 2
Fore
SplineSet
20 572 m 10
 20 652 l 18
 20 656 21 658 25 658 c 10
 525 658 l 18
 529 658 530 656 530 652 c 10
 530 572 l 18
 530 568 529 568 525 568 c 10
 25 568 l 18
 21 568 20 568 20 572 c 10
EndSplineSet
EndChar

StartChar: emdash
Encoding: 8212 8212 110
Width: 1100
VWidth: 2048
Flags: HMW
LayerCount: 2
Fore
SplineSet
20 572 m 10
 20 652 l 18
 20 656 21 658 25 658 c 10
 1075 658 l 18
 1079 658 1080 656 1080 652 c 10
 1080 572 l 18
 1080 568 1079 568 1075 568 c 10
 25 568 l 18
 21 568 20 568 20 572 c 10
EndSplineSet
EndChar

StartChar: uni2015
Encoding: 8213 8213 111
Width: 1180
VWidth: 2048
Flags: HMW
LayerCount: 2
Fore
SplineSet
20 572 m 10
 20 652 l 18
 20 656 21 658 25 658 c 10
 1155 658 l 18
 1159 658 1160 656 1160 652 c 10
 1160 572 l 18
 1160 568 1159 568 1155 568 c 10
 25 568 l 18
 21 568 20 568 20 572 c 10
EndSplineSet
EndChar

StartChar: quoteleft
Encoding: 8216 8216 114
Width: 303
VWidth: 1920
Flags: HMW
LayerCount: 2
Fore
SplineSet
224 1457 m 2
 233 1457 l 2
 240 1457 244 1455 241 1447 c 2
 173 1234 l 1
 210 1234 l 2
 219 1234 220 1233 220 1224 c 2
 220 1016 l 2
 220 1009 217 1006 210 1006 c 2
 107 1006 l 2
 100 1006 97 1009 97 1016 c 2
 97 1217 l 2
 97 1224 97 1226 101 1234 c 2
 207 1447 l 2
 211 1456 216 1457 224 1457 c 2
EndSplineSet
EndChar

StartChar: quotereversed
Encoding: 8219 8219 117
Width: 303
VWidth: 1920
Flags: HMW
LayerCount: 2
Fore
SplineSet
224 966 m 2
 216 966 211 967 207 976 c 2
 101 1189 l 2
 97 1197 97 1199 97 1206 c 2
 97 1408 l 2
 97 1415 100 1418 107 1418 c 2
 210 1418 l 2
 217 1418 220 1415 220 1408 c 2
 220 1199 l 2
 220 1190 219 1189 210 1189 c 2
 173 1189 l 1
 241 976 l 2
 244 968 240 966 233 966 c 2
 224 966 l 2
EndSplineSet
EndChar

StartChar: bullet
Encoding: 8226 8226 120
Width: 351
VWidth: 2048
Flags: HMW
LayerCount: 2
Fore
SplineSet
69 731 m 2
 69 760 l 2
 69 824 119 857 173 857 c 0
 227 857 282 824 282 760 c 2
 282 731 l 2
 282 667 227 633 173 633 c 0
 119 633 69 667 69 731 c 2
EndSplineSet
EndChar

StartChar: dagger
Encoding: 8224 8224 124
Width: 458
VWidth: 1920
Flags: HMW
LayerCount: 2
Fore
SplineSet
33 971 m 10
 33 1045 l 18
 33 1049 34 1050 38 1050 c 10
 421 1050 l 18
 425 1050 426 1049 426 1045 c 10
 426 971 l 18
 426 967 425 967 421 967 c 10
 38 967 l 18
 34 967 33 967 33 971 c 10
178 1400 m 10
 281 1400 l 18
 285 1400 286 1399 286 1395 c 10
 286 5 l 18
 286 1 285 0 281 0 c 10
 178 0 l 18
 174 0 172 1 172 5 c 10
 172 1395 l 18
 172 1399 174 1400 178 1400 c 10
EndSplineSet
EndChar

StartChar: daggerdbl
Encoding: 8225 8225 125
Width: 458
VWidth: 1920
Flags: HMW
LayerCount: 2
Fore
SplineSet
33 4 m 10
 33 78 l 18
 33 82 34 83 38 83 c 10
 421 83 l 18
 425 83 426 82 426 78 c 10
 426 4 l 18
 426 0 425 0 421 0 c 10
 38 0 l 18
 34 0 33 0 33 4 c 10
33 971 m 10
 33 1045 l 18
 33 1049 34 1050 38 1050 c 10
 421 1050 l 18
 425 1050 426 1049 426 1045 c 10
 426 971 l 18
 426 967 425 967 421 967 c 10
 38 967 l 18
 34 967 33 967 33 971 c 10
178 1400 m 10
 281 1400 l 18
 285 1400 286 1399 286 1395 c 10
 286 -355 l 18
 286 -359 285 -360 281 -360 c 10
 178 -360 l 18
 174 -360 172 -359 172 -355 c 10
 172 1395 l 18
 172 1399 174 1400 178 1400 c 10
EndSplineSet
EndChar

StartChar: perthousand
Encoding: 8240 8240 126
Width: 1137
VWidth: 2048
Flags: HMW
LayerCount: 2
Fore
SplineSet
782 174 m 2
 782 420 l 2
 782 546 831 612 934 612 c 0
 1037 612 1090 546 1090 420 c 2
 1090 174 l 2
 1090 48 1037 -18 934 -18 c 0
 831 -18 782 48 782 174 c 2
881 164 m 2
 881 82 892 54 934 54 c 0
 976 54 991 82 991 164 c 2
 991 431 l 2
 991 513 976 540 934 540 c 0
 892 540 881 513 881 431 c 2
 881 164 l 2
47 981 m 2
 47 1226 l 2
 47 1352 95 1418 198 1418 c 0
 301 1418 356 1352 356 1226 c 2
 356 981 l 2
 356 855 301 788 198 788 c 0
 95 788 47 855 47 981 c 2
146 970 m 2
 146 888 156 860 198 860 c 0
 240 860 255 888 255 970 c 2
 255 1237 l 2
 255 1319 240 1346 198 1346 c 0
 156 1346 146 1319 146 1237 c 2
 146 970 l 2
396 174 m 2
 396 420 l 2
 396 546 446 612 549 612 c 0
 652 612 705 546 705 420 c 2
 705 174 l 2
 705 48 652 -18 549 -18 c 0
 446 -18 396 48 396 174 c 2
496 164 m 2
 496 82 507 54 549 54 c 0
 591 54 606 82 606 164 c 2
 606 431 l 2
 606 513 591 540 549 540 c 0
 507 540 496 513 496 431 c 2
 496 164 l 2
692 1395 m 2
 152 5 l 2
 150 1 148 0 144 0 c 2
 61 0 l 2
 57 0 57 1 59 5 c 2
 600 1395 l 2
 602 1399 604 1400 608 1400 c 2
 690 1400 l 2
 694 1400 694 1399 692 1395 c 2
EndSplineSet
EndChar

StartChar: uni2031
Encoding: 8241 8241 127
Width: 1522
VWidth: 2048
Flags: HMW
LayerCount: 2
Fore
SplineSet
1166 174 m 2
 1166 420 l 2
 1166 546 1216 612 1319 612 c 0
 1422 612 1475 546 1475 420 c 2
 1475 174 l 2
 1475 48 1422 -18 1319 -18 c 0
 1216 -18 1166 48 1166 174 c 2
1266 164 m 2
 1266 82 1277 54 1319 54 c 0
 1361 54 1376 82 1376 164 c 2
 1376 431 l 2
 1376 513 1361 540 1319 540 c 0
 1277 540 1266 513 1266 431 c 2
 1266 164 l 2
782 174 m 2
 782 420 l 2
 782 546 831 612 934 612 c 0
 1037 612 1090 546 1090 420 c 2
 1090 174 l 2
 1090 48 1037 -18 934 -18 c 0
 831 -18 782 48 782 174 c 2
881 164 m 2
 881 82 892 54 934 54 c 0
 976 54 991 82 991 164 c 2
 991 431 l 2
 991 513 976 540 934 540 c 0
 892 540 881 513 881 431 c 2
 881 164 l 2
47 981 m 2
 47 1226 l 2
 47 1352 95 1418 198 1418 c 0
 301 1418 356 1352 356 1226 c 2
 356 981 l 2
 356 855 301 788 198 788 c 0
 95 788 47 855 47 981 c 2
146 970 m 2
 146 888 156 860 198 860 c 0
 240 860 255 888 255 970 c 2
 255 1237 l 2
 255 1319 240 1346 198 1346 c 0
 156 1346 146 1319 146 1237 c 2
 146 970 l 2
396 174 m 2
 396 420 l 2
 396 546 446 612 549 612 c 0
 652 612 705 546 705 420 c 2
 705 174 l 2
 705 48 652 -18 549 -18 c 0
 446 -18 396 48 396 174 c 2
496 164 m 2
 496 82 507 54 549 54 c 0
 591 54 606 82 606 164 c 2
 606 431 l 2
 606 513 591 540 549 540 c 0
 507 540 496 513 496 431 c 2
 496 164 l 2
692 1395 m 2
 152 5 l 2
 150 1 148 0 144 0 c 2
 61 0 l 2
 57 0 57 1 59 5 c 2
 600 1395 l 2
 602 1399 604 1400 608 1400 c 2
 690 1400 l 2
 694 1400 694 1399 692 1395 c 2
EndSplineSet
EndChar

StartChar: fraction
Encoding: 8260 8260 128
Width: 510
VWidth: 1920
Flags: HMW
LayerCount: 2
Fore
SplineSet
396 1293 m 2
 456 1262 l 2
 460 1260 460 1264 458 1258 c 10
 122 159 l 18
 120 153 119 153 115 155 c 10
 56 178 l 18
 52 180 52 185 54 191 c 10
 389 1290 l 18
 391 1296 392 1295 396 1293 c 2
EndSplineSet
EndChar

StartChar: uni2074
Encoding: 8308 8308 129
Width: 279
VWidth: 1920
Flags: HMW
LayerCount: 2
Fore
SplineSet
262 914 m 2
 262 833 l 2
 262 829 260 828 258 828 c 2
 221 828 l 1
 221 636 l 2
 221 632 221 630 219 630 c 2
 138 630 l 2
 136 630 136 632 136 636 c 2
 136 828 l 1
 18 828 l 2
 16 828 14 829 14 833 c 2
 14 928 l 2
 14 932 14 936 16 940 c 2
 140 1464 l 2
 141 1467 144 1470 146 1470 c 2
 219 1470 l 2
 221 1470 221 1468 221 1464 c 2
 221 920 l 1
 258 920 l 2
 260 920 262 918 262 914 c 2
138 920 m 1
 138 1226 l 1
 70 920 l 1
 138 920 l 1
EndSplineSet
EndChar

StartChar: uni2073
Encoding: 8307 8307 130
Width: 311
VWidth: 1920
Flags: HMW
LayerCount: 2
Fore
SplineSet
31 878 m 2
 111 878 l 2
 113 878 114 876 114 872 c 2
 114 821 l 2
 114 771 122 694 152 694 c 0
 184 694 197 778 197 834 c 2
 197 905 l 2
 197 968 188 1027 147 1027 c 2
 123 1027 l 2
 121 1027 120 1029 120 1033 c 2
 120 1105 l 2
 120 1109 121 1110 123 1110 c 2
 141 1110 l 2
 179 1110 183 1174 183 1231 c 2
 183 1288 l 2
 183 1333 178 1406 150 1406 c 0
 126 1406 120 1334 120 1269 c 2
 120 1207 l 2
 120 1203 119 1201 117 1201 c 2
 40 1201 l 2
 38 1201 37 1203 37 1207 c 2
 37 1271 l 2
 37 1402 68 1490 152 1490 c 0
 236 1490 270 1416 270 1287 c 2
 270 1254 l 2
 270 1110 224 1060 143 1060 c 1
 149 1089 l 1
 230 1089 283 1033 283 889 c 2
 283 832 l 2
 283 693 242 610 147 610 c 0
 66 610 28 688 28 819 c 2
 28 872 l 2
 28 876 29 878 31 878 c 2
EndSplineSet
EndChar

StartChar: uni2072
Encoding: 8306 8306 131
Width: 264
VWidth: 1920
Flags: HMW
LayerCount: 2
Fore
SplineSet
15 688 m 2
 15 1009 165 1077 165 1250 c 2
 165 1290 l 2
 165 1344 161 1396 136 1396 c 0
 108 1396 105 1328 105 1250 c 2
 105 1177 l 2
 105 1173 104 1171 102 1171 c 2
 25 1171 l 2
 23 1171 23 1173 23 1177 c 2
 23 1248 l 2
 23 1404 57 1497 140 1497 c 0
 217 1497 248 1420 248 1287 c 2
 248 1252 l 2
 248 1013 109 984 109 746 c 2
 109 740 l 1
 247 740 l 2
 249 740 250 738 250 734 c 2
 250 643 l 2
 250 639 249 637 247 637 c 2
 18 637 l 2
 16 637 15 639 15 643 c 2
 15 688 l 2
EndSplineSet
EndChar

StartChar: uni2070
Encoding: 8304 8304 132
Width: 341
VWidth: 1920
Flags: HMW
LayerCount: 2
Fore
SplineSet
47 905 m 2
 47 1196 l 2
 47 1379 72 1490 171 1490 c 0
 270 1490 295 1379 295 1196 c 2
 295 905 l 2
 295 721 270 610 171 610 c 0
 72 610 47 721 47 905 c 2
133 916 m 2
 133 780 134 705 171 705 c 0
 208 705 209 780 209 916 c 2
 209 1185 l 2
 209 1321 208 1395 171 1395 c 0
 134 1395 133 1321 133 1185 c 2
 133 916 l 2
EndSplineSet
EndChar

StartChar: uni2075
Encoding: 8309 8309 133
Width: 333
VWidth: 1920
Flags: HMW
LayerCount: 2
Fore
SplineSet
50 844 m 2
 124 844 l 2
 126 844 127 842 127 838 c 0
 131 760 130 685 166 685 c 0
 203 685 210 763 210 861 c 2
 210 945 l 2
 210 1039 207 1120 175 1120 c 0
 155 1120 147 1061 140 1013 c 0
 139 1008 138 1008 136 1008 c 2
 56 1008 l 2
 54 1008 53 1008 54 1013 c 2
 86 1457 l 2
 87 1461 88 1463 90 1463 c 2
 275 1463 l 2
 277 1463 278 1461 278 1457 c 2
 278 1427 l 2
 278 1386 269 1379 216 1379 c 2
 157 1379 l 1
 128 1066 l 1
 118 1066 l 1
 133 1144 143 1212 202 1212 c 0
 268 1212 296 1120 296 931 c 2
 296 876 l 2
 296 690 260 603 165 603 c 0
 83 603 53 689 48 838 c 0
 48 842 48 844 50 844 c 2
EndSplineSet
EndChar

StartChar: uni2076
Encoding: 8310 8310 134
Width: 326
VWidth: 1920
Flags: HMW
LayerCount: 2
Fore
SplineSet
162 1086 m 0
 138 1086 124 1050 124 964 c 2
 124 890 l 1
 104 945 l 1
 104 1076 133 1174 183 1174 c 0
 248 1174 280 1100 280 961 c 2
 280 811 l 2
 280 676 244 611 157 611 c 0
 64 611 48 698 48 879 c 2
 48 1210 l 2
 48 1398 71 1490 163 1490 c 0
 243 1490 264 1393 264 1284 c 2
 264 1250 l 2
 264 1246 263 1244 261 1244 c 2
 187 1244 l 2
 185 1244 184 1246 184 1250 c 2
 184 1317 l 2
 184 1366 183 1398 160 1398 c 0
 129 1398 124 1343 124 1189 c 2
 124 838 l 2
 124 748 126 702 159 702 c 0
 187 702 194 752 194 836 c 2
 194 944 l 2
 194 1030 188 1086 162 1086 c 0
EndSplineSet
EndChar

StartChar: uni2077
Encoding: 8311 8311 135
Width: 228
VWidth: 1920
Flags: HMW
LayerCount: 2
Fore
SplineSet
217 1464 m 2
 127 636 l 2
 126 632 125 630 123 630 c 2
 36 630 l 2
 34 630 33 632 34 636 c 2
 120 1369 l 1
 16 1369 l 2
 14 1369 13 1371 13 1375 c 2
 13 1464 l 2
 13 1468 14 1470 16 1470 c 2
 215 1470 l 2
 217 1470 218 1468 217 1464 c 2
EndSplineSet
EndChar

StartChar: uni2078
Encoding: 8312 8312 136
Width: 296
VWidth: 1920
Flags: HMW
LayerCount: 2
Fore
SplineSet
146 679 m 0
 169 679 180 699 180 736 c 2
 180 968 l 2
 180 1005 169 1026 146 1026 c 0
 123 1026 116 1005 116 968 c 2
 116 736 l 2
 116 699 123 679 146 679 c 0
146 1096 m 0
 165 1096 176 1109 176 1142 c 2
 176 1374 l 2
 176 1405 165 1421 146 1421 c 0
 132 1421 121 1405 121 1374 c 2
 121 1142 l 2
 121 1109 131 1096 146 1096 c 0
156 1068 m 1
 237 1068 266 1026 266 954 c 2
 266 729 l 2
 266 653 244 611 146 611 c 0
 50 611 30 653 30 729 c 2
 30 954 l 2
 30 1026 58 1068 137 1068 c 1
 138 1056 l 1
 63 1058 35 1093 35 1163 c 2
 35 1378 l 2
 35 1448 71 1489 146 1489 c 0
 223 1489 261 1448 261 1378 c 2
 261 1163 l 2
 261 1093 232 1058 155 1056 c 1
 156 1068 l 1
EndSplineSet
EndChar

StartChar: uni2079
Encoding: 8313 8313 137
Width: 272
VWidth: 1920
Flags: HMW
LayerCount: 2
Fore
SplineSet
137 1014 m 0
 161 1014 175 1050 175 1136 c 2
 175 1210 l 1
 194 1155 l 1
 194 1024 165 926 115 926 c 0
 50 926 19 1000 19 1139 c 2
 19 1289 l 2
 19 1424 55 1489 142 1489 c 0
 235 1489 251 1402 251 1221 c 2
 251 890 l 2
 251 702 227 610 127 610 c 0
 39 610 16 707 16 816 c 2
 16 850 l 2
 16 854 17 856 19 856 c 2
 93 856 l 2
 95 856 96 854 96 850 c 2
 96 783 l 2
 96 734 98 702 130 702 c 0
 170 702 175 757 175 911 c 2
 175 1262 l 2
 175 1352 173 1398 140 1398 c 0
 112 1398 105 1348 105 1264 c 2
 105 1156 l 2
 105 1070 111 1014 137 1014 c 0
EndSplineSet
EndChar

StartChar: uni00B9
Encoding: 185 185 138
Width: 258
VWidth: 1920
Flags: HMW
LayerCount: 2
Fore
SplineSet
90 1463 m 0
 109 1464 127 1475 130 1501 c 0
 130 1505 132 1507 134 1507 c 2
 168 1507 l 2
 170 1507 172 1505 172 1501 c 2
 172 646 l 2
 172 642 170 640 168 640 c 2
 90 640 l 2
 88 640 86 642 86 646 c 2
 86 1456 l 2
 86 1460 88 1463 90 1463 c 0
EndSplineSet
EndChar

StartChar: cent
Encoding: 162 162 154
Width: 373
VWidth: 1920
Flags: HMW
LayerCount: 2
Fore
SplineSet
189 1240 m 2
 219 1240 l 2
 223 1240 224 1239 224 1235 c 2
 224 -185 l 2
 224 -189 223 -190 219 -190 c 2
 189 -190 l 2
 185 -190 184 -189 184 -185 c 2
 184 1235 l 2
 184 1239 185 1240 189 1240 c 2
EndSplineSet
Refer: 40 99 N 1 0 0 1 0 0 2
EndChar

StartChar: uni203D
Encoding: 8253 8253 157
Width: 534
VWidth: 1920
Flags: HMW
LayerCount: 2
Fore
SplineSet
198 935 m 2
 198 1185 l 2
 198 1192 200 1195 207 1195 c 2
 306 1195 l 2
 313 1195 315 1192 315 1185 c 2
 315 935 l 2
 315 928 315 922 314 915 c 2
 284 441 l 2
 283 434 280 431 273 431 c 2
 248 431 l 2
 241 431 230 434 229 441 c 2
 198 915 l 2
 197 922 198 928 198 935 c 2
294 0 m 2
 190 0 l 2
 183 0 180 3 180 10 c 2
 180 219 l 2
 180 226 183 229 190 229 c 2
 294 229 l 2
 301 229 304 226 304 219 c 2
 304 10 l 2
 304 3 301 0 294 0 c 2
292 431 m 2
 244 431 l 2
 240 431 246 433 246 436 c 0
 225 611 366 626 366 982 c 2
 366 1185 l 2
 366 1244 341 1334 261 1334 c 0
 178 1334 154 1240 154 1176 c 2
 154 936 l 2
 154 932 154 931 150 931 c 2
 52 931 l 2
 48 931 46 932 46 936 c 2
 46 1166 l 2
 46 1294 99 1423 268 1423 c 0
 418 1423 488 1305 488 1181 c 2
 488 1004 l 2
 488 690 329 643 298 436 c 0
 298 433 295 431 292 431 c 2
EndSplineSet
EndChar

StartChar: ordfeminine
Encoding: 170 170 159
Width: 372
VWidth: 1920
Flags: HMW
LayerCount: 2
Fore
SplineSet
116 841 m 0
 116 745 128 693 160 693 c 0
 199 693 220 810 220 946 c 1
 242 893 l 1
 242 753 220 609 134 609 c 0
 62 609 32 698 32 836 c 0
 32 992 82 1053 160 1101 c 0
 198 1124 220 1162 220 1238 c 1
 239 1152 l 1
 239 1095 231 1074 186 1042 c 0
 150 1016 116 959 116 841 c 0
220 842 m 2
 220 1262 l 2
 220 1339 218 1409 183 1409 c 0
 147 1409 141 1358 141 1226 c 0
 141 1220 141 1217 137 1217 c 2
 61 1217 l 2
 57 1217 57 1220 57 1226 c 0
 69 1381 74 1489 185 1489 c 0
 295 1489 312 1395 312 1190 c 2
 312 842 l 2
 312 753 322 691 339 651 c 0
 341 646 342 644 338 644 c 2
 254 644 l 2
 250 644 248 646 246 650 c 0
 229 691 220 752 220 842 c 2
EndSplineSet
EndChar

StartChar: exclamdown
Encoding: 161 161 160
Width: 290
VWidth: 1920
Flags: HMW
LayerCount: 2
Fore
SplineSet
94 1050 m 2
 197 1050 l 2
 204 1050 207 1047 207 1040 c 2
 207 831 l 2
 207 824 204 821 197 821 c 2
 94 821 l 2
 87 821 84 824 84 831 c 2
 84 1040 l 2
 84 1047 87 1050 94 1050 c 2
211 100 m 2
 211 -390 l 2
 211 -397 208 -400 201 -400 c 2
 90 -400 l 2
 83 -400 80 -397 80 -390 c 2
 80 100 l 2
 80 107 80 113 81 120 c 2
 118 601 l 2
 119 608 122 611 129 611 c 2
 162 611 l 2
 169 611 172 608 173 601 c 2
 210 120 l 2
 211 113 211 107 211 100 c 2
EndSplineSet
EndChar

StartChar: AE
Encoding: 198 198 161
Width: 753
VWidth: 1920
InSpiro: 1
Flags: HMW
LayerCount: 2
Fore
SplineSet
171 498 m 1
 429 498 l 1
 429 417 l 1
 171 417 l 1
 171 498 l 1
420 1400 m 1
 111 10 l 2
 107 4 105 0 98 0 c 2
 24 0 l 2
 17 0 14 5 17 10 c 2
 326 1390 l 2
 329 1395 332 1400 339 1400 c 2
 420 1400 l 1
EndSplineSet
Refer: 16 69 N 1 0 0 1 314 0 2
EndChar

StartChar: questiondown
Encoding: 191 191 162
Width: 421
VWidth: 1920
Flags: HMW
LayerCount: 2
Fore
SplineSet
188 1050 m 2
 292 1050 l 2
 299 1050 302 1047 302 1040 c 2
 302 831 l 2
 302 824 299 821 292 821 c 2
 188 821 l 2
 181 821 178 824 178 831 c 2
 178 1040 l 2
 178 1047 181 1050 188 1050 c 2
200 646 m 2
 258 646 l 2
 262 646 264 645 264 642 c 0
 285 470 168 443 168 81 c 2
 168 -132 l 2
 168 -196 174 -285 218 -285 c 0
 264 -285 267 -194 267 -124 c 2
 267 93 l 2
 267 97 267 98 271 98 c 2
 370 98 l 2
 374 98 376 97 376 93 c 2
 376 -129 l 2
 376 -245 345 -373 212 -373 c 0
 93 -373 46 -254 46 -140 c 2
 46 64 l 2
 46 368 163 436 194 642 c 0
 194 645 197 646 200 646 c 2
EndSplineSet
EndChar

StartChar: yen
Encoding: 165 165 163
Width: 465
VWidth: 1920
Flags: HMW
LayerCount: 2
Fore
SplineSet
34 475 m 10
 34 527 l 18
 34 531 34 532 38 532 c 10
 427 532 l 18
 431 532 432 531 432 527 c 10
 432 475 l 18
 432 471 431 470 427 470 c 10
 38 470 l 18
 34 470 34 471 34 475 c 10
34 610 m 10
 34 662 l 18
 34 666 34 667 38 667 c 10
 427 667 l 18
 431 667 432 666 432 662 c 10
 432 610 l 18
 432 606 431 605 427 605 c 10
 38 605 l 18
 34 605 34 606 34 610 c 10
EndSplineSet
Refer: 36 89 N 1 0 0 1 0 0 2
EndChar

StartChar: gravecomb
Encoding: 768 768 164
Width: 0
Flags: HMW
AnchorPoint: "top" -611 1000 mark 0
LayerCount: 2
Fore
SplineSet
-556 1104 m 6
 -615 1104 l 6
 -619 1104 -623 1109 -625 1114 c 6
 -769 1390 l 6
 -771 1395 -773 1400 -769 1400 c 6
 -642 1400 l 6
 -638 1400 -636 1397 -634 1390 c 6
 -554 1114 l 6
 -552 1107 -552 1104 -556 1104 c 6
EndSplineSet
EndChar

StartChar: acutecomb
Encoding: 769 769 165
Width: 0
Flags: HMW
AnchorPoint: "top" -548 1000 mark 0
LayerCount: 2
Fore
SplineSet
-555 1104 m 6
 -559 1104 -559 1107 -557 1114 c 6
 -477 1390 l 6
 -475 1397 -473 1400 -469 1400 c 6
 -342 1400 l 6
 -338 1400 -340 1395 -342 1390 c 6
 -486 1114 l 6
 -488 1109 -492 1104 -496 1104 c 6
 -555 1104 l 6
EndSplineSet
EndChar

StartChar: uni0302
Encoding: 770 770 166
Width: 0
VWidth: 1920
Flags: HMW
AnchorPoint: "top" -557 1000 mark 0
LayerCount: 2
Fore
SplineSet
-558 1288 m 5
 -627 1110 l 6
 -629 1105 -632 1100 -636 1100 c 6
 -699 1100 l 6
 -703 1100 -704 1104 -702 1110 c 6
 -611 1390 l 6
 -608 1398 -608 1400 -604 1400 c 6
 -511 1400 l 6
 -507 1400 -507 1398 -504 1390 c 6
 -408 1110 l 6
 -406 1104 -405 1100 -411 1100 c 6
 -474 1100 l 6
 -479 1100 -481 1105 -483 1110 c 6
 -558 1288 l 5
EndSplineSet
EndChar

StartChar: tildecomb
Encoding: 771 771 167
Width: 0
Flags: HMW
AnchorPoint: "top" -572 1000 mark 0
LayerCount: 2
Fore
SplineSet
-634 1238 m 4
 -664 1238 -657 1191 -659 1152 c 4
 -659 1146 -661 1143 -664 1143 c 6
 -721 1143 l 6
 -725 1143 -726 1146 -726 1152 c 4
 -724 1259 -686 1310 -632 1310 c 4
 -556 1310 -535 1188 -496 1188 c 4
 -466 1188 -472 1246 -470 1284 c 4
 -470 1291 -468 1294 -465 1294 c 6
 -409 1294 l 6
 -405 1294 -404 1291 -404 1284 c 4
 -406 1177 -444 1128 -498 1128 c 4
 -574 1128 -595 1238 -634 1238 c 4
EndSplineSet
EndChar

StartChar: uni0304
Encoding: 772 772 168
Width: 0
VWidth: 1920
Flags: HMW
AnchorPoint: "top" -560 1000 mark 0
LayerCount: 2
Fore
SplineSet
-695 1217 m 14
 -695 1280 l 22
 -695 1284 -694 1285 -690 1285 c 14
 -430 1285 l 22
 -426 1285 -425 1284 -425 1280 c 14
 -425 1217 l 22
 -425 1213 -426 1212 -430 1212 c 14
 -690 1212 l 22
 -694 1212 -695 1213 -695 1217 c 14
EndSplineSet
EndChar

StartChar: uni0306
Encoding: 774 774 169
Width: 0
VWidth: 1920
Flags: HMW
AnchorPoint: "top" -560 1000 mark 0
LayerCount: 2
Fore
SplineSet
-560 1301 m 4
 -508 1301 -478 1334 -478 1374 c 4
 -478 1378 -478 1380 -474 1380 c 6
 -407 1380 l 6
 -403 1380 -402 1379 -402 1372 c 4
 -406 1283 -454 1223 -560 1223 c 4
 -666 1223 -715 1284 -718 1374 c 4
 -718 1378 -717 1380 -713 1380 c 6
 -646 1380 l 6
 -642 1380 -642 1379 -642 1373 c 4
 -642 1332 -611 1301 -560 1301 c 4
EndSplineSet
EndChar

StartChar: uni0307
Encoding: 775 775 170
Width: 0
Flags: HMW
AnchorPoint: "top" -549 1148 mark 0
LayerCount: 2
Fore
SplineSet
-496 1218 m 6
 -604 1218 l 6
 -608 1218 -608 1220 -608 1224 c 6
 -608 1327 l 6
 -608 1331 -608 1333 -604 1333 c 6
 -496 1333 l 6
 -492 1333 -492 1331 -492 1327 c 6
 -492 1224 l 6
 -492 1220 -492 1218 -496 1218 c 6
EndSplineSet
EndChar

StartChar: uni0308
Encoding: 776 776 171
Width: 0
Flags: HMW
AnchorPoint: "top" -548 1000 mark 0
LayerCount: 2
Fore
SplineSet
-586 1122 m 6
 -688 1122 l 6
 -692 1122 -692 1124 -692 1128 c 6
 -692 1231 l 6
 -692 1235 -692 1237 -688 1237 c 6
 -586 1237 l 6
 -582 1237 -581 1235 -581 1231 c 6
 -581 1128 l 6
 -581 1124 -582 1122 -586 1122 c 6
-405 1122 m 6
 -506 1122 l 6
 -510 1122 -511 1124 -511 1128 c 6
 -511 1231 l 6
 -511 1235 -510 1237 -506 1237 c 6
 -405 1237 l 6
 -401 1237 -400 1235 -400 1231 c 6
 -400 1128 l 6
 -400 1124 -401 1122 -405 1122 c 6
EndSplineSet
EndChar

StartChar: uni030A
Encoding: 778 778 172
Width: 0
Flags: HMW
AnchorPoint: "top" -554 1000 mark 0
LayerCount: 2
Fore
SplineSet
-458 1214 m 4
 -458 1162 -502 1120 -554 1120 c 4
 -607 1120 -652 1161 -652 1214 c 4
 -652 1265 -607 1310 -554 1310 c 4
 -501 1310 -458 1268 -458 1214 c 4
-504 1214 m 4
 -504 1242 -527 1262 -554 1262 c 4
 -581 1262 -604 1239 -604 1214 c 4
 -604 1187 -581 1166 -554 1166 c 4
 -528 1166 -504 1189 -504 1214 c 4
EndSplineSet
EndChar

StartChar: uni030B
Encoding: 779 779 173
Width: 0
Flags: HMW
AnchorPoint: "top" -542 1000 mark 0
LayerCount: 2
Fore
SplineSet
-488 1104 m 6
 -492 1104 -492 1107 -490 1114 c 6
 -410 1390 l 6
 -408 1397 -406 1400 -402 1400 c 6
 -275 1400 l 6
 -271 1400 -273 1395 -275 1390 c 6
 -419 1114 l 6
 -421 1109 -425 1104 -429 1104 c 6
 -488 1104 l 6
-665 1104 m 6
 -669 1104 -669 1107 -667 1114 c 6
 -586 1390 l 6
 -584 1397 -582 1400 -578 1400 c 6
 -456 1400 l 6
 -452 1400 -454 1395 -456 1390 c 6
 -595 1114 l 6
 -597 1109 -601 1104 -605 1104 c 6
 -665 1104 l 6
EndSplineSet
EndChar

StartChar: uni030C
Encoding: 780 780 174
Width: 0
Flags: HMW
AnchorPoint: "top" -554 1000 mark 0
LayerCount: 2
Fore
SplineSet
-554 1233 m 5
 -485 1410 l 6
 -483 1415 -479 1420 -475 1420 c 6
 -413 1420 l 6
 -409 1420 -408 1416 -410 1410 c 6
 -501 1130 l 6
 -504 1122 -504 1120 -508 1120 c 6
 -600 1120 l 6
 -604 1120 -604 1122 -607 1130 c 6
 -703 1410 l 6
 -705 1416 -706 1420 -700 1420 c 6
 -638 1420 l 6
 -633 1420 -630 1415 -628 1410 c 6
 -554 1233 l 5
EndSplineSet
EndChar

StartChar: uni030F
Encoding: 783 783 175
Width: 0
Flags: HMW
AnchorPoint: "top" -571 1000 mark 0
LayerCount: 2
Fore
SplineSet
-438 1104 m 6
 -498 1104 l 6
 -502 1104 -506 1109 -508 1114 c 6
 -645 1390 l 6
 -647 1395 -649 1400 -645 1400 c 6
 -525 1400 l 6
 -521 1400 -519 1397 -517 1390 c 6
 -436 1114 l 6
 -434 1107 -434 1104 -438 1104 c 6
-613 1104 m 6
 -673 1104 l 6
 -677 1104 -681 1109 -683 1114 c 6
 -826 1390 l 6
 -828 1395 -830 1400 -826 1400 c 6
 -700 1400 l 6
 -696 1400 -694 1397 -692 1390 c 6
 -611 1114 l 6
 -609 1107 -609 1104 -613 1104 c 6
EndSplineSet
EndChar

StartChar: uni0311
Encoding: 785 785 176
Width: 0
Flags: HMW
AnchorPoint: "top" -604 1152 mark 0
LayerCount: 2
Fore
SplineSet
-604 1309 m 4
 -656 1309 -686 1276 -686 1236 c 4
 -686 1232 -687 1230 -691 1230 c 6
 -757 1230 l 6
 -761 1230 -762 1232 -762 1238 c 4
 -758 1327 -710 1387 -604 1387 c 4
 -498 1387 -449 1326 -446 1236 c 4
 -446 1232 -447 1230 -451 1230 c 6
 -518 1230 l 6
 -522 1230 -523 1231 -523 1237 c 4
 -523 1278 -553 1309 -604 1309 c 4
EndSplineSet
EndChar

StartChar: dotbelowcomb
Encoding: 803 803 177
Width: 0
Flags: HMW
AnchorPoint: "bottom" -551 0 mark 0
LayerCount: 2
Fore
SplineSet
-496 -310 m 6
 -604 -310 l 6
 -608 -310 -608 -308 -608 -304 c 6
 -608 -200 l 6
 -608 -196 -608 -194 -604 -194 c 6
 -496 -194 l 6
 -492 -194 -492 -196 -492 -200 c 6
 -492 -304 l 6
 -492 -308 -492 -310 -496 -310 c 6
EndSplineSet
EndChar

StartChar: uni0326
Encoding: 806 806 178
Width: 0
Flags: HMW
AnchorPoint: "bottom" -561 0 mark 0
LayerCount: 2
Fore
SplineSet
-617 -467 m 6
 -635 -467 l 6
 -639 -467 -639 -466 -637 -462 c 6
 -582 -360 l 5
 -620 -360 l 6
 -624 -360 -625 -359 -625 -355 c 6
 -625 -250 l 6
 -625 -246 -624 -245 -620 -245 c 6
 -513 -245 l 6
 -509 -245 -508 -246 -508 -250 c 6
 -508 -350 l 6
 -508 -354 -508 -356 -512 -360 c 6
 -607 -462 l 6
 -610 -466 -613 -467 -617 -467 c 6
EndSplineSet
EndChar

StartChar: uni0327
Encoding: 807 807 179
Width: 1200
Flags: HMW
AnchorPoint: "bottom" -511 0 mark 0
LayerCount: 2
Fore
SplineSet
-610 -501 m 4
 -654 -501 -684 -492 -710 -473 c 4
 -715 -469 -716 -470 -713 -464 c 6
 -695 -409 l 6
 -693 -403 -693 -404 -688 -406 c 4
 -659 -422 -638 -426 -612 -426 c 4
 -568 -426 -538 -416 -538 -330 c 4
 -538 -248 -573 -232 -640 -231 c 4
 -647 -231 -646 -232 -648 -226 c 6
 -656 -206 l 6
 -658 -200 -656 -199 -654 -195 c 6
 -521 34 l 5
 -437 34 l 5
 -574 -193 l 5
 -566 -191 -558 -188 -550 -188 c 4
 -507 -188 -453 -211 -453 -330 c 4
 -453 -467 -530 -501 -610 -501 c 4
EndSplineSet
EndChar

StartChar: uni0328
Encoding: 808 808 180
Width: 1200
Flags: HMW
AnchorPoint: "ogonek" -551 0 mark 0
LayerCount: 2
Fore
SplineSet
-533 -308 m 6
 -533 -388 l 6
 -533 -392 -534 -393 -538 -393 c 6
 -578 -393 l 6
 -671 -393 -738 -333 -738 -220 c 4
 -738 -97 -662 -45 -547 38 c 5
 -517 0 l 5
 -604 -68 -650 -105 -650 -196 c 4
 -650 -268 -615 -302 -573 -302 c 6
 -538 -302 l 6
 -534 -302 -533 -304 -533 -308 c 6
EndSplineSet
EndChar

StartChar: uni0312
Encoding: 786 786 181
Width: 0
Flags: HMW
AnchorPoint: "top" -604 950 mark 0
LayerCount: 2
Fore
SplineSet
-522 1462 m 6
 -513 1462 l 6
 -506 1462 -503 1460 -506 1452 c 6
 -573 1240 l 5
 -536 1240 l 6
 -527 1240 -526 1239 -526 1230 c 6
 -526 1021 l 6
 -526 1014 -529 1011 -536 1011 c 6
 -639 1011 l 6
 -646 1011 -649 1014 -649 1021 c 6
 -649 1223 l 6
 -649 1230 -649 1232 -645 1240 c 6
 -539 1452 l 6
 -535 1461 -530 1462 -522 1462 c 6
EndSplineSet
EndChar

StartChar: sterling
Encoding: 163 163 182
Width: 487
VWidth: 1920
Flags: HMW
LayerCount: 2
Fore
SplineSet
59 657 m 10
 59 718 l 18
 59 722 60 722 64 722 c 10
 336 722 l 18
 340 722 341 722 341 718 c 10
 341 657 l 18
 341 653 340 653 336 653 c 10
 64 653 l 18
 60 653 59 653 59 657 c 10
41 90 m 0
 100 156 163 369 163 604 c 0
 163 803 69 907 69 1100 c 0
 69 1306 101 1417 248 1417 c 0
 398 1417 427 1289 428 967 c 0
 428 963 427 963 423 963 c 2
 329 963 l 2
 326 963 324 963 324 967 c 0
 322 1210 324 1334 253 1334 c 0
 183 1334 178 1272 178 1105 c 0
 178 945 262 819 262 606 c 0
 262 382 197 142 137 90 c 1
 436 90 l 2
 440 90 441 88 441 84 c 2
 441 5 l 2
 441 1 440 0 436 0 c 2
 44 0 l 2
 40 0 39 1 39 5 c 2
 39 84 l 2
 39 86 39 88 41 90 c 0
EndSplineSet
EndChar

StartChar: currency
Encoding: 164 164 183
Width: 1045
Flags: HMW
LayerCount: 2
Fore
SplineSet
717 960 m 10
 770 908 l 18
 772 906 772 903 770 901 c 10
 689 819 l 18
 687 817 684 817 682 819 c 10
 629 871 l 18
 627 873 627 877 629 879 c 10
 710 960 l 18
 712 962 715 962 717 960 c 10
353 596 m 10
 406 544 l 18
 408 542 408 538 406 536 c 10
 325 455 l 18
 323 453 320 453 318 455 c 10
 265 507 l 18
 263 509 263 512 265 514 c 10
 346 596 l 18
 348 598 351 598 353 596 c 10
265 908 m 10
 318 960 l 18
 320 962 323 962 325 960 c 10
 406 879 l 18
 408 877 408 873 406 871 c 10
 353 819 l 18
 351 817 348 817 346 819 c 10
 265 901 l 18
 263 903 263 906 265 908 c 10
629 544 m 10
 677 592 l 18
 679 594 687 598 689 596 c 10
 770 514 l 18
 772 512 772 509 770 507 c 10
 717 455 l 18
 715 453 712 453 710 455 c 10
 629 536 l 18
 627 538 627 542 629 544 c 10
273 709 m 0
 273 843 385 954 519 954 c 0
 653 954 763 843 763 709 c 0
 763 575 653 464 519 464 c 0
 385 464 273 575 273 709 c 0
366 709 m 0
 366 621 431 552 519 552 c 0
 607 552 671 621 671 709 c 0
 671 797 607 866 519 866 c 0
 431 866 366 797 366 709 c 0
EndSplineSet
EndChar

StartChar: brokenbar
Encoding: 166 166 184
Width: 395
VWidth: 1920
Flags: HMW
LayerCount: 2
Fore
SplineSet
158 430 m 10
 239 430 l 18
 243 430 244 427 244 420 c 10
 244 -350 l 18
 244 -357 243 -360 239 -360 c 10
 158 -360 l 18
 154 -360 152 -357 152 -350 c 10
 152 420 l 18
 152 427 154 430 158 430 c 10
158 1600 m 10
 239 1600 l 18
 243 1600 244 1597 244 1590 c 10
 244 820 l 18
 244 813 243 810 239 810 c 10
 158 810 l 18
 154 810 152 813 152 820 c 10
 152 1590 l 18
 152 1597 154 1600 158 1600 c 10
EndSplineSet
EndChar

StartChar: section
Encoding: 167 167 185
Width: 561
VWidth: 1920
Flags: HMW
LayerCount: 2
Fore
SplineSet
256 853 m 1
 188 853 144 745 144 627 c 0
 144 473 173 390 264 286 c 0
 377 157 446 77 446 -84 c 0
 446 -272 380 -397 263 -397 c 0
 145 -397 94 -266 87 -54 c 0
 87 -48 88 -45 92 -45 c 2
 168 -45 l 2
 172 -45 173 -48 173 -55 c 0
 180 -185 196 -311 261 -311 c 0
 319 -311 347 -238 347 -107 c 0
 347 25 300 78 222 165 c 0
 88 316 46 449 46 592 c 0
 46 803 130 907 262 907 c 1
 256 853 l 1
304 183 m 1
 372 183 417 290 417 408 c 0
 417 519 388 645 297 749 c 0
 184 878 115 959 115 1120 c 0
 115 1308 181 1433 298 1433 c 0
 416 1433 467 1302 474 1090 c 0
 474 1084 473 1081 469 1081 c 2
 393 1081 l 2
 389 1081 388 1084 388 1091 c 0
 381 1230 365 1346 300 1346 c 0
 242 1346 214 1257 214 1143 c 0
 214 1011 261 958 339 871 c 0
 473 720 515 596 515 444 c 0
 515 233 431 129 299 129 c 1
 304 183 l 1
EndSplineSet
EndChar

StartChar: copyright
Encoding: 169 169 186
Width: 844
Flags: HMW
LayerCount: 2
Fore
SplineSet
537 613 m 0
 537 348 538 240 411 240 c 0
 307 240 296 327 296 466 c 2
 296 876 l 2
 296 1024 323 1102 414 1102 c 0
 533 1102 534 978 534 771 c 0
 534 769 533 768 531 768 c 2
 478 768 l 2
 476 768 475 769 475 771 c 0
 474 981 465 1045 421 1045 c 0
 377 1045 367 990 367 879 c 2
 367 460 l 2
 367 361 371 297 415 297 c 0
 461 297 477 337 478 613 c 0
 478 615 479 616 481 616 c 2
 534 616 l 2
 536 616 537 615 537 613 c 0
769 668 m 0
 769 284 735 -28 421 -28 c 0
 107 -28 75 284 75 668 c 0
 75 1052 107 1366 421 1366 c 0
 735 1366 769 1052 769 668 c 0
723 668 m 0
 723 1006 709 1320 421 1320 c 0
 133 1320 121 1006 121 668 c 0
 121 330 133 18 421 18 c 0
 709 18 723 330 723 668 c 0
EndSplineSet
EndChar

StartChar: registered
Encoding: 174 174 188
Width: 844
Flags: HMW
LayerCount: 2
Fore
SplineSet
386 1065 m 1
 386 723 l 1
 408 723 l 2
 444 723 458 748 458 814 c 2
 458 973 l 2
 458 1039 444 1065 408 1065 c 2
 386 1065 l 1
409 1118 m 2
 491 1118 529 1074 529 968 c 2
 529 831 l 2
 529 724 483 688 409 688 c 1
 409 706 l 1
 484 706 526 684 526 607 c 2
 526 412 l 2
 526 325 535 316 549 296 c 0
 551 292 551 292 551 290 c 2
 551 280 l 2
 551 278 550 278 548 278 c 2
 483 278 l 2
 481 278 480 278 478 280 c 0
 461 309 458 331 458 412 c 2
 458 620 l 2
 458 654 449 674 408 674 c 2
 386 674 l 1
 386 280 l 2
 386 278 385 278 383 278 c 2
 321 278 l 2
 319 278 318 278 318 280 c 2
 318 1114 l 2
 318 1116 319 1118 321 1118 c 2
 409 1118 l 2
769 668 m 0
 769 284 735 -28 421 -28 c 0
 107 -28 75 284 75 668 c 0
 75 1052 107 1366 421 1366 c 0
 735 1366 769 1052 769 668 c 0
723 668 m 0
 723 1006 709 1320 421 1320 c 0
 133 1320 121 1006 121 668 c 0
 121 330 133 18 421 18 c 0
 709 18 723 330 723 668 c 0
EndSplineSet
EndChar

StartChar: dotlessi
Encoding: 305 305 279
Width: 233
VWidth: 960
Flags: HMW
AnchorPoint: "top" 117 1050 basechar 0
LayerCount: 2
Fore
SplineSet
174 1045 m 2
 174 5 l 2
 174 1 173 0 169 0 c 2
 65 0 l 2
 61 0 60 1 60 5 c 2
 60 1045 l 2
 60 1049 61 1050 65 1050 c 2
 169 1050 l 2
 173 1050 174 1049 174 1045 c 2
EndSplineSet
EndChar

StartChar: uni0237
Encoding: 567 567 291
Width: 233
VWidth: 960
Flags: HMW
AnchorPoint: "top" 116 1050 basechar 0
LayerCount: 2
Fore
SplineSet
174 -65 m 2
 174 -178 158 -221 -1 -198 c 0
 -5 -197 -6 -196 -6 -192 c 2
 -6 -128 l 2
 -6 -125 -5 -123 -1 -124 c 0
 53 -133 60 -116 60 -52 c 2
 60 1045 l 2
 60 1049 61 1050 65 1050 c 2
 169 1050 l 2
 173 1050 174 1049 174 1045 c 2
 174 -65 l 2
EndSplineSet
EndChar

StartChar: kgreenlandic
Encoding: 312 312 298
Width: 416
VWidth: 960
Flags: HMW
LayerCount: 2
Fore
SplineSet
65 1050 m 2
 169 1050 l 2
 173 1050 174 1049 174 1045 c 2
 174 5 l 2
 174 1 172 0 169 0 c 2
 65 0 l 2
 61 0 60 1 60 5 c 2
 60 1045 l 2
 60 1049 61 1050 65 1050 c 2
132 417 m 1
 297 1045 l 2
 298 1049 301 1050 305 1050 c 2
 403 1050 l 2
 407 1050 409 1050 407 1045 c 2
 163 352 l 1
 132 417 l 1
210 595 m 1
 268 718 l 1
 423 5 l 2
 424 1 424 0 421 0 c 2
 308 0 l 2
 303 0 301 1 300 5 c 2
 210 595 l 1
EndSplineSet
EndChar

StartChar: grave
Encoding: 96 96 339
Width: 320
VWidth: 0
Flags: HMW
LayerCount: 2
Fore
SplineSet
243 1104 m 2
 184 1104 l 2
 180 1104 176 1109 174 1114 c 2
 30 1390 l 2
 28 1395 26 1400 30 1400 c 2
 157 1400 l 2
 161 1400 163 1397 165 1390 c 2
 245 1114 l 2
 247 1107 247 1104 243 1104 c 2
EndSplineSet
EndChar

StartChar: longs
Encoding: 383 383 352
Width: 273
VWidth: 960
Flags: HMW
LayerCount: 2
Fore
SplineSet
79 1334 m 2
 79 1440 103 1477 233 1461 c 0
 238 1460 239 1459 239 1455 c 2
 239 1391 l 2
 239 1388 237 1385 231 1387 c 0
 197 1395 191 1378 191 1318 c 2
 191 5 l 2
 191 1 189 0 185 0 c 2
 84 0 l 2
 80 0 79 1 79 5 c 2
 79 1334 l 2
EndSplineSet
EndChar

StartChar: uni0259
Encoding: 601 601 359
Width: 407
VWidth: 1800
Flags: HMW
LayerCount: 2
Fore
SplineSet
38 640 m 0
 45 952 51 1068 207 1068 c 0
 347 1068 370 981 370 820 c 2
 370 229 l 2
 370 73 335 -17 199 -17 c 0
 67 -17 40 79 37 200 c 0
 34 333 33 415 33 555 c 0
 33 557 34 559 38 559 c 2
 298 559 l 1
 298 496 l 1
 143 496 l 1
 145 117 145 56 202 56 c 0
 247 56 256 110 256 209 c 2
 256 841 l 2
 256 947 247 993 203 993 c 0
 154 993 146 933 141 638 c 0
 141 636 139 635 135 635 c 2
 42 635 l 2
 38 635 38 637 38 640 c 0
EndSplineSet
EndChar

StartChar: logicalnot
Encoding: 172 172 373
Width: 596
VWidth: 2048
Flags: HMW
LayerCount: 2
Fore
SplineSet
71 624 m 2
 71 702 l 2
 71 709 72 712 76 712 c 2
 522 712 l 2
 526 712 527 709 527 702 c 2
 527 341 l 2
 527 334 526 332 522 332 c 2
 446 332 l 2
 442 332 441 334 441 341 c 2
 441 614 l 1
 76 614 l 2
 72 614 71 617 71 624 c 2
EndSplineSet
EndChar

StartChar: acute
Encoding: 180 180 374
Width: 319
Flags: HMW
LayerCount: 2
Fore
SplineSet
77 1104 m 2
 73 1104 73 1107 75 1114 c 2
 155 1390 l 2
 157 1397 159 1400 163 1400 c 2
 290 1400 l 2
 294 1400 292 1395 290 1390 c 2
 147 1114 l 2
 145 1109 141 1104 137 1104 c 2
 77 1104 l 2
EndSplineSet
EndChar

StartChar: degree
Encoding: 176 176 376
Width: 446
VWidth: 2048
Flags: HMW
LayerCount: 2
Fore
SplineSet
47 1235 m 2
 47 1252 l 2
 47 1351 129 1417 221 1417 c 0
 313 1417 399 1351 399 1252 c 2
 399 1235 l 2
 399 1136 313 1069 221 1069 c 0
 129 1069 47 1136 47 1235 c 2
137 1230 m 2
 137 1173 176 1141 221 1141 c 0
 266 1141 309 1173 309 1230 c 2
 309 1256 l 2
 309 1313 266 1344 221 1344 c 0
 176 1344 137 1313 137 1256 c 2
 137 1230 l 2
EndSplineSet
EndChar

StartChar: plusminus
Encoding: 177 177 377
Width: 575
Flags: HMW
LayerCount: 2
Fore
SplineSet
50 519 m 10
 50 598 l 18
 50 602 52 603 56 603 c 10
 520 603 l 18
 524 603 526 602 526 598 c 10
 526 519 l 18
 526 515 524 513 520 513 c 10
 56 513 l 18
 52 513 50 515 50 519 c 10
50 901 m 10
 50 981 l 18
 50 985 52 985 56 985 c 10
 520 985 l 18
 524 985 526 985 526 981 c 10
 526 901 l 18
 526 897 524 896 520 896 c 10
 56 896 l 18
 52 896 50 897 50 901 c 10
250 1165 m 10
 326 1165 l 18
 330 1165 332 1163 332 1159 c 10
 332 709 l 18
 332 705 330 705 326 705 c 10
 250 705 l 18
 246 705 244 705 244 709 c 10
 244 1159 l 18
 244 1163 246 1165 250 1165 c 10
EndSplineSet
EndChar

StartChar: ae
Encoding: 230 230 379
Width: 597
VWidth: 960
Flags: HMW
LayerCount: 2
Fore
SplineSet
131 248 m 0
 131 112 150 79 178 79 c 0
 208 79 232 165 232 265 c 1
 282 225 l 1
 282 97 241 -18 154 -18 c 0
 75 -18 18 41 18 242 c 0
 18 460 75 525 162 610 c 0
 195 641 232 699 232 743 c 1
 252 663 l 1
 251 632 210 568 191 539 c 0
 150 479 131 417 131 248 c 0
232 195 m 9
 232 862 l 2
 232 940 231 991 196 991 c 0
 160 991 148 919 145 715 c 0
 145 712 143 710 140 710 c 2
 49 710 l 2
 45 710 44 712 44 715 c 0
 47 970 89 1067 207 1067 c 0
 308 1067 306 988 306 831 c 2
 306 194 l 17
 232 195 l 9
560 410 m 0
 552 77 543 -18 399 -18 c 0
 285 -18 264 69 264 230 c 2
 264 821 l 2
 264 977 288 1067 411 1067 c 0
 534 1067 558 969 561 843 c 0
 564 716 564 630 564 495 c 0
 564 493 564 491 560 491 c 2
 299 491 l 1
 299 554 l 1
 454 554 l 1
 452 933 452 994 395 994 c 0
 350 994 341 940 341 841 c 2
 341 209 l 2
 341 103 350 57 394 57 c 0
 443 57 451 117 456 412 c 0
 456 414 458 415 462 415 c 2
 556 415 l 2
 560 415 560 413 560 410 c 0
EndSplineSet
EndChar

StartChar: paragraph
Encoding: 182 182 380
Width: 559
VWidth: 1920
Flags: HMW
LayerCount: 2
Fore
SplineSet
491 1321 m 1
 491 -350 l 2
 491 -357 490 -360 486 -360 c 2
 409 -360 l 2
 405 -360 404 -357 404 -350 c 2
 404 1321 l 1
 342 1321 l 1
 342 -350 l 2
 342 -357 341 -360 337 -360 c 2
 260 -360 l 2
 256 -360 255 -357 255 -350 c 2
 255 575 l 1
 250 575 l 2
 143 575 47 680 47 956 c 2
 47 1020 l 2
 47 1296 143 1400 250 1400 c 2
 540 1400 l 2
 542 1400 544 1397 544 1390 c 2
 544 1331 l 2
 544 1324 544 1321 540 1321 c 2
 491 1321 l 1
EndSplineSet
EndChar

StartChar: guilsinglleft
Encoding: 8249 8249 381
Width: 630
Flags: HMW
LayerCount: 2
Fore
SplineSet
460 247 m 2
 160 499 l 2
 153 503 150 508 150 515 c 2
 150 605 l 2
 150 612 153 617 160 621 c 2
 460 843 l 2
 467 847 470 846 470 839 c 2
 470 754 l 2
 470 747 468 742 460 738 c 2
 214 555 l 1
 460 352 l 2
 468 348 470 343 470 336 c 2
 470 251 l 2
 470 244 467 243 460 247 c 2
EndSplineSet
EndChar

StartChar: guilsinglright
Encoding: 8250 8250 382
Width: 630
Flags: HW
LayerCount: 2
Fore
SplineSet
170 844 m 2
 470 601 l 2
 477 597 480 592 480 585 c 2
 480 495 l 2
 480 488 477 483 470 479 c 2
 170 248 l 2
 163 244 160 245 160 252 c 2
 160 338 l 2
 160 345 162 350 170 354 c 2
 416 545 l 1
 170 739 l 2
 162 743 160 748 160 755 c 2
 160 840 l 2
 160 847 163 848 170 844 c 2
EndSplineSet
EndChar

StartChar: mu
Encoding: 181 181 385
Width: 409
VWidth: 1920
Flags: HW
LayerCount: 2
Fore
SplineSet
56 1050 m 2
 150 1050 l 2
 157 1050 160 1047 160 1040 c 2
 160 -350 l 2
 160 -357 157 -360 150 -360 c 2
 56 -360 l 2
 49 -360 46 -357 46 -350 c 2
 46 1040 l 2
 46 1047 49 1050 56 1050 c 2
354 0 m 2
 255 0 l 2
 251 0 250 1 250 5 c 2
 250 116 l 1
 245 129 l 1
 245 1045 l 2
 245 1049 246 1050 250 1050 c 2
 354 1050 l 2
 358 1050 358 1049 358 1045 c 2
 358 5 l 2
 358 1 358 0 354 0 c 2
261 174 m 1
 261 63 241 -18 197 -18 c 0
 161 -18 98 43 98 150 c 2
 98 1045 l 2
 98 1049 64 1050 68 1050 c 2
 155 1050 l 2
 159 1050 160 1049 160 1045 c 2
 160 153 l 2
 160 94 167 60 199 60 c 0
 235 60 245 118 245 223 c 1
 261 174 l 1
EndSplineSet
EndChar

StartChar: Eth
Encoding: 208 208 387
Width: 506
VWidth: 1920
Flags: HW
LayerCount: 2
Fore
SplineSet
2 673 m 10
 2 752 l 18
 2 756 2 757 6 757 c 10
 282 757 l 18
 286 757 286 756 286 752 c 10
 286 673 l 18
 286 669 286 668 282 668 c 10
 6 668 l 18
 2 668 2 669 2 673 c 10
EndSplineSet
Refer: 15 68 N 1 0 0 1 0 0 2
EndChar

StartChar: Dcroat
Encoding: 272 272 388
Width: 506
VWidth: 1920
Flags: HW
LayerCount: 2
Fore
SplineSet
2 673 m 10
 2 752 l 18
 2 756 2 757 6 757 c 10
 283 757 l 18
 287 757 287 756 287 752 c 10
 287 673 l 18
 287 669 287 668 283 668 c 10
 6 668 l 18
 2 668 2 669 2 673 c 10
EndSplineSet
Refer: 15 68 N 1 0 0 1 0 0 2
EndChar

StartChar: thorn
Encoding: 254 254 389
Width: 441
VWidth: 960
Flags: HW
LayerCount: 2
Fore
SplineSet
57 1450 m 2
 161 1450 l 2
 165 1450 166 1449 166 1445 c 2
 166 -355 l 2
 166 -359 164 -360 160 -360 c 2
 57 -360 l 2
 53 -360 51 -359 51 -355 c 2
 51 1445 l 2
 51 1449 53 1450 57 1450 c 2
139 846 m 1
 139 991 180 1068 261 1068 c 0
 348 1068 399 996 399 826 c 2
 399 223 l 2
 399 53 348 -17 261 -17 c 0
 180 -17 139 60 139 205 c 1
 166 205 l 1
 166 106 170 65 224 65 c 0
 274 65 286 113 286 212 c 2
 286 839 l 2
 286 938 274 985 224 985 c 0
 170 985 166 945 166 846 c 1
 139 846 l 1
EndSplineSet
EndChar

StartChar: Thorn
Encoding: 222 222 390
Width: 456
VWidth: 1800
Flags: HW
LayerCount: 2
Fore
SplineSet
211 1136 m 2
 335 1136 408 1093 408 878 c 2
 408 612 l 2
 408 396 335 354 215 354 c 2
 192 354 l 1
 192 9 l 2
 192 2 190 0 183 0 c 2
 88 0 l 2
 81 0 79 2 79 9 c 2
 79 1391 l 2
 79 1398 81 1400 88 1400 c 2
 183 1400 l 2
 190 1400 192 1398 192 1391 c 2
 192 1136 l 1
 211 1136 l 2
192 435 m 1
 211 435 l 2
 274 435 294 484 294 595 c 2
 294 889 l 2
 294 1000 274 1049 211 1049 c 2
 192 1049 l 1
 192 435 l 1
EndSplineSet
EndChar

StartChar: divide
Encoding: 247 247 391
Width: 581
VWidth: 2048
Flags: HW
LayerCount: 2
Fore
SplineSet
12 656 m 10
 12 729 l 18
 12 733 13 734 17 734 c 10
 564 734 l 18
 568 734 569 733 569 729 c 10
 569 656 l 18
 569 652 568 651 564 651 c 10
 17 651 l 18
 13 651 12 652 12 656 c 10
EndSplineSet
Refer: 1 46 N 1 0 0 1 146 927 2
Refer: 1 46 S 1 0 0 1 146 225 2
EndChar

StartChar: multiply
Encoding: 215 215 392
Width: 588
VWidth: 1920
Flags: HW
LayerCount: 2
Fore
SplineSet
487 569 m 10
 438 520 l 18
 436 518 433 518 431 520 c 10
 102 849 l 18
 100 851 100 854 102 856 c 10
 151 905 l 18
 153 907 156 907 158 905 c 10
 487 576 l 18
 489 574 489 571 487 569 c 10
151 520 m 10
 102 569 l 18
 100 571 100 574 102 576 c 10
 431 905 l 18
 433 907 436 907 438 905 c 10
 487 856 l 18
 489 854 489 851 487 849 c 10
 158 520 l 18
 156 518 153 518 151 520 c 10
EndSplineSet
EndChar

StartChar: Oslash
Encoding: 216 216 393
Width: 502
VWidth: 1920
Flags: HW
LayerCount: 2
Fore
SplineSet
335 1478 m 2
 362 1471 l 2
 364 1470 364 1467 364 1464 c 2
 144 -76 l 2
 144 -79 140 -79 137 -78 c 2
 110 -71 l 2
 107 -70 108 -67 108 -64 c 2
 328 1476 l 2
 328 1479 331 1479 335 1478 c 2
EndSplineSet
Refer: 26 79 N 1 0 0 1 0 0 2
EndChar

StartChar: oslash
Encoding: 248 248 394
Width: 418
VWidth: 1920
Flags: HW
LayerCount: 2
Fore
SplineSet
307 1198 m 2
 334 1191 l 2
 336 1190 336 1187 336 1184 c 2
 116 -76 l 2
 116 -79 112 -79 109 -78 c 2
 82 -71 l 2
 79 -70 80 -67 80 -64 c 2
 300 1196 l 2
 300 1199 303 1199 307 1198 c 2
EndSplineSet
Refer: 52 111 N 1 0 0 1 0 0 2
EndChar

StartChar: germandbls
Encoding: 223 223 396
Width: 482
VWidth: 1920
Flags: HW
LayerCount: 2
Fore
SplineSet
61 1192 m 2
 61 1366 88 1484 201 1484 c 0
 331 1484 365 1370 365 1212 c 0
 365 1020 335 951 335 830 c 0
 335 618 444 573 444 313 c 0
 444 91 392 -33 240 -33 c 0
 236 -33 235 -32 235 -24 c 2
 235 63 l 2
 235 71 236 73 240 73 c 0
 294 74 334 135 334 311 c 0
 334 549 226 574 226 834 c 0
 226 978 256 1082 256 1208 c 0
 256 1314 241 1388 207 1388 c 0
 174 1388 173 1298 173 1171 c 2
 173 9 l 2
 173 2 172 0 168 0 c 2
 66 0 l 2
 62 0 61 2 61 9 c 2
 61 1192 l 2
EndSplineSet
EndChar

StartChar: eth
Encoding: 240 240 397
Width: 425
VWidth: 1920
Flags: HW
LayerCount: 2
Fore
SplineSet
178 1221 m 10
 154 1260 l 18
 152 1263 154 1264 157 1266 c 10
 362 1401 l 18
 365 1403 367 1402 369 1399 c 10
 393 1362 l 18
 395 1359 393 1358 390 1356 c 10
 184 1219 l 18
 181 1217 180 1218 178 1221 c 10
203 982 m 0
 152 982 147 897 147 793 c 2
 147 249 l 2
 147 147 160 68 216 68 c 0
 271 68 280 155 280 237 c 2
 280 873 l 2
 280 1232 236 1357 95 1417 c 0
 90 1419 89 1421 91 1425 c 2
 130 1488 l 2
 132 1492 134 1493 140 1491 c 0
 330 1417 392 1212 392 956 c 2
 392 269 l 2
 392 117 367 -17 211 -17 c 0
 74 -17 33 90 33 229 c 2
 33 807 l 2
 33 944 51 1067 164 1067 c 0
 254 1067 309 952 309 855 c 1
 280 766 l 1
 280 825 l 2
 280 915 245 982 203 982 c 0
EndSplineSet
EndChar

StartChar: dcroat
Encoding: 273 273 398
Width: 441
VWidth: 1920
Flags: HW
LayerCount: 2
Fore
SplineSet
185 1196 m 10
 185 1271 l 18
 185 1275 185 1276 189 1276 c 10
 475 1276 l 18
 479 1276 479 1275 479 1271 c 10
 479 1196 l 18
 479 1192 479 1191 475 1191 c 10
 189 1191 l 18
 185 1191 185 1192 185 1196 c 10
EndSplineSet
Refer: 41 100 N 1 0 0 1 0 0 2
EndChar

StartChar: Hbar
Encoding: 294 294 399
Width: 505
VWidth: 1920
Flags: HW
LayerCount: 2
Fore
SplineSet
9 1083 m 10
 9 1152 l 18
 9 1156 10 1157 14 1157 c 10
 491 1157 l 18
 495 1157 496 1156 496 1152 c 10
 496 1083 l 18
 496 1079 495 1078 491 1078 c 10
 14 1078 l 18
 10 1078 9 1079 9 1083 c 10
EndSplineSet
Refer: 19 72 N 1 0 0 1 0 0 2
EndChar

StartChar: hbar
Encoding: 295 295 400
Width: 426
VWidth: 1920
Flags: HW
LayerCount: 2
Fore
SplineSet
2 1225 m 10
 2 1294 l 18
 2 1298 2 1299 6 1299 c 10
 258 1299 l 18
 262 1299 262 1298 262 1294 c 10
 262 1225 l 18
 262 1221 262 1220 258 1220 c 10
 6 1220 l 18
 2 1220 2 1221 2 1225 c 10
EndSplineSet
Refer: 45 104 N 1 0 0 1 0 0 2
EndChar

StartChar: Lslash
Encoding: 321 321 405
Width: 349
VWidth: 1920
Flags: HW
LayerCount: 2
Fore
SplineSet
258 965 m 2
 273 939 l 2
 275 936 274 934 271 932 c 2
 19 786 l 2
 16 784 14 785 12 788 c 2
 -3 814 l 2
 -5 817 -4 819 -1 821 c 2
 251 967 l 2
 254 969 256 968 258 965 c 2
EndSplineSet
Refer: 23 76 N 1 0 0 1 0 0 2
EndChar

StartChar: lslash
Encoding: 322 322 406
Width: 233
VWidth: 1920
Flags: HW
LayerCount: 2
Fore
SplineSet
248 965 m 2
 263 939 l 2
 265 936 264 934 261 932 c 2
 8 786 l 2
 5 784 3 785 1 788 c 2
 -14 814 l 2
 -16 817 -15 819 -12 821 c 2
 241 967 l 2
 244 969 246 968 248 965 c 2
EndSplineSet
Refer: 49 108 N 1 0 0 1 0 0 2
EndChar

StartChar: eng
Encoding: 331 331 408
Width: 409
VWidth: 960
Flags: HW
LayerCount: 2
Fore
SplineSet
57 1050 m 2
 156 1050 l 2
 160 1050 160 1049 160 1045 c 2
 160 934 l 1
 166 921 l 1
 166 5 l 2
 166 1 164 0 160 0 c 2
 57 0 l 2
 53 0 51 1 51 5 c 2
 51 1045 l 2
 51 1049 53 1050 57 1050 c 2
364 -65 m 2
 364 -178 348 -221 189 -198 c 0
 185 -197 184 -196 184 -192 c 2
 184 -128 l 2
 184 -125 185 -123 189 -124 c 0
 243 -133 250 -116 250 -52 c 2
 250 898 l 2
 250 957 242 990 210 990 c 0
 174 990 166 933 166 828 c 1
 149 877 l 1
 149 988 170 1067 255 1067 c 0
 333 1067 364 1008 364 901 c 2
 364 -65 l 2
EndSplineSet
EndChar

StartChar: Eng
Encoding: 330 330 409
Width: 502
VWidth: 960
Flags: HW
LayerCount: 2
Fore
SplineSet
341 1400 m 2
 429 1400 l 2
 433 1400 434 1399 434 1395 c 1
 434 -65 l 2
 434 -178 418 -221 259 -198 c 0
 255 -197 254 -196 254 -192 c 2
 254 -128 l 2
 254 -125 255 -123 259 -124 c 0
 313 -133 320 -116 320 -52 c 2
 320 217 l 1
 166 1065 l 1
 166 5 l 2
 166 1 165 0 161 0 c 2
 74 0 l 2
 70 0 69 1 69 5 c 2
 69 1395 l 2
 69 1399 70 1400 74 1400 c 2
 184 1400 l 2
 188 1400 190 1399 193 1395 c 2
 336 559 l 1
 336 1395 l 2
 336 1399 337 1400 341 1400 c 2
EndSplineSet
EndChar

StartChar: oe
Encoding: 339 339 410
Width: 636
VWidth: 960
Flags: HW
LayerCount: 2
Fore
SplineSet
38 230 m 2
 38 821 l 2
 38 972 73 1067 202 1067 c 0
 336 1067 346 972 346 821 c 2
 346 230 l 2
 346 79 336 -18 202 -18 c 0
 73 -18 38 79 38 230 c 2
153 209 m 2
 153 118 159 57 209 57 c 0
 259 57 264 118 264 209 c 2
 264 841 l 2
 264 932 259 994 209 994 c 0
 159 994 153 932 153 841 c 2
 153 209 l 2
599 410 m 0
 592 101 586 -18 434 -18 c 0
 295 -18 293 69 293 230 c 2
 293 821 l 2
 293 977 307 1067 441 1067 c 0
 571 1067 596 972 600 851 c 0
 604 722 604 634 604 495 c 0
 604 493 603 491 599 491 c 2
 338 491 l 1
 338 554 l 1
 493 554 l 1
 491 933 491 994 434 994 c 0
 389 994 381 940 381 841 c 2
 381 209 l 2
 381 103 389 57 433 57 c 0
 482 57 490 117 495 412 c 0
 495 414 497 415 501 415 c 2
 595 415 l 2
 599 415 599 413 599 410 c 0
EndSplineSet
EndChar

StartChar: OE
Encoding: 338 338 411
Width: 675
VWidth: 1920
Flags: HW
LayerCount: 2
Fore
SplineSet
277 1400 m 2
 422 1400 l 2
 426 1400 428 1399 428 1395 c 2
 428 5 l 2
 428 1 426 0 422 0 c 2
 277 0 l 2
 101 0 47 124 47 382 c 2
 47 1026 l 2
 47 1284 81 1400 277 1400 c 2
274 1312 m 2
 190 1312 166 1237 166 1031 c 2
 166 378 l 2
 166 172 190 88 274 88 c 2
 314 88 l 1
 314 1312 l 1
 274 1312 l 2
EndSplineSet
Refer: 16 69 N 1 0 0 1 235 0 2
EndChar

StartChar: Tbar
Encoding: 358 358 413
Width: 405
VWidth: 1920
Flags: HW
LayerCount: 2
Fore
SplineSet
-1 660 m 10
 -1 723 l 18
 -1 727 1 728 5 728 c 10
 386 728 l 18
 390 728 392 727 392 723 c 10
 392 660 l 18
 392 656 390 655 386 655 c 10
 5 655 l 18
 1 655 -1 656 -1 660 c 10
EndSplineSet
Refer: 31 84 N 1 0 0 1 0 0 2
EndChar

StartChar: tbar
Encoding: 359 359 414
Width: 287
VWidth: 1920
Flags: HW
LayerCount: 2
Fore
SplineSet
15 590 m 10
 15 653 l 18
 15 657 16 658 20 658 c 10
 255 658 l 18
 259 658 260 657 260 653 c 10
 260 590 l 18
 260 586 259 585 255 585 c 10
 20 585 l 18
 16 585 15 586 15 590 c 10
EndSplineSet
Refer: 57 116 N 1 0 0 1 0 0 2
EndChar

StartChar: uni0394
Encoding: 916 916 430
Width: 455
VWidth: 960
Flags: HW
LayerCount: 2
Fore
SplineSet
21 0 m 2
 17 0 17 2 18 5 c 2
 150 1395 l 2
 151 1398 152 1400 156 1400 c 2
 290 1400 l 2
 294 1400 295 1398 296 1395 c 2
 438 5 l 2
 439 2 439 0 435 0 c 2
 21 0 l 2
123 81 m 1
 312 81 l 1
 215 1250 l 1
 123 81 l 1
EndSplineSet
EndChar

StartChar: uni03A9
Encoding: 937 937 431
Width: 556
VWidth: 1920
Flags: HW
LayerCount: 2
Fore
SplineSet
293 98 m 0
 359 200 361 310 361 488 c 2
 361 1053 l 2
 361 1238 347 1334 252 1334 c 0
 157 1334 143 1238 143 1053 c 2
 143 488 l 2
 143 310 144 200 212 98 c 0
 216 92 220 94 220 88 c 2
 220 5 l 2
 220 1 220 0 216 0 c 2
 32 0 l 2
 28 0 26 1 26 5 c 2
 26 84 l 2
 26 88 28 90 32 90 c 2
 139 90 l 1
 55 203 24 326 24 512 c 2
 24 1054 l 2
 24 1291 67 1417 252 1417 c 0
 437 1417 480 1291 480 1054 c 2
 480 512 l 2
 480 326 446 203 364 90 c 1
 472 90 l 2
 476 90 476 88 476 84 c 2
 476 5 l 2
 476 1 476 0 472 0 c 2
 289 0 l 2
 285 0 283 1 283 5 c 2
 283 88 l 2
 283 94 288 91 293 98 c 0
EndSplineSet
EndChar

StartChar: pi
Encoding: 960 960 432
Width: 473
VWidth: 1920
Flags: HW
LayerCount: 2
Fore
SplineSet
186 1020 m 2
 186 5 l 2
 186 1 185 0 181 0 c 2
 77 0 l 2
 73 0 72 1 72 5 c 2
 72 1020 l 2
 72 1024 73 1025 77 1025 c 2
 181 1025 l 2
 185 1025 186 1024 186 1020 c 2
463 72 m 2
 463 5 l 2
 463 1 463 -1 459 -1 c 0
 303 -21 257 22 257 132 c 2
 257 1006 l 2
 257 1010 258 1011 262 1011 c 2
 363 1011 l 2
 367 1011 369 1010 369 1006 c 2
 369 145 l 2
 369 82 387 68 459 77 c 0
 462 77 463 75 463 72 c 2
10 965 m 10
 10 1045 l 18
 10 1049 11 1050 15 1050 c 10
 434 1050 l 18
 438 1050 439 1049 439 1045 c 10
 439 965 l 18
 439 961 438 960 434 960 c 10
 15 960 l 18
 11 960 10 961 10 965 c 10
EndSplineSet
EndChar

StartChar: minute
Encoding: 8242 8242 433
Width: 221
VWidth: 1920
Flags: HW
LayerCount: 2
Fore
SplineSet
62 930 m 2
 30 930 l 2
 26 930 25 934 26 940 c 2
 81 1410 l 2
 82 1417 83 1420 87 1420 c 2
 196 1420 l 2
 200 1420 202 1416 200 1410 c 2
 70 940 l 2
 69 934 66 930 62 930 c 2
EndSplineSet
EndChar

StartChar: Euro
Encoding: 8364 8364 435
Width: 511
VWidth: 1920
Flags: HW
LayerCount: 2
Fore
SplineSet
-33 576 m 10
 -33 634 l 18
 -33 638 -32 639 -28 639 c 10
 265 639 l 18
 269 639 270 638 270 634 c 10
 270 576 l 18
 270 572 269 571 265 571 c 10
 -28 571 l 18
 -32 571 -33 572 -33 576 c 10
-33 751 m 10
 -33 809 l 18
 -33 813 -32 814 -28 814 c 10
 265 814 l 18
 269 814 270 813 270 809 c 10
 270 751 l 18
 270 747 269 746 265 746 c 10
 -28 746 l 18
 -32 746 -33 747 -33 751 c 10
449 366 m 0
 449 210 443 -18 238 -18 c 0
 65 -18 47 127 47 358 c 2
 47 1042 l 2
 47 1290 91 1418 243 1418 c 0
 442 1418 443 1256 443 1114 c 0
 443 1110 442 1110 438 1110 c 2
 351 1110 l 2
 347 1110 346 1110 346 1114 c 0
 345 1254 328 1323 255 1323 c 0
 182 1323 166 1231 166 1046 c 2
 166 349 l 2
 166 183 172 77 246 77 c 0
 322 77 350 191 351 366 c 0
 351 370 352 370 356 370 c 2
 444 370 l 2
 448 370 449 370 449 366 c 0
EndSplineSet
EndChar

StartChar: uni2116
Encoding: 8470 8470 436
Width: 799
VWidth: 1920
Flags: HW
LayerCount: 2
Fore
SplineSet
506 5 m 10
 506 78 l 18
 506 82 506 83 510 83 c 10
 749 83 l 18
 753 83 754 82 754 78 c 10
 754 5 l 18
 754 1 753 0 749 0 c 10
 510 0 l 18
 506 0 506 1 506 5 c 10
EndSplineSet
Refer: 132 8304 N 1 0 0 1 459 -295 2
Refer: 25 78 N 1 0 0 1 0 0 2
EndChar

StartChar: trademark
Encoding: 8482 8482 437
Width: 682
VWidth: 1920
Flags: HW
LayerCount: 2
Fore
SplineSet
39 1400 m 2
 273 1400 l 2
 275 1400 276 1398 276 1394 c 2
 276 1340 l 2
 276 1336 275 1334 273 1334 c 2
 194 1334 l 1
 194 566 l 2
 194 562 194 560 192 560 c 2
 120 560 l 2
 118 560 118 562 118 566 c 2
 118 1334 l 1
 39 1334 l 2
 37 1334 36 1336 36 1340 c 2
 36 1394 l 2
 36 1398 37 1400 39 1400 c 2
388 1275 m 1
 388 566 l 2
 388 562 387 560 385 560 c 2
 330 560 l 2
 328 560 327 562 327 566 c 2
 327 1394 l 2
 327 1398 328 1400 330 1400 c 2
 424 1400 l 2
 426 1400 427 1398 428 1394 c 2
 492 854 l 1
 549 1394 l 2
 550 1398 551 1400 553 1400 c 2
 643 1400 l 2
 645 1400 646 1398 646 1394 c 2
 646 566 l 2
 646 562 645 560 643 560 c 2
 578 560 l 2
 576 560 575 562 575 566 c 2
 575 1221 l 1
 501 566 l 2
 500 562 499 560 497 560 c 2
 471 560 l 2
 469 560 468 562 467 566 c 2
 388 1275 l 1
EndSplineSet
EndChar

StartChar: partialdiff
Encoding: 8706 8706 438
Width: 450
VWidth: 1920
Flags: HW
LayerCount: 2
Fore
SplineSet
215 802 m 0
 161 802 156 749 156 664 c 2
 156 200 l 2
 156 116 165 70 224 70 c 0
 281 70 288 154 288 235 c 2
 288 792 l 2
 288 1184 245 1323 104 1383 c 0
 99 1385 98 1386 100 1390 c 2
 136 1451 l 2
 138 1455 138 1456 145 1454 c 0
 338 1381 399 1195 399 755 c 2
 399 268 l 2
 399 116 383 -18 220 -18 c 0
 81 -18 42 53 42 185 c 2
 42 671 l 2
 42 801 63 886 178 886 c 0
 294 886 318 821 318 724 c 1
 288 635 l 1
 288 693 l 2
 288 778 265 802 215 802 c 0
EndSplineSet
EndChar

StartChar: summation
Encoding: 8721 8721 439
Width: 450
VWidth: 1920
Flags: HW
LayerCount: 2
Fore
SplineSet
370 506 m 2
 180 -259 l 1
 402 -259 l 2
 406 -259 406 -262 406 -269 c 2
 406 -351 l 2
 406 -358 406 -360 402 -360 c 2
 39 -360 l 2
 35 -360 35 -358 38 -351 c 2
 263 520 l 1
 38 1391 l 2
 35 1398 35 1400 39 1400 c 2
 402 1400 l 2
 406 1400 406 1398 406 1391 c 2
 406 1309 l 2
 406 1302 406 1299 402 1299 c 2
 180 1299 l 1
 370 534 l 2
 374 523 374 517 370 506 c 2
EndSplineSet
EndChar

StartChar: minus
Encoding: 8722 8722 440
Width: 584
Flags: HW
LayerCount: 2
Fore
SplineSet
65 243 m 10
 65 323 l 18
 65 327 66 328 70 328 c 10
 515 328 l 18
 519 328 520 327 520 323 c 10
 520 243 l 18
 520 239 519 238 515 238 c 10
 70 238 l 18
 66 238 65 239 65 243 c 10
EndSplineSet
EndChar

StartChar: integral
Encoding: 8747 8747 441
Width: 256
VWidth: 960
Flags: HW
LayerCount: 2
Fore
SplineSet
174 -65 m 2
 174 -178 158 -221 0 -198 c 0
 -4 -197 -5 -196 -5 -192 c 2
 -5 -128 l 2
 -5 -125 -4 -123 0 -124 c 0
 54 -133 62 -116 62 -52 c 2
 62 1334 l 2
 62 1440 86 1477 216 1461 c 0
 221 1460 222 1459 222 1455 c 2
 222 1391 l 2
 222 1388 220 1385 214 1387 c 0
 180 1395 174 1378 174 1318 c 2
 174 -65 l 2
EndSplineSet
EndChar

StartChar: radical
Encoding: 8730 8730 443
Width: 468
VWidth: 1920
Flags: HMW
LayerCount: 2
Fore
SplineSet
217 1050 m 2
 221 1050 223 1046 224 1040 c 2
 285 339 l 1
 336 1591 l 2
 336 1598 337 1600 341 1600 c 2
 434 1600 l 2
 438 1600 440 1597 439 1591 c 2
 296 -144 l 2
 295 -151 295 -152 293 -144 c 2
 151 949 l 1
 80 949 l 2
 76 949 75 952 75 959 c 2
 75 1040 l 2
 75 1047 76 1050 80 1050 c 2
 217 1050 l 2
EndSplineSet
EndChar

StartChar: infinity
Encoding: 8734 8734 444
Width: 698
VWidth: 1414
Flags: HMW
LayerCount: 2
Fore
SplineSet
190 483 m 0
 89 483 29 568 29 665 c 0
 29 762 89 845 190 845 c 0
 271 845 319 791 350 715 c 1
 381 791 428 845 509 845 c 0
 610 845 669 762 669 665 c 0
 669 568 610 483 509 483 c 0
 428 483 371 537 350 614 c 1
 318 537 271 483 190 483 c 0
203 568 m 0
 246 568 285 606 312 665 c 1
 287 723 246 762 203 762 c 0
 154 762 120 726 120 665 c 0
 120 605 154 568 203 568 c 0
496 568 m 0
 545 568 578 605 578 665 c 0
 578 726 545 762 496 762 c 0
 454 762 413 723 388 665 c 1
 403 607 454 568 496 568 c 0
EndSplineSet
EndChar

StartChar: product
Encoding: 8719 8719 445
Width: 591
VWidth: 1920
Flags: HW
LayerCount: 2
Fore
SplineSet
516 1400 m 2
 520 1400 521 1398 521 1391 c 2
 521 9 l 2
 521 2 520 0 516 0 c 2
 412 0 l 2
 408 0 408 2 408 9 c 2
 408 1299 l 1
 184 1299 l 1
 184 9 l 2
 184 2 183 0 179 0 c 2
 75 0 l 2
 71 0 70 2 70 9 c 2
 70 1391 l 18
 70 1398 71 1400 75 1400 c 10
 516 1400 l 2
EndSplineSet
EndChar

StartChar: uni2219
Encoding: 8729 8729 446
Width: 270
Flags: HW
LayerCount: 2
Fore
SplineSet
56 675 m 0
 56 722 88 755 135 755 c 0
 182 755 215 722 215 675 c 0
 215 628 185 595 138 595 c 0
 91 595 56 628 56 675 c 0
EndSplineSet
EndChar

StartChar: approxequal
Encoding: 8776 8776 447
Width: 583
VWidth: 1298
Flags: HW
LayerCount: 2
Fore
SplineSet
206 580 m 0
 165 580 152 552 150 536 c 0
 150 533 148 532 145 532 c 2
 74 532 l 2
 70 532 68 533 68 536 c 0
 70 608 126 669 200 669 c 0
 287 669 315 608 378 608 c 0
 419 608 432 635 434 651 c 0
 434 654 436 656 439 656 c 2
 510 656 l 2
 514 656 515 655 515 651 c 0
 513 579 460 518 385 518 c 0
 298 518 279 580 206 580 c 0
206 393 m 0
 165 393 152 366 150 350 c 0
 150 347 148 345 145 345 c 2
 74 345 l 2
 70 345 68 347 68 350 c 0
 70 422 126 482 200 482 c 0
 287 482 315 422 378 422 c 0
 419 422 432 448 434 464 c 0
 434 467 436 470 439 470 c 2
 510 470 l 2
 514 470 515 468 515 464 c 0
 513 392 463 332 388 332 c 0
 301 332 279 393 206 393 c 0
EndSplineSet
EndChar

StartChar: notequal
Encoding: 8800 8800 448
Width: 537
VWidth: 1920
Flags: HW
LayerCount: 2
Fore
SplineSet
483 736 m 2
 504 715 l 2
 506 713 506 710 504 708 c 2
 80 262 l 2
 78 260 76 260 74 262 c 2
 52 284 l 2
 50 286 50 288 52 290 c 2
 476 736 l 2
 478 738 481 738 483 736 c 2
EndSplineSet
Refer: 83 61 S 1 0 0 1 0 0 2
EndChar

StartChar: lessequal
Encoding: 8804 8804 449
Width: 517
VWidth: 1920
Flags: HW
LayerCount: 2
Fore
SplineSet
57 350 m 10
 57 427 l 18
 57 431 58 432 62 432 c 10
 450 432 l 18
 454 432 455 431 455 427 c 10
 455 350 l 18
 455 346 454 345 450 345 c 10
 62 345 l 18
 58 345 57 346 57 350 c 10
EndSplineSet
Refer: 84 60 N 1 0 0 1 5 160 2
EndChar

StartChar: greaterequal
Encoding: 8805 8805 450
Width: 517
VWidth: 1920
Flags: HW
LayerCount: 2
Fore
SplineSet
55 350 m 10
 55 427 l 18
 55 431 56 432 60 432 c 10
 448 432 l 18
 452 432 453 431 453 427 c 10
 453 350 l 18
 453 346 452 345 448 345 c 10
 60 345 l 18
 56 345 55 346 55 350 c 10
EndSplineSet
Refer: 85 62 N 1 0 0 1 -5 160 2
EndChar

StartChar: lozenge
Encoding: 9674 9674 451
Width: 641
Flags: HW
LayerCount: 2
Fore
SplineSet
326 40 m 2
 73 702 l 2
 69 710 69 714 73 722 c 2
 326 1382 l 2
 331 1391 333 1392 338 1382 c 2
 568 722 l 2
 572 714 572 710 568 702 c 2
 338 40 l 2
 333 30 331 31 326 40 c 2
326 323 m 1
 450 712 l 1
 326 1101 l 1
 191 712 l 1
 326 323 l 1
EndSplineSet
EndChar

StartChar: uniF8EA
Encoding: 63722 63722 452
Width: 553
VWidth: 1582
Flags: HW
LayerCount: 2
Fore
SplineSet
39 1400 m 2
 236 1400 l 2
 237 1400 238 1399 238 1398 c 2
 238 1365 l 2
 238 1364 237 1363 236 1363 c 2
 160 1363 l 1
 160 1150 l 2
 160 1149 159 1148 158 1148 c 2
 116 1148 l 2
 115 1148 114 1149 114 1150 c 2
 114 1363 l 1
 39 1363 l 2
 38 1363 37 1364 37 1365 c 2
 37 1398 l 2
 37 1399 38 1400 39 1400 c 2
305 1345 m 1
 305 1150 l 2
 305 1149 304 1148 303 1148 c 2
 269 1148 l 2
 268 1148 267 1149 267 1150 c 2
 267 1398 l 2
 267 1399 268 1400 269 1400 c 2
 326 1400 l 2
 327 1400 328 1399 328 1398 c 2
 395 1230 l 1
 464 1398 l 2
 464 1399 465 1400 466 1400 c 2
 514 1400 l 2
 515 1400 516 1399 516 1398 c 2
 516 1150 l 2
 516 1149 515 1148 514 1148 c 2
 476 1148 l 2
 475 1148 474 1149 474 1150 c 2
 474 1330 l 1
 401 1150 l 2
 401 1149 400 1148 399 1148 c 2
 383 1148 l 2
 382 1148 380 1149 380 1150 c 2
 305 1345 l 1
EndSplineSet
EndChar

StartChar: uniF8E8
Encoding: 63720 63720 453
Width: 492
VWidth: 1569
Flags: HW
LayerCount: 2
Fore
SplineSet
190 1312 m 1
 190 1231 l 1
 255 1231 l 2
 284 1231 299 1243 299 1264 c 2
 299 1278 l 2
 299 1299 284 1312 255 1312 c 2
 190 1312 l 1
257 1342 m 2
 306 1342 341 1320 341 1277 c 2
 341 1273 l 2
 341 1230 305 1210 257 1210 c 1
 257 1222 l 1
 305 1222 340 1208 340 1165 c 2
 340 1150 l 2
 340 1130 346 1114 354 1102 c 0
 356 1100 355 1099 355 1098 c 2
 355 1092 l 2
 355 1090 356 1090 354 1090 c 2
 314 1090 l 2
 312 1090 312 1090 311 1092 c 0
 301 1110 299 1134 299 1150 c 2
 299 1170 l 2
 299 1191 284 1203 255 1203 c 2
 190 1203 l 1
 190 1092 l 2
 190 1090 190 1090 188 1090 c 2
 151 1090 l 2
 149 1090 149 1090 149 1092 c 2
 149 1340 l 2
 149 1342 149 1342 151 1342 c 2
 257 1342 l 2
455 1207 m 0
 455 1092 360 999 245 999 c 0
 130 999 37 1092 37 1207 c 0
 37 1322 130 1417 245 1417 c 0
 360 1417 455 1322 455 1207 c 0
429 1207 m 0
 429 1309 347 1391 245 1391 c 0
 143 1391 63 1309 63 1207 c 0
 63 1105 143 1025 245 1025 c 0
 347 1025 429 1105 429 1207 c 0
EndSplineSet
EndChar

StartChar: uniF8E9
Encoding: 63721 63721 454
Width: 492
VWidth: 1569
Flags: HW
LayerCount: 2
Fore
SplineSet
350 1174 m 0
 346 1121 312 1076 244 1076 c 0
 172 1076 135 1125 135 1193 c 2
 135 1223 l 2
 135 1291 172 1341 244 1341 c 0
 312 1341 342 1300 344 1255 c 0
 344 1253 345 1253 343 1253 c 2
 311 1253 l 2
 309 1253 309 1253 309 1255 c 0
 309 1287 284 1310 247 1310 c 0
 203 1310 178 1272 178 1225 c 2
 178 1191 l 2
 178 1144 199 1106 247 1106 c 0
 287 1106 315 1137 315 1174 c 0
 315 1176 315 1175 317 1175 c 2
 348 1175 l 2
 350 1175 350 1176 350 1174 c 0
455 1207 m 0
 455 1092 360 999 245 999 c 0
 130 999 37 1092 37 1207 c 0
 37 1322 130 1417 245 1417 c 0
 360 1417 455 1322 455 1207 c 0
429 1207 m 0
 429 1309 347 1391 245 1391 c 0
 143 1391 63 1309 63 1207 c 0
 63 1105 143 1025 245 1025 c 0
 347 1025 429 1105 429 1207 c 0
EndSplineSet
EndChar

StartChar: uni1E9E
Encoding: 7838 7838 457
Width: 555
VWidth: 1920
Flags: HW
LayerCount: 2
Fore
SplineSet
79 1097 m 2
 79 1303 121 1417 275 1417 c 0
 404 1417 440 1294 474 1164 c 0
 477 1153 478 1145 476 1136 c 2
 395 715 l 1
 451 643 518 570 518 343 c 0
 518 119 461 -18 350 -18 c 0
 301 -18 259 27 243 78 c 0
 239 90 230 116 230 122 c 2
 230 232 l 2
 230 246 243 242 250 223 c 0
 265 177 290 104 327 104 c 0
 379 104 404 171 404 346 c 0
 404 539 365 597 283 667 c 0
 275 674 274 671 279 680 c 2
 371 1145 l 1
 359 1240 329 1334 275 1334 c 0
 200 1334 190 1261 190 1101 c 2
 190 5 l 2
 190 1 189 0 185 0 c 2
 84 0 l 2
 80 0 79 1 79 5 c 2
 79 1097 l 2
EndSplineSet
EndChar
